<svg width="395" height="362" viewBox="0 0 395 362" fill="none" xmlns="http://www.w3.org/2000/svg">
<g filter="url(#filter0_d_3_57)">
<path d="M68.0464 130.692L68.0484 130.689C59.1725 128.096 57.8289 116.131 65.7182 111.545C70.7418 108.626 77.1779 110.343 80.0811 115.372C75.7211 107.82 81.9684 98.5669 90.5736 99.74L91.3072 96.7744L91.3006 96.7754C92.6809 91.119 91.8145 84.9044 88.2964 79.5847C82.0116 70.0813 69.2197 67.0727 59.3362 72.7413C48.8844 78.7358 45.2946 92.0748 51.315 102.502C45.2946 92.0748 31.9478 88.5142 21.5304 94.5685C11.6795 100.294 7.88912 112.876 12.9768 123.07C15.825 128.777 20.7737 132.635 26.3624 134.268L26.3585 134.273L67.6918 146.209C73.4945 147.885 79.5273 144.402 80.9776 138.538L81.9267 134.7L68.0464 130.692Z" fill="#FF7876"/>
<path d="M83.949 101.02C78.9088 103.91 77.1778 110.343 80.081 115.371C77.1778 110.343 70.7417 108.626 65.718 111.545C57.8179 116.137 59.1836 128.099 68.0483 130.689L68.0463 130.692L87.9782 136.448C90.7764 137.256 93.6857 135.576 94.385 132.749L99.3661 112.609L99.3631 112.61C101.555 103.626 91.8645 96.4798 83.949 101.02Z" fill="#FFDB77"/>
<path d="M24.5559 99.7623C24.5543 99.7633 24.5525 99.7643 24.5508 99.7653C17.4498 103.893 14.6758 113.013 18.3555 120.386C18.8498 121.376 20.0531 121.778 21.0433 121.284C22.0561 120.773 22.4256 119.566 21.9415 118.596C19.2134 113.13 21.2783 106.302 26.5646 103.23C27.5213 102.674 27.8462 101.448 27.2903 100.491C26.7352 99.5358 25.512 99.2104 24.5559 99.7623Z" fill="#414042"/>
<path d="M93.0093 98.2372C94.7666 91.1306 94.0225 84.6107 89.9677 78.4794C83.0805 68.0651 69.1874 64.781 58.3393 71.0028C58.3187 71.0147 58.2993 71.0259 58.2787 71.0378C49.6697 76.0082 45.5593 85.355 46.5229 94.2023C39.3139 88.9225 29.1659 87.8461 20.5839 92.8009C20.5638 92.8125 20.5437 92.8241 20.5233 92.8359C9.71087 99.1195 5.60849 112.793 11.1839 123.965C14.2128 130.034 19.4704 134.356 25.8024 136.198L67.1357 148.134C70.4705 149.096 73.9628 148.671 76.9688 146.936C82.0956 143.976 82.8556 139.289 83.3714 137.203L87.4224 138.373C91.3189 139.498 95.357 137.164 96.3301 133.23C96.3523 133.14 101.321 113.059 101.338 112.968C102.854 106.496 99.0798 100.19 93.0093 98.2372ZM74.9649 143.465C72.9114 144.65 70.5259 144.941 68.2474 144.283C13.0349 128.339 33.9586 134.384 26.9244 132.344C21.5796 130.782 17.2629 127.171 14.7698 122.175C10.1358 112.89 13.5478 101.525 22.5371 96.3004C22.5543 96.2905 22.5704 96.2811 22.5876 96.2713C32.0453 90.8109 44.1187 94.0451 49.5798 103.504C50.1332 104.463 51.3586 104.791 52.317 104.237C53.2756 103.684 53.6038 102.459 53.0504 101.5C47.5896 92.0418 50.8241 79.9689 60.2828 74.5079C60.2994 74.4983 60.3165 74.4884 60.3332 74.4788C69.3522 69.3059 80.9008 72.034 86.6252 80.6896C89.7051 85.3464 90.6741 90.8903 89.3543 96.2999C89.3543 96.2999 89.3698 96.261 89.0309 97.6318C82.4612 97.6956 77.0376 102.84 76.6835 109.486C73.0114 107.619 68.5478 107.597 64.7429 109.794C64.7324 109.8 64.7218 109.806 64.7114 109.812C55.3524 115.252 56.8748 129.406 67.3714 132.578C67.4106 132.592 67.4503 132.605 67.4906 132.617L79.5187 136.09C78.9987 138.192 78.557 141.391 74.9649 143.465ZM97.3948 112.235L92.44 132.267C92.0125 133.994 90.2418 135.015 88.5339 134.523C85.0156 133.506 81.6747 132.542 68.7083 128.797C68.6759 128.786 68.6431 128.776 68.6101 128.766C61.4637 126.678 60.2982 117.013 66.7249 113.278C66.7321 113.274 66.739 113.27 66.7462 113.266C70.8115 110.919 75.9994 112.309 78.3458 116.373C78.8993 117.332 80.1244 117.66 81.083 117.107C82.0416 116.553 82.3699 115.328 81.8164 114.37C79.4953 110.349 80.8073 105.147 84.9457 102.758C90.9267 99.3279 98.9794 104.067 97.3948 112.235Z" fill="#414042"/>
<path d="M201.396 197.506L201.399 197.505C196.957 189.396 204.467 179.984 213.288 182.321C218.905 183.809 222.242 189.574 220.739 195.182C222.996 186.759 233.956 184.634 239.211 191.549L241.827 189.97L241.822 189.966C246.797 186.943 250.579 181.936 251.853 175.686C254.129 164.522 247.211 153.35 236.214 150.369C224.585 147.218 212.614 154.111 209.498 165.742C212.614 154.111 205.694 142.156 194.047 139.071C183.033 136.153 171.456 142.37 167.845 153.176C165.824 159.226 166.595 165.453 169.393 170.559L169.386 170.56L190.173 208.227C193.091 213.515 199.82 215.318 204.992 212.198L208.376 210.155L201.396 197.506Z" fill="#FF7876"/>
<path d="M233.622 187.769C228.014 186.249 222.242 189.574 220.739 195.182C222.242 189.574 218.905 183.808 213.288 182.321C204.455 179.981 196.962 189.406 201.399 197.505L201.396 197.505L211.42 215.67C212.827 218.22 216.072 219.089 218.566 217.584L236.329 206.866L236.326 206.864C244.229 202.062 242.43 190.156 233.622 187.769Z" fill="#FFDB77"/>
<path d="M192.514 144.883C192.512 144.882 192.51 144.882 192.508 144.881C184.569 142.779 176.158 147.266 173.547 155.081C173.196 156.131 173.763 157.266 174.812 157.617C175.889 157.972 177.004 157.38 177.348 156.352C179.284 150.558 185.572 147.189 191.482 148.755C192.552 149.039 193.649 148.401 193.932 147.332C194.215 146.264 193.58 145.169 192.514 144.883Z" fill="#414042"/>
<path d="M241.996 192.208C248.264 188.426 252.348 183.289 253.817 176.087C256.31 163.853 248.809 151.706 236.739 148.435C236.716 148.429 236.694 148.423 236.671 148.417C227.069 145.844 217.553 149.547 211.979 156.484C210.614 147.653 204.2 139.716 194.628 137.152C194.606 137.146 194.583 137.14 194.56 137.134C182.472 133.931 169.902 140.699 165.945 152.541C163.795 158.975 164.457 165.748 167.632 171.528L188.419 209.195C190.096 212.234 192.866 214.402 196.219 215.301C201.937 216.833 205.789 214.056 207.628 212.946L209.666 216.638C211.625 220.189 216.131 221.394 219.601 219.3C219.68 219.252 237.393 208.567 237.469 208.514C243.117 205.009 244.908 197.881 241.996 192.208ZM197.256 211.43C194.966 210.816 193.073 209.335 191.928 207.258C164.161 156.943 174.682 176.013 171.15 169.596C168.475 164.713 167.976 159.107 169.746 153.811C173.035 143.969 183.484 138.345 193.535 141.007C193.554 141.012 193.572 141.017 193.591 141.022C204.139 143.849 210.39 154.673 207.563 165.223C207.276 166.292 207.911 167.391 208.98 167.677C210.049 167.964 211.147 167.329 211.434 166.26C214.261 155.711 225.085 149.461 235.634 152.288C235.653 152.293 235.672 152.298 235.691 152.303C245.726 155.023 251.963 165.118 249.89 175.286C248.775 180.757 245.54 185.362 240.782 188.254C240.782 188.254 240.82 188.237 239.611 188.967C234.921 184.367 227.448 184.169 222.498 188.618C221.222 184.701 218.081 181.53 213.837 180.393C213.825 180.39 213.813 180.387 213.802 180.383C203.338 177.612 194.406 188.697 199.585 198.362C199.603 198.4 199.622 198.437 199.642 198.474L205.691 209.435C203.837 210.554 201.263 212.503 197.256 211.43ZM235.199 205.207L217.531 215.869C216.007 216.788 214.033 216.257 213.174 214.701C211.405 211.495 209.725 208.45 203.204 196.634C203.189 196.603 203.173 196.573 203.156 196.543C199.58 190.013 205.589 182.355 212.775 184.258C212.783 184.26 212.791 184.262 212.799 184.264C217.333 185.479 220.018 190.131 218.803 194.664C218.517 195.733 219.151 196.831 220.22 197.118C221.29 197.404 222.388 196.77 222.674 195.701C223.876 191.217 228.482 188.466 233.098 189.703C239.752 191.507 242.095 200.552 235.199 205.207Z" fill="#414042"/>
<path d="M83.3289 335.052L83.3318 335.05C76.9417 328.367 81.7609 317.332 90.8858 317.306C96.6962 317.29 101.411 321.995 101.411 327.801C101.411 319.081 111.448 314.192 118.314 319.51L120.432 317.309L120.426 317.306C124.449 313.098 126.806 307.283 126.42 300.916C125.728 289.544 116.155 280.542 104.761 280.51C92.7121 280.475 82.9337 290.232 82.9337 302.273C82.9337 290.232 73.1554 280.475 61.1066 280.51C49.7129 280.542 40.1391 289.544 39.448 300.916C39.0611 307.283 41.4181 313.098 45.4416 317.306L45.4358 317.309L75.2633 348.312C79.4507 352.665 86.4168 352.665 90.6044 348.312L93.3453 345.463L83.3289 335.052Z" fill="#FF7876"/>
<path d="M111.937 317.306C106.127 317.289 101.411 321.994 101.411 327.801C101.411 321.994 96.6961 317.289 90.8858 317.306C81.7483 317.332 76.9497 328.375 83.3318 335.05L83.3289 335.051L97.7125 350.002C99.7317 352.101 103.091 352.101 105.11 350.002L119.494 335.051L119.491 335.05C125.881 328.366 121.062 317.332 111.937 317.306Z" fill="#FFDB77"/>
<path d="M61.1298 286.521C61.1279 286.521 61.1258 286.521 61.1239 286.521C52.9106 286.544 45.9479 293.056 45.4483 301.281C45.3812 302.386 46.2223 303.335 47.327 303.402C48.4593 303.467 49.3829 302.606 49.4486 301.524C49.8192 295.426 55.0215 290.545 61.1354 290.528C62.242 290.525 63.1365 289.625 63.1336 288.519C63.1303 287.414 62.2337 286.521 61.1298 286.521Z" fill="#414042"/>
<path d="M121.175 319.426C126.25 314.151 128.865 308.132 128.42 300.795C127.662 288.332 117.272 278.542 104.767 278.506C104.743 278.506 104.721 278.506 104.697 278.506C94.756 278.506 86.5229 284.545 82.9337 292.689C79.3304 284.512 71.0802 278.506 61.1707 278.506C61.1474 278.506 61.1242 278.506 61.1007 278.506C48.595 278.541 38.2053 288.332 37.4479 300.795C37.0365 307.565 39.429 313.936 43.9917 318.698L73.8193 349.701C76.2259 352.202 79.4629 353.58 82.934 353.58C88.8539 353.58 91.8556 349.901 93.3451 348.353L96.2684 351.392C99.0804 354.314 103.744 354.312 106.554 351.392C106.618 351.325 120.962 336.419 121.022 336.348C125.571 331.501 125.456 324.153 121.175 319.426ZM82.934 349.572C80.5629 349.572 78.3515 348.631 76.7074 346.922C36.8639 305.508 51.9619 321.205 46.8902 315.921C43.0422 311.897 41.1095 306.611 41.4482 301.038C42.0777 290.68 50.7153 282.543 61.1124 282.513C61.1322 282.513 61.1509 282.513 61.1707 282.513C72.0915 282.513 80.9302 291.351 80.9302 302.273C80.9302 303.38 81.8274 304.277 82.934 304.277C84.0409 304.277 84.9378 303.38 84.9378 302.273C84.9378 291.351 93.7755 282.513 104.697 282.513C104.717 282.513 104.736 282.513 104.756 282.513C115.153 282.543 123.79 290.68 124.42 301.038C124.759 306.611 122.826 311.896 118.978 315.921C118.978 315.921 119.011 315.895 118.032 316.913C112.311 313.683 105.041 315.427 101.412 321.005C99.1653 317.552 95.3103 315.302 90.9167 315.302C90.9047 315.302 90.8924 315.302 90.8804 315.302C80.0555 315.333 74.297 328.352 81.8012 336.348C81.8282 336.379 81.8562 336.41 81.8851 336.441L90.5652 345.463C89.0637 347.023 87.0818 349.572 82.934 349.572ZM117.974 333.742L103.667 348.613C102.433 349.895 100.389 349.893 99.1562 348.613C96.6173 345.974 94.2064 343.468 84.8493 333.742C84.8269 333.716 84.8037 333.691 84.7799 333.666C79.635 328.284 83.4579 319.332 90.8914 319.31C90.8997 319.31 90.9077 319.31 90.916 319.31C95.6101 319.31 99.4077 323.108 99.4077 327.801C99.4077 328.908 100.305 329.805 101.411 329.805C102.518 329.805 103.415 328.908 103.415 327.801C103.415 323.159 107.152 319.31 111.931 319.31C118.826 319.33 123.43 327.46 117.974 333.742Z" fill="#414042"/>
<path d="M289.396 66.5057L289.399 66.5054C284.957 58.3955 292.467 48.9845 301.288 51.3209C306.905 52.8087 310.242 58.5739 308.739 64.1824C310.996 55.7594 321.956 53.6343 327.211 60.5486L329.827 58.9703L329.822 58.9664C334.797 55.9427 338.579 50.9357 339.853 44.6864C342.129 33.5224 335.211 22.3498 324.214 19.3694C312.585 16.2177 300.614 23.1114 297.498 34.7419C300.614 23.1114 293.694 11.156 282.047 8.07084C271.033 5.15342 259.456 11.3703 255.845 22.1765C253.824 28.2258 254.595 34.4526 257.393 39.5591L257.386 39.5599L278.173 77.227C281.091 82.5152 287.82 84.3182 292.992 81.1976L296.376 79.155L289.396 66.5057Z" fill="#FF7876"/>
<path d="M321.622 56.7691C316.014 55.2492 310.242 58.5736 308.739 64.1822C310.242 58.5736 306.905 52.8084 301.288 51.3206C292.455 48.9809 284.962 58.4056 289.399 66.5052L289.396 66.5054L299.42 84.6695C300.827 87.2195 304.072 88.089 306.566 86.5843L324.329 75.8657L324.326 75.8639C332.229 71.0617 330.43 59.1561 321.622 56.7691Z" fill="#FFDB77"/>
<path d="M280.514 13.8828C280.512 13.8823 280.51 13.8818 280.508 13.8813C272.569 11.7785 264.158 16.2663 261.547 24.0815C261.196 25.1312 261.763 26.2663 262.812 26.617C263.889 26.9723 265.004 26.3799 265.348 25.3517C267.284 19.5575 273.572 16.1894 279.482 17.7553C280.552 18.0386 281.649 17.4012 281.932 16.3315C282.215 15.2636 281.58 14.1685 280.514 13.8828Z" fill="#414042"/>
<path d="M329.996 61.2082C336.264 57.4258 340.348 52.2893 341.817 45.0866C344.31 32.8526 336.809 20.7065 324.739 17.4352C324.716 17.429 324.694 17.4232 324.671 17.4171C315.069 14.8442 305.553 18.5469 299.979 25.4843C298.614 16.6533 292.2 8.71647 282.628 6.15168C282.606 6.14567 282.583 6.13965 282.56 6.13357C270.472 2.93119 257.902 9.69921 253.945 21.5412C251.795 27.9746 252.457 34.7479 255.632 40.5278L276.419 78.1949C278.096 81.2338 280.866 83.4025 284.219 84.3009C289.937 85.8331 293.789 83.0564 295.628 81.9464L297.666 85.638C299.625 89.1888 304.131 90.3938 307.601 88.3001C307.68 88.2522 325.393 77.5667 325.469 77.5137C331.117 74.0093 332.908 66.8814 329.996 61.2082ZM285.256 80.4296C282.966 79.8159 281.073 78.3347 279.928 76.2583C252.161 25.943 262.682 45.0128 259.15 38.5962C256.475 33.7127 255.976 28.1067 257.746 22.8114C261.035 12.9691 271.484 7.345 281.535 10.0073C281.554 10.0125 281.572 10.0173 281.591 10.0224C292.139 12.8489 298.39 23.6731 295.563 34.2231C295.276 35.2923 295.911 36.3908 296.98 36.6772C298.049 36.9637 299.147 36.3295 299.434 35.2603C302.261 24.7109 313.085 18.4611 323.634 21.2879C323.653 21.2929 323.672 21.298 323.691 21.303C333.726 24.0226 339.963 34.1178 337.89 44.286C336.775 49.7566 333.54 54.362 328.782 57.2539C328.782 57.2539 328.82 57.2373 327.611 57.967C322.921 53.3666 315.448 53.1691 310.498 57.6179C309.222 53.7012 306.081 50.53 301.837 49.3929C301.825 49.3898 301.813 49.3866 301.802 49.3835C291.338 46.612 282.406 57.6968 287.585 67.3622C287.603 67.3996 287.622 67.4368 287.642 67.4737L293.691 78.4349C291.837 79.5536 289.263 81.5032 285.256 80.4296ZM323.199 74.2072L305.531 84.8686C304.007 85.7875 302.033 85.2572 301.174 83.7013C299.405 80.495 297.725 77.4503 291.204 65.6342C291.189 65.6034 291.173 65.5728 291.156 65.5427C287.58 59.0129 293.589 51.3548 300.775 53.2578C300.783 53.2599 300.791 53.262 300.799 53.2642C305.333 54.4791 308.018 59.1309 306.803 63.6638C306.517 64.733 307.151 65.8314 308.22 66.1179C309.29 66.4044 310.388 65.7702 310.674 64.701C311.876 60.2169 316.482 57.4665 321.098 58.7032C327.752 60.5069 330.095 69.5522 323.199 74.2072Z" fill="#414042"/>
<path d="M346.063 299.133L346.065 299.131C337.145 296.694 335.592 284.753 343.4 280.031C348.372 277.024 354.837 278.628 357.828 283.605C353.336 276.13 359.42 266.769 368.045 267.792L368.726 264.814L368.72 264.815C370.001 259.135 369.026 252.937 365.415 247.679C358.965 238.287 346.122 235.503 336.339 241.344C325.994 247.521 322.638 260.921 328.841 271.241C322.638 260.921 309.231 257.594 298.922 263.83C289.172 269.727 285.603 282.374 290.869 292.478C293.816 298.134 298.832 301.904 304.448 303.439L304.444 303.444L345.98 314.654C351.812 316.228 357.782 312.64 359.13 306.752L360.012 302.898L346.063 299.133Z" fill="#FF7876"/>
<path d="M361.444 269.187C356.455 272.166 354.837 278.628 357.828 283.604C354.837 278.628 348.372 277.023 343.4 280.03C335.581 284.76 337.156 296.697 346.065 299.131L346.063 299.133L366.093 304.539C368.905 305.298 371.784 303.568 372.434 300.729L377.061 280.505L377.058 280.505C379.093 271.485 369.278 264.509 361.444 269.187Z" fill="#FFDB77"/>
<path d="M302.038 268.97C302.036 268.971 302.034 268.972 302.033 268.973C295.005 273.224 292.391 282.392 296.199 289.699C296.711 290.681 297.921 291.062 298.903 290.55C299.906 290.022 300.254 288.808 299.753 287.847C296.93 282.43 298.875 275.566 304.107 272.402C305.054 271.83 305.357 270.598 304.784 269.651C304.213 268.706 302.984 268.402 302.038 268.97Z" fill="#414042"/>
<path d="M370.454 266.246C372.086 259.11 371.228 252.604 367.067 246.545C359.998 236.253 346.05 233.213 335.312 239.623C335.292 239.636 335.272 239.647 335.252 239.66C326.731 244.78 322.785 254.197 323.904 263.026C316.603 257.874 306.438 256.975 297.944 262.08C297.924 262.091 297.904 262.103 297.884 262.116C287.184 268.588 283.321 282.331 289.092 293.403C292.226 299.419 297.559 303.647 303.922 305.378L345.458 316.588C348.809 317.493 352.294 317.006 355.269 315.218C360.343 312.169 361.021 307.47 361.5 305.375L365.571 306.474C369.486 307.531 373.483 305.126 374.387 301.176C374.408 301.086 379.024 280.921 379.039 280.829C380.441 274.332 376.558 268.092 370.454 266.246ZM353.204 311.783C351.172 313.004 348.792 313.337 346.502 312.719C291.019 297.745 312.045 303.422 304.976 301.505C299.605 300.038 295.226 296.503 292.646 291.551C287.85 282.349 291.062 270.925 299.958 265.544C299.975 265.534 299.991 265.524 300.008 265.514C309.369 259.889 321.497 262.911 327.123 272.273C327.693 273.222 328.924 273.529 329.873 272.959C330.822 272.388 331.128 271.158 330.558 270.209C324.933 260.848 327.955 248.72 337.317 243.094C337.333 243.084 337.35 243.074 337.367 243.064C346.294 237.734 357.888 240.259 363.763 248.813C366.924 253.416 367.99 258.942 366.765 264.373C366.765 264.373 366.78 264.334 366.465 265.711C359.898 265.89 354.565 271.128 354.327 277.779C350.623 275.977 346.16 276.034 342.394 278.297C342.384 278.303 342.373 278.309 342.363 278.316C333.101 283.918 334.871 298.043 345.421 301.031C345.461 301.044 345.501 301.056 345.541 301.068L357.628 304.33C357.145 306.441 356.76 309.647 353.204 311.783ZM375.084 280.165L370.481 300.281C370.083 302.016 368.331 303.067 366.615 302.605C363.079 301.65 359.722 300.744 346.692 297.228C346.659 297.217 346.626 297.207 346.593 297.198C339.411 295.236 338.077 285.593 344.437 281.745C344.444 281.741 344.451 281.737 344.458 281.733C348.481 279.315 353.693 280.614 356.11 284.637C356.68 285.585 357.911 285.892 358.86 285.322C359.809 284.752 360.115 283.521 359.545 282.572C357.154 278.593 358.375 273.369 362.471 270.908C368.391 267.373 376.525 271.971 375.084 280.165Z" fill="#414042"/>
<path d="M74.0001 234.013C89.4292 234.013 101.937 222.815 101.937 209C101.937 195.186 89.4292 183.987 74.0001 183.987C58.5709 183.987 46.0631 195.186 46.0631 209C46.0631 222.815 58.5709 234.013 74.0001 234.013Z" fill="#9AD14B"/>
<path d="M74.0001 218.23C78.5641 218.23 82.264 214.098 82.264 209C82.264 203.903 78.5641 199.77 74.0001 199.77C69.436 199.77 65.7361 203.903 65.7361 209C65.7361 214.098 69.436 218.23 74.0001 218.23Z" fill="#D1EF9C"/>
<path d="M95.8475 219.891C95.6659 219.891 95.4819 219.844 95.3135 219.746C94.8062 219.451 94.6343 218.8 94.9297 218.292C96.6164 215.395 97.4717 212.268 97.4717 209C97.4717 204.175 95.5125 199.481 91.955 195.783C88.4097 192.098 83.4983 189.608 78.1254 188.77C77.5453 188.679 77.1482 188.136 77.2388 187.556C77.3292 186.976 77.8714 186.578 78.4529 186.669C84.2821 187.578 89.6214 190.291 93.4872 194.309C97.4277 198.405 99.5978 203.622 99.5978 209C99.5978 212.598 98.619 216.181 96.767 219.362C96.5699 219.701 96.2135 219.891 95.8475 219.891Z" fill="white"/>
<path d="M74.1417 215.962C70.8746 215.962 68.2166 212.871 68.2166 209.071C68.2166 208.213 68.3507 207.375 68.6154 206.581C68.8008 206.023 69.4029 205.722 69.9599 205.908C70.517 206.093 70.8182 206.695 70.6326 207.252C70.4404 207.83 70.3429 208.442 70.3429 209.071C70.3429 211.698 72.047 213.835 74.1417 213.835C74.7288 213.835 75.2048 214.311 75.2048 214.899C75.2048 215.486 74.729 215.962 74.1417 215.962Z" fill="white"/>
<path d="M73.9999 235.076C66.2756 235.076 59.0083 232.378 53.5364 227.479C48.0316 222.55 45 215.988 45 209C45 202.012 48.0316 195.45 53.5366 190.521C59.0084 185.622 66.2758 182.924 74.0001 182.924C81.7244 182.924 88.9918 185.622 94.4636 190.521C99.9684 195.45 103 202.012 103 209C103 215.988 99.9685 222.55 94.4636 227.479C88.9917 232.378 81.7242 235.076 73.9999 235.076ZM73.9999 185.05C59.1818 185.05 47.1263 195.794 47.1263 209C47.1263 222.206 59.1818 232.95 73.9999 232.95C88.8182 232.95 100.874 222.206 100.874 209C100.874 195.794 88.8183 185.05 73.9999 185.05Z" fill="#333333"/>
<path d="M74.0708 198.778C79.2138 198.778 83.3979 203.395 83.3979 209.071C83.3979 214.747 79.2137 219.364 74.0708 219.364C68.9279 219.364 64.7437 214.747 64.7437 209.071C64.7437 203.395 68.9279 198.778 74.0708 198.778ZM74.0708 217.238C78.0414 217.238 81.2716 213.574 81.2716 209.071C81.2716 204.567 78.0413 200.904 74.0708 200.904C70.1004 200.904 66.87 204.567 66.87 209.071C66.87 213.574 70.1004 217.238 74.0708 217.238Z" fill="#333333"/>
<path d="M73.9763 223.17C73.9734 223.17 73.972 223.17 73.9692 223.17C73.3823 223.168 72.9075 222.69 72.9089 222.104C72.9103 221.517 73.388 221.042 73.9748 221.043C73.9791 221.043 73.9819 221.043 73.9862 221.043C73.9904 221.043 73.9947 221.043 74.0004 221.043C74.5872 221.043 75.0635 221.52 75.0635 222.106C75.0635 222.693 74.5872 223.17 74.0004 223.17C73.9917 223.17 73.9832 223.17 73.9763 223.17ZM77.4605 221.579C77.2153 221.045 77.4506 220.414 77.9836 220.169C78.518 219.925 79.1488 220.159 79.3926 220.693C79.6378 221.226 79.4039 221.858 78.8695 222.102C78.7263 222.167 78.5761 222.199 78.4273 222.199C78.0247 222.199 77.639 221.969 77.4605 221.579ZM69.1028 222.089C68.5699 221.843 68.336 221.212 68.5826 220.679C68.8278 220.146 69.4601 219.912 69.993 220.159C70.526 220.404 70.7585 221.036 70.5133 221.569C70.3332 221.958 69.9491 222.187 69.5479 222.187C69.3977 222.187 69.2474 222.156 69.1028 222.089ZM81.37 219.24C80.9405 218.84 80.9164 218.167 81.3161 217.738C81.7159 217.308 82.3878 217.284 82.8187 217.684C83.2482 218.083 83.2723 218.755 82.8726 219.186C82.6628 219.412 82.3793 219.525 82.0944 219.525C81.8348 219.525 81.5754 219.43 81.37 219.24ZM65.1069 219.164C64.7071 218.733 64.7326 218.059 65.165 217.661C65.5959 217.261 66.2678 217.288 66.6661 217.719C67.0659 218.15 67.0389 218.822 66.608 219.222C66.4039 219.41 66.1445 219.504 65.8865 219.504C65.6014 219.504 65.3151 219.389 65.1069 219.164ZM84.1398 215.618C83.5998 215.39 83.3474 214.767 83.5757 214.225C83.8053 213.685 84.429 213.433 84.9705 213.661C85.5106 213.89 85.7629 214.514 85.5347 215.054C85.3631 215.46 84.9691 215.703 84.5552 215.703C84.4161 215.703 84.2759 215.677 84.1398 215.618ZM62.4531 215.026C62.2263 214.486 62.4801 213.862 63.0216 213.634C63.5616 213.406 64.1853 213.659 64.4136 214.201C64.6418 214.742 64.3881 215.366 63.8466 215.593C63.7119 215.65 63.5716 215.677 63.4341 215.677C63.0189 215.677 62.6247 215.433 62.4531 215.026ZM85.5432 211.279C84.9577 211.234 84.5211 210.722 84.5665 210.137C84.6119 209.551 85.1236 209.113 85.709 209.159C86.2945 209.206 86.7325 209.716 86.6857 210.301C86.6432 210.86 86.1768 211.282 85.6268 211.282C85.5999 211.282 85.5714 211.281 85.5432 211.279ZM61.3122 210.272C61.2668 209.686 61.7048 209.174 62.2903 209.13C62.8757 209.087 63.3874 209.525 63.4314 210.11C63.4767 210.695 63.0373 211.206 62.4519 211.251C62.4249 211.252 62.398 211.254 62.3697 211.254C61.8197 211.254 61.3533 210.829 61.3122 210.272ZM84.2389 205.931C84.1014 205.361 84.453 204.787 85.0242 204.65C85.5955 204.512 86.1696 204.864 86.3071 205.435C86.4432 206.006 86.0916 206.58 85.5218 206.716C85.4381 206.736 85.3545 206.746 85.2723 206.746C84.7917 206.746 84.3567 206.419 84.2389 205.931ZM62.4829 206.688C61.9131 206.551 61.5629 205.975 61.7004 205.405C61.8394 204.834 62.4135 204.484 62.9847 204.623C63.5546 204.76 63.9047 205.336 63.7672 205.906C63.6481 206.392 63.2144 206.719 62.7352 206.719C62.6516 206.719 62.5681 206.709 62.4829 206.688ZM82.6031 202.07C82.287 201.575 82.4316 200.917 82.9263 200.601C83.4196 200.284 84.0773 200.428 84.3948 200.923C84.711 201.416 84.5664 202.074 84.0717 202.392C83.8945 202.505 83.696 202.559 83.5004 202.559C83.1504 202.559 82.8072 202.386 82.6031 202.07ZM63.9415 202.366C63.4468 202.049 63.3051 201.391 63.6226 200.896C63.9401 200.403 64.5978 200.26 65.0911 200.577C65.5859 200.895 65.7276 201.554 65.4101 202.047C65.2074 202.363 64.8643 202.535 64.5156 202.535C64.3187 202.535 64.1187 202.481 63.9415 202.366ZM79.7737 199.028C79.3003 198.681 79.1982 198.014 79.5455 197.542C79.8928 197.069 80.5591 196.967 81.0325 197.314C81.5045 197.661 81.6066 198.326 81.2593 198.8C81.0509 199.083 80.7292 199.233 80.4017 199.233C80.1836 199.233 79.9638 199.167 79.7737 199.028ZM66.7611 198.781C66.4152 198.308 66.5187 197.642 66.9922 197.296C67.467 196.95 68.1318 197.053 68.4777 197.527C68.825 198.002 68.7215 198.666 68.2467 199.012C68.0581 199.151 67.8384 199.218 67.6215 199.218C67.2927 199.218 66.9693 199.066 66.7611 198.781ZM76.0499 197.323C75.4773 197.195 75.1144 196.628 75.242 196.055C75.3681 195.481 75.9351 195.12 76.5092 195.246C77.0819 195.373 77.4448 195.941 77.3172 196.515C77.208 197.009 76.7686 197.348 76.2796 197.348C76.2046 197.348 76.1265 197.34 76.0499 197.323ZM70.7089 196.505C70.5841 195.932 70.9484 195.365 71.5211 195.239C72.0952 195.114 72.6622 195.478 72.787 196.051C72.9117 196.625 72.5488 197.192 71.9747 197.317C71.8982 197.334 71.8216 197.341 71.7479 197.341C71.2589 197.341 70.818 197.002 70.7089 196.505Z" fill="#333333"/>
<path d="M74.0002 188.452C74.5874 188.452 75.0633 187.976 75.0633 187.389C75.0633 186.801 74.5874 186.326 74.0002 186.326C73.4131 186.326 72.9371 186.801 72.9371 187.389C72.9371 187.976 73.4131 188.452 74.0002 188.452Z" fill="white"/>
<path d="M214 335.09C229.429 335.09 241.937 323.891 241.937 310.076C241.937 296.262 229.429 285.063 214 285.063C198.571 285.063 186.063 296.262 186.063 310.076C186.063 323.891 198.571 335.09 214 335.09Z" fill="#9AD14B"/>
<path d="M214 319.306C218.564 319.306 222.264 315.174 222.264 310.076C222.264 304.979 218.564 300.847 214 300.847C209.436 300.847 205.736 304.979 205.736 310.076C205.736 315.174 209.436 319.306 214 319.306Z" fill="#D1EF9C"/>
<path d="M235.848 320.967C235.666 320.967 235.482 320.92 235.314 320.822C234.806 320.527 234.634 319.876 234.93 319.369C236.616 316.471 237.472 313.345 237.472 310.076C237.472 305.251 235.513 300.557 231.955 296.86C228.41 293.175 223.498 290.684 218.125 289.846C217.545 289.756 217.148 289.212 217.239 288.632C217.329 288.052 217.871 287.655 218.453 287.745C224.282 288.654 229.621 291.368 233.487 295.385C237.428 299.481 239.598 304.698 239.598 310.076C239.598 313.674 238.619 317.257 236.767 320.438C236.57 320.778 236.214 320.967 235.848 320.967Z" fill="white"/>
<path d="M214.142 317.038C210.875 317.038 208.217 313.947 208.217 310.147C208.217 309.289 208.351 308.452 208.615 307.657C208.801 307.1 209.403 306.798 209.96 306.984C210.517 307.17 210.818 307.772 210.633 308.329C210.44 308.906 210.343 309.518 210.343 310.147C210.343 312.774 212.047 314.912 214.142 314.912C214.729 314.912 215.205 315.388 215.205 315.975C215.205 316.562 214.729 317.038 214.142 317.038Z" fill="white"/>
<path d="M214 336.153C206.276 336.153 199.008 333.455 193.536 328.555C188.032 323.627 185 317.064 185 310.076C185 303.089 188.032 296.526 193.537 291.597C199.008 286.698 206.276 284 214 284C221.724 284 228.992 286.698 234.464 291.597C239.968 296.526 243 303.089 243 310.076C243 317.064 239.968 323.627 234.464 328.556C228.992 333.455 221.724 336.153 214 336.153ZM214 286.126C199.182 286.126 187.126 296.87 187.126 310.076C187.126 323.283 199.182 334.027 214 334.027C228.818 334.027 240.874 323.283 240.874 310.076C240.874 296.87 228.818 286.126 214 286.126Z" fill="#333333"/>
<path d="M214.071 299.854C219.214 299.854 223.398 304.472 223.398 310.147C223.398 315.823 219.214 320.44 214.071 320.44C208.928 320.44 204.744 315.823 204.744 310.147C204.744 304.472 208.928 299.854 214.071 299.854ZM214.071 318.314C218.041 318.314 221.272 314.65 221.272 310.147C221.272 305.644 218.041 301.98 214.071 301.98C210.1 301.98 206.87 305.644 206.87 310.147C206.87 314.65 210.1 318.314 214.071 318.314Z" fill="#333333"/>
<path d="M213.976 324.246C213.973 324.246 213.972 324.246 213.969 324.246C213.382 324.244 212.907 323.767 212.909 323.18C212.91 322.593 213.388 322.118 213.975 322.12C213.979 322.12 213.982 322.12 213.986 322.12C213.99 322.12 213.995 322.12 214 322.12C214.587 322.12 215.063 322.596 215.063 323.183C215.063 323.77 214.587 324.246 214 324.246C213.992 324.246 213.983 324.246 213.976 324.246ZM217.461 322.655C217.215 322.121 217.451 321.49 217.984 321.245C218.518 321.001 219.149 321.235 219.393 321.77C219.638 322.303 219.404 322.935 218.87 323.179C218.726 323.244 218.576 323.275 218.427 323.275C218.025 323.275 217.639 323.045 217.461 322.655ZM209.103 323.166C208.57 322.919 208.336 322.288 208.583 321.755C208.828 321.222 209.46 320.988 209.993 321.235C210.526 321.48 210.759 322.113 210.513 322.646C210.333 323.034 209.949 323.264 209.548 323.264C209.398 323.264 209.247 323.232 209.103 323.166ZM221.37 320.317C220.941 319.917 220.916 319.244 221.316 318.814C221.716 318.384 222.388 318.36 222.819 318.76C223.248 319.16 223.272 319.832 222.873 320.263C222.663 320.488 222.379 320.601 222.094 320.601C221.835 320.601 221.575 320.507 221.37 320.317ZM205.107 320.24C204.707 319.809 204.733 319.136 205.165 318.737C205.596 318.338 206.268 318.365 206.666 318.796C207.066 319.226 207.039 319.898 206.608 320.298C206.404 320.487 206.144 320.58 205.887 320.58C205.601 320.58 205.315 320.465 205.107 320.24ZM224.14 316.695C223.6 316.467 223.347 315.843 223.576 315.301C223.805 314.761 224.429 314.509 224.971 314.737C225.511 314.967 225.763 315.591 225.535 316.131C225.363 316.536 224.969 316.78 224.555 316.78C224.416 316.78 224.276 316.753 224.14 316.695ZM202.453 316.102C202.226 315.562 202.48 314.939 203.022 314.71C203.562 314.482 204.185 314.736 204.414 315.277C204.642 315.819 204.388 316.443 203.847 316.669C203.712 316.726 203.572 316.753 203.434 316.753C203.019 316.753 202.625 316.509 202.453 316.102ZM225.543 312.356C224.958 312.31 224.521 311.799 224.567 311.213C224.612 310.628 225.124 310.19 225.709 310.235C226.294 310.282 226.732 310.792 226.686 311.378C226.643 311.936 226.177 312.359 225.627 312.359C225.6 312.359 225.571 312.357 225.543 312.356ZM201.312 311.348C201.267 310.763 201.705 310.251 202.29 310.207C202.876 310.163 203.387 310.601 203.431 311.186C203.477 311.772 203.037 312.282 202.452 312.327C202.425 312.329 202.398 312.33 202.37 312.33C201.82 312.33 201.353 311.905 201.312 311.348ZM224.239 307.008C224.101 306.438 224.453 305.864 225.024 305.726C225.595 305.589 226.17 305.94 226.307 306.511C226.443 307.083 226.092 307.657 225.522 307.793C225.438 307.813 225.355 307.823 225.272 307.823C224.792 307.823 224.357 307.495 224.239 307.008ZM202.483 307.764C201.913 307.627 201.563 307.051 201.7 306.482C201.839 305.91 202.413 305.56 202.985 305.699C203.555 305.837 203.905 306.412 203.767 306.982C203.648 307.468 203.214 307.796 202.735 307.796C202.652 307.796 202.568 307.786 202.483 307.764ZM222.603 303.146C222.287 302.652 222.432 301.994 222.926 301.678C223.42 301.36 224.077 301.505 224.395 301.999C224.711 302.493 224.566 303.15 224.072 303.468C223.894 303.581 223.696 303.635 223.5 303.635C223.15 303.635 222.807 303.462 222.603 303.146ZM203.942 303.442C203.447 303.125 203.305 302.467 203.623 301.973C203.94 301.479 204.598 301.336 205.091 301.654C205.586 301.971 205.728 302.63 205.41 303.124C205.207 303.44 204.864 303.611 204.516 303.611C204.319 303.611 204.119 303.557 203.942 303.442ZM219.774 300.104C219.3 299.757 219.198 299.091 219.546 298.619C219.893 298.145 220.559 298.043 221.033 298.39C221.505 298.738 221.607 299.403 221.259 299.876C221.051 300.16 220.729 300.31 220.402 300.31C220.184 300.31 219.964 300.243 219.774 300.104ZM206.761 299.858C206.415 299.384 206.519 298.718 206.992 298.372C207.467 298.026 208.132 298.13 208.478 298.603C208.825 299.078 208.722 299.743 208.247 300.089C208.058 300.228 207.838 300.294 207.622 300.294C207.293 300.294 206.969 300.143 206.761 299.858ZM216.05 298.399C215.477 298.271 215.114 297.704 215.242 297.132C215.368 296.558 215.935 296.196 216.509 296.322C217.082 296.45 217.445 297.017 217.317 297.591C217.208 298.086 216.769 298.424 216.28 298.424C216.205 298.424 216.126 298.416 216.05 298.399ZM210.709 297.581C210.584 297.008 210.948 296.441 211.521 296.315C212.095 296.19 212.662 296.555 212.787 297.127C212.912 297.702 212.549 298.269 211.975 298.393C211.898 298.41 211.822 298.417 211.748 298.417C211.259 298.417 210.818 298.079 210.709 297.581Z" fill="#333333"/>
<path d="M214 289.528C214.587 289.528 215.063 289.052 215.063 288.465C215.063 287.878 214.587 287.402 214 287.402C213.413 287.402 212.937 287.878 212.937 288.465C212.937 289.052 213.413 289.528 214 289.528Z" fill="white"/>
<path d="M168 92.0898C183.429 92.0898 195.937 80.8909 195.937 67.0765C195.937 53.262 183.429 42.0631 168 42.0631C152.571 42.0631 140.063 53.262 140.063 67.0765C140.063 80.8909 152.571 92.0898 168 92.0898Z" fill="#9AD14B"/>
<path d="M168 76.3063C172.564 76.3063 176.264 72.174 176.264 67.0765C176.264 61.9789 172.564 57.8466 168 57.8466C163.436 57.8466 159.736 61.9789 159.736 67.0765C159.736 72.174 163.436 76.3063 168 76.3063Z" fill="#D1EF9C"/>
<path d="M189.848 77.9669C189.666 77.9669 189.482 77.9204 189.314 77.8225C188.806 77.5271 188.634 76.8763 188.93 76.3688C190.616 73.471 191.472 70.3447 191.472 67.0764C191.472 62.2509 189.513 57.5571 185.955 53.8597C182.41 50.1749 177.498 47.684 172.125 46.8463C171.545 46.7558 171.148 46.2122 171.239 45.632C171.329 45.052 171.871 44.6548 172.453 44.7454C178.282 45.6544 183.621 48.3677 187.487 52.3855C191.428 56.4811 193.598 61.6984 193.598 67.0764C193.598 70.674 192.619 74.2571 190.767 77.4385C190.57 77.7775 190.214 77.9669 189.848 77.9669Z" fill="white"/>
<path d="M168.142 74.0383C164.875 74.0383 162.217 70.947 162.217 67.1472C162.217 66.2894 162.351 65.4516 162.615 64.6569C162.801 64.0998 163.403 63.7984 163.96 63.9841C164.517 64.1697 164.818 64.7716 164.633 65.3287C164.44 65.9061 164.343 66.5179 164.343 67.147C164.343 69.7744 166.047 71.9119 168.142 71.9119C168.729 71.9119 169.205 72.3879 169.205 72.975C169.205 73.5621 168.729 74.0383 168.142 74.0383Z" fill="white"/>
<path d="M168 93.1528C160.276 93.1528 153.008 90.4547 147.536 85.5554C142.032 80.6267 139 74.0641 139 67.0764C139 60.0888 142.032 53.5261 147.537 48.5973C153.008 43.6981 160.276 41 168 41C175.724 41 182.992 43.6981 188.464 48.5973C193.968 53.5261 197 60.0887 197 67.0764C197 74.0642 193.968 80.6267 188.464 85.5556C182.992 90.4547 175.724 93.1528 168 93.1528ZM168 43.1263C153.182 43.1263 141.126 53.8703 141.126 67.0764C141.126 80.2826 153.182 91.0266 168 91.0266C182.818 91.0266 194.874 80.2826 194.874 67.0764C194.874 53.8703 182.818 43.1263 168 43.1263Z" fill="#333333"/>
<path d="M168.071 56.8542C173.214 56.8542 177.398 61.4716 177.398 67.1473C177.398 72.8231 173.214 77.4405 168.071 77.4405C162.928 77.4405 158.744 72.8231 158.744 67.1473C158.744 61.4716 162.928 56.8542 168.071 56.8542ZM168.071 75.314C172.041 75.314 175.272 71.6505 175.272 67.1472C175.272 62.6439 172.041 58.9803 168.071 58.9803C164.1 58.9803 160.87 62.6439 160.87 67.1472C160.87 71.6505 164.1 75.314 168.071 75.314Z" fill="#333333"/>
<path d="M167.976 81.2459C167.973 81.2459 167.972 81.2459 167.969 81.2459C167.382 81.2445 166.907 80.7668 166.909 80.1799C166.91 79.5931 167.388 79.1182 167.975 79.1196C167.979 79.1196 167.982 79.1196 167.986 79.1196C167.99 79.1196 167.995 79.1196 168 79.1196C168.587 79.1196 169.063 79.5959 169.063 80.1828C169.063 80.7696 168.587 81.2459 168 81.2459C167.992 81.2459 167.983 81.2459 167.976 81.2459ZM171.461 79.6555C171.215 79.1211 171.451 78.4903 171.984 78.245C172.518 78.0012 173.149 78.2351 173.393 78.7695C173.638 79.3025 173.404 79.9347 172.87 80.1785C172.726 80.2437 172.576 80.2749 172.427 80.2749C172.025 80.2749 171.639 80.0453 171.461 79.6555ZM163.103 80.1658C162.57 79.9191 162.336 79.2883 162.583 78.7553C162.828 78.2224 163.46 77.9885 163.993 78.2351C164.526 78.4803 164.759 79.1126 164.513 79.6455C164.333 80.0339 163.949 80.2636 163.548 80.2636C163.398 80.2636 163.247 80.2324 163.103 80.1658ZM175.37 77.3166C174.941 76.9168 174.916 76.2435 175.316 75.814C175.716 75.3845 176.388 75.3604 176.819 75.7601C177.248 76.1599 177.272 76.8318 176.873 77.2627C176.663 77.4881 176.379 77.6015 176.094 77.6015C175.835 77.6015 175.575 77.5065 175.37 77.3166ZM159.107 77.24C158.707 76.8091 158.733 76.1358 159.165 75.7375C159.596 75.3377 160.268 75.3647 160.666 75.7956C161.066 76.2265 161.039 76.8984 160.608 77.2981C160.404 77.4867 160.144 77.5802 159.887 77.5802C159.601 77.5802 159.315 77.4654 159.107 77.24ZM178.14 73.6948C177.6 73.4666 177.347 72.8429 177.576 72.3014C177.805 71.7613 178.429 71.509 178.97 71.7372C179.511 71.9669 179.763 72.5906 179.535 73.1306C179.363 73.5361 178.969 73.7799 178.555 73.7799C178.416 73.7799 178.276 73.7529 178.14 73.6948ZM156.453 73.1023C156.226 72.5622 156.48 71.9385 157.022 71.7103C157.562 71.4821 158.185 71.7358 158.414 72.2773C158.642 72.8188 158.388 73.4425 157.847 73.6693C157.712 73.726 157.572 73.7529 157.434 73.7529C157.019 73.7529 156.625 73.5091 156.453 73.1023ZM179.543 69.3558C178.958 69.3104 178.521 68.7987 178.567 68.2133C178.612 67.6279 179.124 67.1898 179.709 67.2352C180.294 67.282 180.732 67.7923 180.686 68.3777C180.643 68.9362 180.177 69.3586 179.627 69.3586C179.6 69.3586 179.571 69.3572 179.543 69.3558ZM155.312 68.348C155.267 67.7625 155.705 67.2508 156.29 67.2069C156.876 67.1629 157.387 67.6009 157.431 68.1864C157.477 68.7718 157.037 69.2821 156.452 69.3275C156.425 69.3289 156.398 69.3303 156.37 69.3303C155.82 69.3303 155.353 68.905 155.312 68.348ZM178.239 64.0075C178.101 63.4377 178.453 62.8636 179.024 62.7261C179.595 62.5886 180.17 62.9401 180.307 63.5114C180.443 64.0827 180.092 64.6568 179.522 64.7928C179.438 64.8127 179.355 64.8226 179.272 64.8226C178.792 64.8226 178.357 64.4952 178.239 64.0075ZM156.483 64.7645C155.913 64.627 155.563 64.0515 155.7 63.4816C155.839 62.9104 156.413 62.5602 156.985 62.6992C157.555 62.8367 157.905 63.4122 157.767 63.982C157.648 64.4682 157.214 64.7957 156.735 64.7957C156.652 64.7957 156.568 64.7857 156.483 64.7645ZM176.603 60.1462C176.287 59.6515 176.432 58.9938 176.926 58.6777C177.42 58.3602 178.077 58.5047 178.395 58.9995C178.711 59.4927 178.566 60.1505 178.072 60.468C177.894 60.5814 177.696 60.6353 177.5 60.6353C177.15 60.6353 176.807 60.4623 176.603 60.1462ZM157.942 60.4425C157.447 60.125 157.305 59.4672 157.623 58.9725C157.94 58.4792 158.598 58.3361 159.091 58.6536C159.586 58.9711 159.728 59.6302 159.41 60.1235C159.207 60.4396 158.864 60.6112 158.516 60.6112C158.319 60.6112 158.119 60.5573 157.942 60.4425ZM173.774 57.1042C173.3 56.7569 173.198 56.0907 173.546 55.6187C173.893 55.1452 174.559 55.0432 175.033 55.3905C175.505 55.7378 175.607 56.4026 175.259 56.876C175.051 57.1595 174.729 57.3098 174.402 57.3098C174.184 57.3098 173.964 57.2432 173.774 57.1042ZM160.761 56.8576C160.415 56.3841 160.519 55.7179 160.992 55.372C161.467 55.0262 162.132 55.1296 162.478 55.6031C162.825 56.078 162.722 56.7428 162.247 57.0886C162.058 57.2276 161.838 57.2942 161.622 57.2942C161.293 57.2942 160.969 57.1425 160.761 56.8576ZM170.05 55.399C169.477 55.2714 169.114 54.7044 169.242 54.1317C169.368 53.5576 169.935 53.1962 170.509 53.3223C171.082 53.4499 171.445 54.0169 171.317 54.591C171.208 55.0857 170.769 55.4245 170.28 55.4245C170.205 55.4245 170.126 55.416 170.05 55.399ZM164.709 54.5811C164.584 54.0084 164.948 53.4414 165.521 53.3152C166.095 53.1905 166.662 53.5548 166.787 54.1275C166.912 54.7016 166.549 55.2686 165.975 55.3933C165.898 55.4103 165.822 55.4174 165.748 55.4174C165.259 55.4174 164.818 55.0786 164.709 54.5811Z" fill="#333333"/>
<path d="M168 46.5282C168.587 46.5282 169.063 46.0522 169.063 45.465C169.063 44.8779 168.587 44.4019 168 44.4019C167.413 44.4019 166.937 44.8779 166.937 45.465C166.937 46.0522 167.413 46.5282 168 46.5282Z" fill="white"/>
<path d="M340 186.013C355.429 186.013 367.937 174.815 367.937 161C367.937 147.186 355.429 135.987 340 135.987C324.571 135.987 312.063 147.186 312.063 161C312.063 174.815 324.571 186.013 340 186.013Z" fill="#9AD14B"/>
<path d="M340 170.23C344.564 170.23 348.264 166.098 348.264 161C348.264 155.903 344.564 151.77 340 151.77C335.436 151.77 331.736 155.903 331.736 161C331.736 166.098 335.436 170.23 340 170.23Z" fill="#D1EF9C"/>
<path d="M361.848 171.891C361.666 171.891 361.482 171.844 361.314 171.746C360.806 171.451 360.634 170.8 360.93 170.292C362.616 167.395 363.472 164.268 363.472 161C363.472 156.175 361.513 151.481 357.955 147.783C354.41 144.098 349.498 141.608 344.125 140.77C343.545 140.679 343.148 140.136 343.239 139.556C343.329 138.976 343.871 138.578 344.453 138.669C350.282 139.578 355.621 142.291 359.487 146.309C363.428 150.405 365.598 155.622 365.598 161C365.598 164.598 364.619 168.181 362.767 171.362C362.57 171.701 362.214 171.891 361.848 171.891Z" fill="white"/>
<path d="M340.142 167.962C336.875 167.962 334.217 164.871 334.217 161.071C334.217 160.213 334.351 159.375 334.615 158.581C334.801 158.023 335.403 157.722 335.96 157.908C336.517 158.093 336.818 158.695 336.633 159.252C336.44 159.83 336.343 160.442 336.343 161.071C336.343 163.698 338.047 165.835 340.142 165.835C340.729 165.835 341.205 166.311 341.205 166.899C341.205 167.486 340.729 167.962 340.142 167.962Z" fill="white"/>
<path d="M340 187.076C332.276 187.076 325.008 184.378 319.536 179.479C314.032 174.55 311 167.988 311 161C311 154.012 314.032 147.45 319.537 142.521C325.008 137.622 332.276 134.924 340 134.924C347.724 134.924 354.992 137.622 360.464 142.521C365.968 147.45 369 154.012 369 161C369 167.988 365.968 174.55 360.464 179.479C354.992 184.378 347.724 187.076 340 187.076ZM340 137.05C325.182 137.05 313.126 147.794 313.126 161C313.126 174.206 325.182 184.95 340 184.95C354.818 184.95 366.874 174.206 366.874 161C366.874 147.794 354.818 137.05 340 137.05Z" fill="#333333"/>
<path d="M340.071 150.778C345.214 150.778 349.398 155.395 349.398 161.071C349.398 166.747 345.214 171.364 340.071 171.364C334.928 171.364 330.744 166.747 330.744 161.071C330.744 155.395 334.928 150.778 340.071 150.778ZM340.071 169.238C344.041 169.238 347.272 165.574 347.272 161.071C347.272 156.567 344.041 152.904 340.071 152.904C336.1 152.904 332.87 156.567 332.87 161.071C332.87 165.574 336.1 169.238 340.071 169.238Z" fill="#333333"/>
<path d="M339.976 175.17C339.973 175.17 339.972 175.17 339.969 175.17C339.382 175.168 338.907 174.69 338.909 174.104C338.91 173.517 339.388 173.042 339.975 173.043C339.979 173.043 339.982 173.043 339.986 173.043C339.99 173.043 339.995 173.043 340 173.043C340.587 173.043 341.063 173.52 341.063 174.106C341.063 174.693 340.587 175.17 340 175.17C339.992 175.17 339.983 175.17 339.976 175.17ZM343.461 173.579C343.215 173.045 343.451 172.414 343.984 172.169C344.518 171.925 345.149 172.159 345.393 172.693C345.638 173.226 345.404 173.858 344.87 174.102C344.726 174.167 344.576 174.199 344.427 174.199C344.025 174.199 343.639 173.969 343.461 173.579ZM335.103 174.089C334.57 173.843 334.336 173.212 334.583 172.679C334.828 172.146 335.46 171.912 335.993 172.159C336.526 172.404 336.759 173.036 336.513 173.569C336.333 173.958 335.949 174.187 335.548 174.187C335.398 174.187 335.247 174.156 335.103 174.089ZM347.37 171.24C346.941 170.84 346.916 170.167 347.316 169.738C347.716 169.308 348.388 169.284 348.819 169.684C349.248 170.083 349.272 170.755 348.873 171.186C348.663 171.412 348.379 171.525 348.094 171.525C347.835 171.525 347.575 171.43 347.37 171.24ZM331.107 171.164C330.707 170.733 330.733 170.059 331.165 169.661C331.596 169.261 332.268 169.288 332.666 169.719C333.066 170.15 333.039 170.822 332.608 171.222C332.404 171.41 332.144 171.504 331.887 171.504C331.601 171.504 331.315 171.389 331.107 171.164ZM350.14 167.618C349.6 167.39 349.347 166.767 349.576 166.225C349.805 165.685 350.429 165.433 350.97 165.661C351.511 165.89 351.763 166.514 351.535 167.054C351.363 167.46 350.969 167.703 350.555 167.703C350.416 167.703 350.276 167.677 350.14 167.618ZM328.453 167.026C328.226 166.486 328.48 165.862 329.022 165.634C329.562 165.406 330.185 165.659 330.414 166.201C330.642 166.742 330.388 167.366 329.847 167.593C329.712 167.65 329.572 167.677 329.434 167.677C329.019 167.677 328.625 167.433 328.453 167.026ZM351.543 163.279C350.958 163.234 350.521 162.722 350.567 162.137C350.612 161.551 351.124 161.113 351.709 161.159C352.294 161.206 352.732 161.716 352.686 162.301C352.643 162.86 352.177 163.282 351.627 163.282C351.6 163.282 351.571 163.281 351.543 163.279ZM327.312 162.272C327.267 161.686 327.705 161.174 328.29 161.13C328.876 161.087 329.387 161.525 329.431 162.11C329.477 162.695 329.037 163.206 328.452 163.251C328.425 163.252 328.398 163.254 328.37 163.254C327.82 163.254 327.353 162.829 327.312 162.272ZM350.239 157.931C350.101 157.361 350.453 156.787 351.024 156.65C351.595 156.512 352.17 156.864 352.307 157.435C352.443 158.006 352.092 158.58 351.522 158.716C351.438 158.736 351.355 158.746 351.272 158.746C350.792 158.746 350.357 158.419 350.239 157.931ZM328.483 158.688C327.913 158.551 327.563 157.975 327.7 157.405C327.839 156.834 328.413 156.484 328.985 156.623C329.555 156.76 329.905 157.336 329.767 157.906C329.648 158.392 329.214 158.719 328.735 158.719C328.652 158.719 328.568 158.709 328.483 158.688ZM348.603 154.07C348.287 153.575 348.432 152.917 348.926 152.601C349.42 152.284 350.077 152.428 350.395 152.923C350.711 153.416 350.566 154.074 350.072 154.392C349.894 154.505 349.696 154.559 349.5 154.559C349.15 154.559 348.807 154.386 348.603 154.07ZM329.942 154.366C329.447 154.049 329.305 153.391 329.623 152.896C329.94 152.403 330.598 152.26 331.091 152.577C331.586 152.895 331.728 153.554 331.41 154.047C331.207 154.363 330.864 154.535 330.516 154.535C330.319 154.535 330.119 154.481 329.942 154.366ZM345.774 151.028C345.3 150.681 345.198 150.014 345.546 149.542C345.893 149.069 346.559 148.967 347.033 149.314C347.505 149.661 347.607 150.326 347.259 150.8C347.051 151.083 346.729 151.233 346.402 151.233C346.184 151.233 345.964 151.167 345.774 151.028ZM332.761 150.781C332.415 150.308 332.519 149.642 332.992 149.296C333.467 148.95 334.132 149.053 334.478 149.527C334.825 150.002 334.722 150.666 334.247 151.012C334.058 151.151 333.838 151.218 333.622 151.218C333.293 151.218 332.969 151.066 332.761 150.781ZM342.05 149.323C341.477 149.195 341.114 148.628 341.242 148.055C341.368 147.481 341.935 147.12 342.509 147.246C343.082 147.373 343.445 147.941 343.317 148.515C343.208 149.009 342.769 149.348 342.28 149.348C342.205 149.348 342.126 149.34 342.05 149.323ZM336.709 148.505C336.584 147.932 336.948 147.365 337.521 147.239C338.095 147.114 338.662 147.478 338.787 148.051C338.912 148.625 338.549 149.192 337.975 149.317C337.898 149.334 337.822 149.341 337.748 149.341C337.259 149.341 336.818 149.002 336.709 148.505Z" fill="#333333"/>
<path d="M340 140.452C340.587 140.452 341.063 139.976 341.063 139.389C341.063 138.801 340.587 138.326 340 138.326C339.413 138.326 338.937 138.801 338.937 139.389C338.937 139.976 339.413 140.452 340 140.452Z" fill="white"/>
</g>
<defs>
<filter id="filter0_d_3_57" x="4.69878" y="5.34055" width="378.627" height="356.242" filterUnits="userSpaceOnUse" color-interpolation-filters="sRGB">
<feFlood flood-opacity="0" result="BackgroundImageFix"/>
<feColorMatrix in="SourceAlpha" type="matrix" values="0 0 0 0 0 0 0 0 0 0 0 0 0 0 0 0 0 0 127 0" result="hardAlpha"/>
<feOffset dy="4"/>
<feGaussianBlur stdDeviation="2"/>
<feComposite in2="hardAlpha" operator="out"/>
<feColorMatrix type="matrix" values="0 0 0 0 0 0 0 0 0 0 0 0 0 0 0 0 0 0 0.25 0"/>
<feBlend mode="normal" in2="BackgroundImageFix" result="effect1_dropShadow_3_57"/>
<feBlend mode="normal" in="SourceGraphic" in2="effect1_dropShadow_3_57" result="shape"/>
</filter>
</defs>
</svg>
