<svg width="296" height="76" viewBox="0 0 296 76" fill="none" xmlns="http://www.w3.org/2000/svg">
<path d="M69.8535 44.616C69.8535 44.2747 69.9602 44.0187 70.1735 43.848C70.4082 43.656 70.6855 43.56 71.0055 43.56C71.3468 43.56 71.6455 43.656 71.9015 43.848C72.1575 44.04 72.2855 44.2853 72.2855 44.584C72.2855 45.2667 72.7122 45.8 73.5655 46.184C74.4188 46.5467 75.2615 46.728 76.0935 46.728C77.2668 46.728 78.3762 46.2587 79.4215 45.32C80.4882 44.3813 81.0215 43.048 81.0215 41.32V27.464C81.0215 26.888 81.4268 26.6 82.2375 26.6C82.5575 26.6 82.8242 26.6747 83.0375 26.824C83.2722 26.9733 83.3895 27.1867 83.3895 27.464V41.096C83.3895 43.5707 82.6108 45.5227 81.0535 46.952C79.4962 48.3813 77.7895 49.096 75.9335 49.096C74.5682 49.096 73.2135 48.6907 71.8695 47.88C70.5468 47.0693 69.8748 45.9813 69.8535 44.616ZM86.7473 41.064C86.7473 39.2293 87.2273 37.6507 88.1873 36.328C89.1686 34.984 90.3419 34.0133 91.7073 33.416C93.0939 32.8187 94.5446 32.52 96.0593 32.52C98.1926 32.52 100.155 33.3307 101.947 34.952C103.761 36.552 104.667 38.5787 104.667 41.032C104.667 43.3573 103.867 45.352 102.267 47.016C100.667 48.6587 98.5766 49.48 95.9953 49.48C93.4566 49.48 91.2806 48.6587 89.4673 47.016C87.6539 45.352 86.7473 43.368 86.7473 41.064ZM89.1153 41.096C89.1153 42.6107 89.8086 43.9973 91.1953 45.256C92.5819 46.4933 94.1926 47.112 96.0273 47.112C97.7553 47.112 99.2273 46.4827 100.443 45.224C101.681 43.9653 102.299 42.568 102.299 41.032C102.299 39.5387 101.713 38.1413 100.539 36.84C99.3659 35.5387 97.8513 34.888 95.9953 34.888C93.8193 34.888 92.1233 35.5493 90.9073 36.872C89.7126 38.1947 89.1153 39.6027 89.1153 41.096ZM107.091 40.552C107.091 39.1867 107.39 37.9707 107.987 36.904C108.584 35.8373 109.374 34.9947 110.355 34.376C111.336 33.7573 112.392 33.2987 113.523 33C114.654 32.68 115.806 32.52 116.979 32.52C119.07 32.52 120.691 32.9787 121.843 33.896C122.995 34.792 123.571 35.9013 123.571 37.224C123.571 38.6533 122.899 39.8693 121.555 40.872C120.211 41.8747 118.302 42.376 115.827 42.376C113.608 42.376 111.496 42.056 109.491 41.416C109.726 42.9947 110.462 44.3173 111.699 45.384C112.936 46.4507 114.462 46.984 116.275 46.984C117.235 46.984 118.227 46.8347 119.251 46.536C120.296 46.2373 121.118 45.8107 121.715 45.256C121.8 45.0853 121.971 45 122.227 45C122.526 45 122.846 45.1387 123.187 45.416C123.528 45.672 123.699 45.9387 123.699 46.216C123.166 47.304 122.12 48.104 120.563 48.616C119.027 49.1067 117.534 49.352 116.083 49.352C113.459 49.352 111.304 48.488 109.619 46.76C107.934 45.032 107.091 42.9627 107.091 40.552ZM109.619 38.952C111.219 39.656 113.203 40.008 115.571 40.008C117.427 40.008 118.835 39.72 119.795 39.144C120.755 38.5467 121.235 37.8853 121.235 37.16C121.235 36.52 120.83 35.9867 120.019 35.56C119.23 35.112 118.046 34.888 116.467 34.888C114.76 34.888 113.331 35.272 112.179 36.04C111.048 36.7867 110.195 37.7573 109.619 38.952ZM126.858 48.104V25.864C126.858 25.288 127.263 25 128.074 25C128.394 25 128.66 25.0747 128.874 25.224C129.108 25.3733 129.226 25.5867 129.226 25.864V48.104C129.226 48.3813 129.108 48.6053 128.874 48.776C128.639 48.9253 128.362 49 128.042 49C127.252 49 126.858 48.7013 126.858 48.104ZM140.283 42.664C140.283 41.256 140.646 40.104 141.371 39.208C142.096 38.312 143.099 37.4907 144.379 36.744L144.283 36.616C142.875 34.9947 142.171 33.224 142.171 31.304C142.171 29.896 142.704 28.7653 143.771 27.912C144.838 27.0373 146.075 26.6 147.483 26.6C148.912 26.6 150.15 27.048 151.195 27.944C152.262 28.84 152.795 30.0667 152.795 31.624C152.795 33.0533 152.39 34.216 151.579 35.112C150.79 36.008 149.68 36.84 148.251 37.608L152.283 42.312L153.467 40.36C153.552 40.2747 153.68 40.232 153.851 40.232C154.214 40.232 154.523 40.4133 154.779 40.776C155.056 41.1173 155.195 41.4267 155.195 41.704C155.195 41.8747 155.152 42.0133 155.067 42.12L153.787 44.04L156.283 46.92C156.411 47.0693 156.475 47.24 156.475 47.432C156.475 47.688 156.315 47.9653 155.995 48.264C155.675 48.5627 155.355 48.712 155.035 48.712C154.8 48.712 154.619 48.6373 154.491 48.488L152.283 45.928C150.534 47.8267 148.592 48.776 146.459 48.776C144.688 48.776 143.216 48.296 142.043 47.336C140.87 46.376 140.283 44.8187 140.283 42.664ZM142.651 42.824C142.651 44.0613 143.035 44.968 143.803 45.544C144.571 46.12 145.52 46.408 146.651 46.408C148.23 46.408 149.638 45.6933 150.875 44.264L146.107 38.728C144.998 39.3253 144.144 39.9333 143.547 40.552C142.95 41.1707 142.651 41.928 142.651 42.824ZM144.475 31.624C144.475 32.6693 144.955 33.7573 145.915 34.888L146.523 35.624C147.163 35.304 147.664 35.0373 148.027 34.824C148.411 34.5893 148.806 34.3013 149.211 33.96C149.638 33.6187 149.947 33.256 150.139 32.872C150.331 32.4667 150.427 32.0187 150.427 31.528C150.427 30.7173 150.139 30.088 149.563 29.64C149.008 29.1707 148.336 28.936 147.547 28.936C146.736 28.936 146.022 29.1813 145.403 29.672C144.784 30.1413 144.475 30.792 144.475 31.624ZM167.055 48.104V27.464C167.055 26.888 167.46 26.6 168.271 26.6C168.591 26.6 168.857 26.6747 169.071 26.824C169.305 26.9733 169.423 27.1867 169.423 27.464V38.056L180.943 26.888C181.135 26.696 181.348 26.6 181.583 26.6C181.903 26.6 182.201 26.7493 182.479 27.048C182.777 27.3253 182.927 27.624 182.927 27.944C182.927 28.1573 182.852 28.3387 182.703 28.488L174.351 36.552L184.911 47.368C184.996 47.4533 185.039 47.6027 185.039 47.816C185.039 48.1147 184.879 48.392 184.559 48.648C184.239 48.8827 183.908 49 183.567 49C183.353 49 183.119 48.872 182.863 48.616L172.591 38.248L169.423 41.32V48.104C169.423 48.3813 169.305 48.6053 169.071 48.776C168.836 48.9253 168.559 49 168.239 49C167.449 49 167.055 48.7013 167.055 48.104ZM185.716 40.552C185.716 39.1867 186.015 37.9707 186.612 36.904C187.209 35.8373 187.999 34.9947 188.98 34.376C189.961 33.7573 191.017 33.2987 192.148 33C193.279 32.68 194.431 32.52 195.604 32.52C197.695 32.52 199.316 32.9787 200.468 33.896C201.62 34.792 202.196 35.9013 202.196 37.224C202.196 38.6533 201.524 39.8693 200.18 40.872C198.836 41.8747 196.927 42.376 194.452 42.376C192.233 42.376 190.121 42.056 188.116 41.416C188.351 42.9947 189.087 44.3173 190.324 45.384C191.561 46.4507 193.087 46.984 194.9 46.984C195.86 46.984 196.852 46.8347 197.876 46.536C198.921 46.2373 199.743 45.8107 200.34 45.256C200.425 45.0853 200.596 45 200.852 45C201.151 45 201.471 45.1387 201.812 45.416C202.153 45.672 202.324 45.9387 202.324 46.216C201.791 47.304 200.745 48.104 199.188 48.616C197.652 49.1067 196.159 49.352 194.708 49.352C192.084 49.352 189.929 48.488 188.244 46.76C186.559 45.032 185.716 42.9627 185.716 40.552ZM188.244 38.952C189.844 39.656 191.828 40.008 194.196 40.008C196.052 40.008 197.46 39.72 198.42 39.144C199.38 38.5467 199.86 37.8853 199.86 37.16C199.86 36.52 199.455 35.9867 198.644 35.56C197.855 35.112 196.671 34.888 195.092 34.888C193.385 34.888 191.956 35.272 190.804 36.04C189.673 36.7867 188.82 37.7573 188.244 38.952ZM204.427 34.184C204.427 33.864 204.501 33.5867 204.651 33.352C204.821 33.1173 205.045 33 205.323 33H206.411V29.064C206.411 28.7867 206.517 28.5733 206.731 28.424C206.965 28.2747 207.243 28.2 207.562 28.2C208.373 28.2 208.779 28.488 208.779 29.064V33H213.899C214.176 33 214.389 33.1173 214.539 33.352C214.688 33.5653 214.763 33.832 214.763 34.152C214.763 34.9627 214.475 35.368 213.899 35.368H208.779V43.016C208.779 45.4053 209.685 46.6 211.499 46.6C212.267 46.6 212.928 46.3867 213.483 45.96C214.059 45.5333 214.347 44.7867 214.347 43.72C214.347 43.4213 214.464 43.176 214.699 42.984C214.955 42.792 215.253 42.696 215.595 42.696C215.915 42.696 216.181 42.792 216.395 42.984C216.608 43.1547 216.715 43.4107 216.715 43.752C216.693 45.4373 216.181 46.728 215.179 47.624C214.197 48.52 212.971 48.968 211.499 48.968C208.107 48.968 206.411 46.696 206.411 42.152V35.368H205.323C204.725 35.368 204.427 34.9733 204.427 34.184ZM218.946 42.472C218.946 42.28 218.946 41.3307 218.946 39.624C218.967 37.896 218.978 35.9867 218.978 33.896C218.978 33.6187 219.095 33.4053 219.33 33.256C219.565 33.0853 219.842 33 220.162 33C220.951 33 221.346 33.2987 221.346 33.896V42.184C221.346 43.6987 221.879 44.8827 222.946 45.736C224.034 46.568 225.154 46.984 226.306 46.984C227.757 46.984 229.303 46.4613 230.946 45.416C232.61 44.3493 233.762 43.0267 234.402 41.448V33.864C234.402 33.288 234.807 33 235.618 33C235.938 33 236.205 33.0747 236.418 33.224C236.653 33.3733 236.77 33.5867 236.77 33.864V48.136C236.77 48.4133 236.653 48.6267 236.418 48.776C236.205 48.9253 235.938 49 235.618 49C234.807 49 234.402 48.712 234.402 48.136V45.512C233.335 46.6853 232.055 47.6133 230.562 48.296C229.09 48.9787 227.575 49.32 226.018 49.32C224.013 49.32 222.327 48.68 220.962 47.4C219.618 46.12 218.946 44.4773 218.946 42.472ZM240.576 48.104V33.928C240.576 33.352 240.981 33.064 241.792 33.064C242.112 33.064 242.378 33.1387 242.592 33.288C242.826 33.4373 242.944 33.6507 242.944 33.928V37.928C243.754 36.1787 244.65 34.856 245.632 33.96C246.634 33.064 247.957 32.616 249.6 32.616C250.752 32.616 251.914 32.7653 253.088 33.064C253.706 33.3627 254.016 33.768 254.016 34.28C254.016 34.6427 253.941 34.8987 253.792 35.048C253.642 35.1973 253.397 35.2933 253.056 35.336C251.968 35.08 251.082 34.952 250.4 34.952C248.821 34.952 247.381 35.7307 246.08 37.288C244.778 38.8453 243.733 40.872 242.944 43.368V48.104C242.944 48.3813 242.826 48.6053 242.592 48.776C242.357 48.9253 242.08 49 241.76 49C240.97 49 240.576 48.7013 240.576 48.104ZM254.372 43.176C254.372 40.3173 255.492 37.8533 257.732 35.784C259.972 33.7147 262.511 32.68 265.348 32.68C267.29 32.68 268.943 33.416 270.308 34.888C271.674 36.36 272.356 38.0347 272.356 39.912L272.324 48.296C272.324 48.5733 272.186 48.7973 271.908 48.968C271.652 49.1173 271.364 49.192 271.044 49.192C270.34 49.192 269.988 48.8933 269.988 48.296V42.888C268.26 45.128 266.607 46.7493 265.028 47.752C263.471 48.7547 261.86 49.256 260.196 49.256C258.66 49.256 257.306 48.6373 256.132 47.4C254.959 46.1413 254.372 44.7333 254.372 43.176ZM256.676 43.24C256.676 44.456 257.103 45.384 257.956 46.024C258.81 46.6427 259.716 46.952 260.676 46.952C261.786 46.952 263.055 46.408 264.484 45.32C265.914 44.2107 267.098 42.984 268.036 41.64C268.996 40.2747 269.476 39.208 269.476 38.44C269.476 37.8 269.284 37.2347 268.9 36.744C268.538 36.232 268.079 35.8587 267.524 35.624C266.991 35.3893 266.5 35.2187 266.052 35.112C265.604 34.984 265.231 34.92 264.932 34.92C262.842 34.92 260.943 35.7627 259.236 37.448C257.53 39.112 256.676 41.0427 256.676 43.24ZM275.951 48.168V25.832C275.951 25.5547 276.058 25.3413 276.271 25.192C276.506 25.0427 276.783 24.968 277.103 24.968C277.914 24.968 278.319 25.256 278.319 25.832V36.456C279.365 35.3467 280.645 34.472 282.159 33.832C283.674 33.192 285.221 32.872 286.799 32.872C288.826 32.872 290.511 33.4693 291.855 34.664C293.199 35.8373 293.871 37.416 293.871 39.4C293.871 39.592 293.861 40.5733 293.839 42.344C293.839 44.0933 293.839 46.0133 293.839 48.104C293.839 48.3813 293.722 48.6053 293.487 48.776C293.253 48.9253 292.975 49 292.655 49C291.866 49 291.471 48.7013 291.471 48.104V39.688C291.471 38.6427 291.173 37.768 290.575 37.064C289.999 36.3387 289.359 35.848 288.655 35.592C287.951 35.336 287.237 35.208 286.511 35.208C284.933 35.208 283.322 35.6987 281.679 36.68C280.058 37.6613 278.938 38.92 278.319 40.456V48.168C278.319 48.744 277.914 49.032 277.103 49.032C276.783 49.032 276.506 48.9573 276.271 48.808C276.058 48.6587 275.951 48.4453 275.951 48.168Z" fill="#515151"/>
<path fill-rule="evenodd" clip-rule="evenodd" d="M25.3333 47.6667C37.6677 47.6667 47.6667 37.6677 47.6667 25.3333C47.6667 12.999 37.6677 3 25.3333 3C12.999 3 3 12.999 3 25.3333C3 37.6677 12.999 47.6667 25.3333 47.6667ZM25.3333 50.6667C39.3245 50.6667 50.6667 39.3245 50.6667 25.3333C50.6667 11.3421 39.3245 0 25.3333 0C11.3421 0 0 11.3421 0 25.3333C0 39.3245 11.3421 50.6667 25.3333 50.6667Z" fill="#FCE3E7"/>
<path fill-rule="evenodd" clip-rule="evenodd" d="M25.3333 73C37.6677 73 47.6667 63.001 47.6667 50.6667C47.6667 38.3323 37.6677 28.3333 25.3333 28.3333C12.999 28.3333 3 38.3323 3 50.6667C3 63.001 12.999 73 25.3333 73ZM25.3333 76C39.3245 76 50.6667 64.6579 50.6667 50.6667C50.6667 36.6755 39.3245 25.3333 25.3333 25.3333C11.3421 25.3333 0 36.6755 0 50.6667C0 64.6579 11.3421 76 25.3333 76Z" fill="#FCE3E7"/>
</svg>
