<svg width="1919" height="382" viewBox="0 0 1919 382" fill="none" xmlns="http://www.w3.org/2000/svg">
<path d="M1919 7.98736V351.49C1917.7 354.242 1916.84 355.319 1916.84 353.285C1916.84 338.569 1910.57 371.83 1910.57 382C1910.57 379.727 1844.25 377.812 1844.25 373.027C1844.25 378.171 1798.67 356.755 1798.67 356.994C1798.67 364.891 1734.73 370.753 1734.73 366.087C1734.73 370.993 1694.11 340.603 1694.11 341.081C1694.11 346.346 1640.32 337.372 1640.32 335.338C1640.32 344.79 1585.45 341.201 1585.45 336.535C1585.45 343.594 1532.31 333.783 1532.31 331.39C1532.31 350.414 1480.24 336.415 1480.24 339.167C1480.24 339.286 1431.2 346.705 1431.2 348.858C1431.2 345.029 1379.36 358.549 1379.36 355.199C1379.36 356.157 1323.62 353.165 1323.62 350.414C1323.62 349.337 1260.75 349.456 1260.75 345.867C1260.75 345.149 1199.4 365.13 1199.4 369.198C1199.4 367.882 1135.89 382.479 1135.89 374.103C1135.89 375.898 1065.46 363.096 1065.46 363.694C1065.46 350.055 1017.29 367.882 1017.29 364.891C1017.29 363.096 966.737 368.719 966.737 366.326C966.737 379.607 912.513 382.359 912.513 369.796C912.513 368.36 876.652 339.526 876.652 339.645C876.652 354.003 828.477 316.195 828.477 330.911C828.477 332.108 777.278 331.151 777.278 325.886C777.278 327.083 723.703 334.86 723.703 331.27C723.703 328.997 674.664 339.406 674.664 335.817C674.664 335.817 624.76 326.125 624.76 318.229C624.76 323.134 576.154 325.886 576.154 329.715C576.154 317.272 529.275 310.811 529.275 319.066C529.275 312.127 478.292 327.202 478.292 323.852C478.292 325.168 439.19 294.3 439.19 308.179C439.19 304.23 397.712 285.566 397.712 291.667C397.712 305.068 343.057 296.693 343.057 288.676C343.057 271.088 288.833 319.306 288.833 301.837C288.833 298.966 282.784 336.654 282.784 333.783C282.784 337.611 234.393 352.567 234.393 342.876C234.393 332.945 189.891 323.852 189.891 322.775C189.891 324.45 128.538 363.694 128.538 346.585C128.538 345.987 56.8161 349.935 56.8161 344.431C56.8161 335.219 12.3137 344.671 0 349.576V27.1307C5.83283 23.302 10.3695 20.5502 10.3695 21.7466C10.3695 32.754 56.168 37.6595 56.168 42.4453C56.168 38.6167 118.385 56.9225 118.385 40.6507C118.385 27.37 172.608 47.5901 172.608 61.9476C172.608 72.955 233.961 59.9136 233.961 58.9565C233.961 65.178 283.648 40.2917 283.648 35.3862C283.648 46.7526 338.304 34.788 338.304 26.1735C338.304 42.0864 389.719 -5.05403 389.719 0.449679C389.719 -4.81473 453.448 43.6418 453.448 19.9519C453.448 11.816 510.696 18.8751 510.696 32.0362C510.696 16.7215 560.815 53.0938 560.815 42.0864C560.815 29.6432 618.928 38.0184 618.928 50.8205C618.928 36.3434 669.911 39.0953 669.911 50.7009C669.911 50.9402 720.462 53.3331 720.462 62.6655C720.462 55.4867 771.661 66.0156 771.661 61.5887C771.661 55.3671 822.645 54.7689 822.645 57.2814C822.645 69.8442 874.06 46.0347 874.06 45.9151C874.06 28.0878 924.827 63.3833 924.827 60.3922C924.827 46.3937 975.81 72.1175 975.81 55.8457C975.81 57.9993 1035.65 46.1544 1035.65 47.949C1035.65 36.5827 1082.1 46.1544 1082.1 32.1558C1082.1 32.754 1138.7 27.8486 1138.7 20.6698C1138.7 5.11586 1200.27 20.4305 1200.27 17.918C1200.27 20.6698 1257.3 18.3965 1257.3 27.6093C1257.3 26.6521 1312.39 52.017 1312.39 46.0347C1312.39 52.8545 1382.38 60.1529 1382.38 38.2577C1382.38 32.0362 1424.29 24.7378 1424.29 22.9431C1424.29 21.1484 1470.52 37.4202 1470.52 8.22665C1470.52 19.3537 1521.94 16.6019 1521.94 16.4822C1521.94 3.44082 1569.89 20.1912 1569.89 23.5413C1569.89 26.8914 1621.31 17.559 1621.31 18.6358C1621.31 9.06417 1666.89 15.7643 1666.89 30.2415C1666.89 34.3094 1724.14 49.0259 1724.14 41.1292C1724.14 46.9919 1782.68 71.6389 1782.68 50.4616C1782.68 43.5222 1840.36 57.1618 1840.36 41.6078C1840.36 55.1278 1891.35 31.6772 1891.35 19.7126C1891.35 10.8589 1905.17 8.10701 1919 7.98736Z" fill="#FCE3E7"/>
<path d="M186.133 134.104C186.133 133.123 186.432 132.227 187.029 131.416C187.669 130.605 188.65 130.2 189.973 130.2C192.49 130.2 193.749 131.928 193.749 135.384C193.749 137.475 193.301 139.629 192.405 141.848C191.552 144.024 190.741 145.112 189.973 145.112C189.418 145.112 189.077 144.749 188.949 144.024C188.821 143.256 188.714 142.253 188.629 141.016C188.544 139.779 188.288 138.797 187.861 138.072C187.733 137.816 187.52 137.496 187.221 137.112C186.965 136.728 186.773 136.429 186.645 136.216C186.517 135.96 186.389 135.661 186.261 135.32C186.176 134.936 186.133 134.531 186.133 134.104ZM198.933 134.104C198.933 133.123 199.232 132.227 199.829 131.416C200.469 130.605 201.45 130.2 202.773 130.2C205.29 130.2 206.549 131.928 206.549 135.384C206.549 137.475 206.101 139.629 205.205 141.848C204.352 144.024 203.541 145.112 202.773 145.112C202.218 145.112 201.877 144.749 201.749 144.024C201.621 143.256 201.514 142.253 201.429 141.016C201.344 139.779 201.088 138.797 200.661 138.072C200.533 137.816 200.32 137.496 200.021 137.112C199.765 136.728 199.573 136.429 199.445 136.216C199.317 135.96 199.189 135.661 199.061 135.32C198.976 134.936 198.933 134.531 198.933 134.104ZM210.578 132.504C210.578 131.864 210.727 131.331 211.026 130.904C211.324 130.435 211.751 130.2 212.306 130.2H243.922C244.476 130.2 244.903 130.435 245.201 130.904C245.543 131.373 245.714 131.928 245.714 132.568C245.714 134.147 245.116 134.936 243.922 134.936H230.098V173.208C230.098 173.763 229.863 174.211 229.394 174.552C228.924 174.851 228.37 175 227.73 175C226.151 175 225.362 174.403 225.362 173.208V134.936H212.306C211.154 134.936 210.578 134.125 210.578 132.504ZM250.215 173.336V128.664C250.215 128.109 250.428 127.683 250.855 127.384C251.324 127.085 251.879 126.936 252.519 126.936C254.14 126.936 254.951 127.512 254.951 128.664V149.912C257.042 147.693 259.602 145.944 262.631 144.664C265.66 143.384 268.754 142.744 271.911 142.744C275.964 142.744 279.335 143.939 282.023 146.328C284.711 148.675 286.055 151.832 286.055 155.8C286.055 156.184 286.034 158.147 285.991 161.688C285.991 165.187 285.991 169.027 285.991 173.208C285.991 173.763 285.756 174.211 285.287 174.552C284.818 174.851 284.263 175 283.623 175C282.044 175 281.255 174.403 281.255 173.208V156.376C281.255 154.285 280.658 152.536 279.463 151.128C278.311 149.677 277.031 148.696 275.623 148.184C274.215 147.672 272.786 147.416 271.335 147.416C268.178 147.416 264.956 148.397 261.671 150.36C258.428 152.323 256.188 154.84 254.951 157.912V173.336C254.951 174.488 254.14 175.064 252.519 175.064C251.879 175.064 251.324 174.915 250.855 174.616C250.428 174.317 250.215 173.891 250.215 173.336ZM291.87 158.104C291.87 155.373 292.467 152.941 293.661 150.808C294.856 148.675 296.435 146.989 298.398 145.752C300.36 144.515 302.472 143.597 304.734 143C306.995 142.36 309.299 142.04 311.646 142.04C315.827 142.04 319.07 142.957 321.374 144.792C323.678 146.584 324.83 148.803 324.83 151.448C324.83 154.307 323.486 156.739 320.798 158.744C318.11 160.749 314.291 161.752 309.342 161.752C304.904 161.752 300.68 161.112 296.67 159.832C297.139 162.989 298.611 165.635 301.086 167.768C303.56 169.901 306.611 170.968 310.238 170.968C312.158 170.968 314.142 170.669 316.19 170.072C318.28 169.475 319.923 168.621 321.118 167.512C321.288 167.171 321.63 167 322.142 167C322.739 167 323.379 167.277 324.062 167.832C324.744 168.344 325.086 168.877 325.086 169.432C324.019 171.608 321.928 173.208 318.814 174.232C315.742 175.213 312.755 175.704 309.854 175.704C304.606 175.704 300.296 173.976 296.926 170.52C293.555 167.064 291.87 162.925 291.87 158.104ZM296.926 154.904C300.126 156.312 304.094 157.016 308.83 157.016C312.542 157.016 315.358 156.44 317.278 155.288C319.198 154.093 320.158 152.771 320.158 151.32C320.158 150.04 319.347 148.973 317.726 148.12C316.147 147.224 313.779 146.776 310.622 146.776C307.208 146.776 304.35 147.544 302.046 149.08C299.784 150.573 298.078 152.515 296.926 154.904ZM346.84 173.208V128.664C346.84 127.555 347.651 127 349.272 127C350.808 127 351.576 127.555 351.576 128.664V146.136C354.221 143.619 357.315 142.36 360.856 142.36C366.531 142.36 371.608 144.429 376.088 148.568C380.568 152.707 382.808 157.635 382.808 163.352C382.808 166.467 381.635 169.283 379.288 171.8C376.941 174.275 374.232 175.512 371.16 175.512C367.832 175.512 364.589 174.509 361.432 172.504C358.317 170.499 355.032 167.256 351.576 162.776V173.208C351.576 173.763 351.341 174.211 350.872 174.552C350.403 174.851 349.848 175 349.208 175C347.629 175 346.84 174.403 346.84 173.208ZM352.6 153.88C352.6 155.416 353.539 157.549 355.416 160.28C357.336 162.968 359.725 165.421 362.584 167.64C365.443 169.816 367.981 170.904 370.2 170.904C372.12 170.904 373.933 170.285 375.64 169.048C377.347 167.768 378.2 165.912 378.2 163.48C378.2 159.085 376.493 155.224 373.08 151.896C369.667 148.525 365.869 146.84 361.688 146.84C361.091 146.84 360.344 146.968 359.448 147.224C358.552 147.437 357.549 147.779 356.44 148.248C355.373 148.717 354.456 149.464 353.688 150.488C352.963 151.469 352.6 152.6 352.6 153.88ZM387.682 158.104C387.682 155.373 388.279 152.941 389.474 150.808C390.669 148.675 392.247 146.989 394.21 145.752C396.173 144.515 398.285 143.597 400.546 143C402.807 142.36 405.111 142.04 407.458 142.04C411.639 142.04 414.882 142.957 417.186 144.792C419.49 146.584 420.642 148.803 420.642 151.448C420.642 154.307 419.298 156.739 416.61 158.744C413.922 160.749 410.103 161.752 405.154 161.752C400.717 161.752 396.493 161.112 392.482 159.832C392.951 162.989 394.423 165.635 396.898 167.768C399.373 169.901 402.423 170.968 406.05 170.968C407.97 170.968 409.954 170.669 412.002 170.072C414.093 169.475 415.735 168.621 416.93 167.512C417.101 167.171 417.442 167 417.954 167C418.551 167 419.191 167.277 419.874 167.832C420.557 168.344 420.898 168.877 420.898 169.432C419.831 171.608 417.741 173.208 414.626 174.232C411.554 175.213 408.567 175.704 405.666 175.704C400.418 175.704 396.109 173.976 392.738 170.52C389.367 167.064 387.682 162.925 387.682 158.104ZM392.738 154.904C395.938 156.312 399.906 157.016 404.642 157.016C408.354 157.016 411.17 156.44 413.09 155.288C415.01 154.093 415.97 152.771 415.97 151.32C415.97 150.04 415.159 148.973 413.538 148.12C411.959 147.224 409.591 146.776 406.434 146.776C403.021 146.776 400.162 147.544 397.858 149.08C395.597 150.573 393.89 152.515 392.738 154.904ZM425.871 168.92C425.871 168.365 426.106 167.768 426.575 167.128C427.087 166.488 427.663 166.083 428.303 165.912C428.602 165.912 428.751 165.955 428.751 166.04C430.116 167.533 432.079 168.707 434.639 169.56C437.199 170.371 439.204 170.84 440.655 170.968C442.148 171.096 443.535 171.16 444.815 171.16C450.362 171.16 453.135 169.475 453.135 166.104C453.135 164.952 452.708 164.035 451.855 163.352C451.044 162.627 449.914 162.136 448.463 161.88C447.055 161.624 445.626 161.453 444.175 161.368C442.724 161.283 441.146 161.219 439.439 161.176C437.732 161.091 436.431 160.963 435.535 160.792C433.103 160.323 430.948 159.341 429.071 157.848C427.194 156.312 426.255 154.52 426.255 152.472C426.255 149.229 427.876 146.755 431.119 145.048C434.404 143.299 438.01 142.424 441.935 142.424C444.58 142.424 447.418 142.893 450.447 143.832C453.476 144.728 455.738 146.136 457.231 148.056C457.274 148.141 457.295 148.248 457.295 148.376C457.295 148.931 457.039 149.592 456.527 150.36C456.015 151.085 455.524 151.448 455.055 151.448C454.628 151.448 454.202 151.107 453.775 150.424C451.727 148.248 447.652 147.16 441.551 147.16C439.034 147.16 436.644 147.587 434.383 148.44C432.122 149.293 430.991 150.552 430.991 152.216C430.991 153.624 431.972 154.691 433.935 155.416C435.898 156.099 437.988 156.44 440.207 156.44C441.786 156.44 443.108 156.461 444.175 156.504C445.242 156.547 446.543 156.675 448.079 156.888C449.615 157.059 450.895 157.379 451.919 157.848C452.943 158.275 453.946 158.851 454.927 159.576C455.908 160.259 456.634 161.197 457.103 162.392C457.615 163.544 457.871 164.909 457.871 166.488C457.871 168.664 457.188 170.499 455.823 171.992C454.5 173.443 452.964 174.445 451.215 175C449.508 175.597 447.695 175.896 445.775 175.896C436.772 175.896 430.287 173.976 426.319 170.136C426.02 169.837 425.871 169.432 425.871 168.92ZM462.166 145.368C462.166 144.728 462.315 144.173 462.614 143.704C462.955 143.235 463.403 143 463.958 143H466.134V135.128C466.134 134.573 466.347 134.147 466.774 133.848C467.243 133.549 467.798 133.4 468.438 133.4C470.059 133.4 470.87 133.976 470.87 135.128V143H481.11C481.664 143 482.091 143.235 482.39 143.704C482.688 144.131 482.838 144.664 482.838 145.304C482.838 146.925 482.262 147.736 481.11 147.736H470.87V163.032C470.87 167.811 472.683 170.2 476.31 170.2C477.846 170.2 479.168 169.773 480.278 168.92C481.43 168.067 482.006 166.573 482.006 164.44C482.006 163.843 482.24 163.352 482.71 162.968C483.222 162.584 483.819 162.392 484.502 162.392C485.142 162.392 485.675 162.584 486.102 162.968C486.528 163.309 486.742 163.821 486.742 164.504C486.699 167.875 485.675 170.456 483.67 172.248C481.707 174.04 479.254 174.936 476.31 174.936C469.526 174.936 466.134 170.392 466.134 161.304V147.736H463.958C462.763 147.736 462.166 146.947 462.166 145.368ZM504.978 145.368C504.978 144.728 505.127 144.173 505.426 143.704C505.767 143.235 506.215 143 506.77 143H508.946V135.128C508.946 134.573 509.159 134.147 509.586 133.848C510.055 133.549 510.61 133.4 511.25 133.4C512.871 133.4 513.682 133.976 513.682 135.128V143H523.922C524.477 143 524.903 143.235 525.202 143.704C525.501 144.131 525.65 144.664 525.65 145.304C525.65 146.925 525.074 147.736 523.922 147.736H513.682V163.032C513.682 167.811 515.495 170.2 519.122 170.2C520.658 170.2 521.981 169.773 523.09 168.92C524.242 168.067 524.818 166.573 524.818 164.44C524.818 163.843 525.053 163.352 525.522 162.968C526.034 162.584 526.631 162.392 527.314 162.392C527.954 162.392 528.487 162.584 528.914 162.968C529.341 163.309 529.554 163.821 529.554 164.504C529.511 167.875 528.487 170.456 526.482 172.248C524.519 174.04 522.066 174.936 519.122 174.936C512.338 174.936 508.946 170.392 508.946 161.304V147.736H506.77C505.575 147.736 504.978 146.947 504.978 145.368ZM534.465 173.336V128.664C534.465 128.109 534.678 127.683 535.105 127.384C535.574 127.085 536.129 126.936 536.769 126.936C538.39 126.936 539.201 127.512 539.201 128.664V149.912C541.292 147.693 543.852 145.944 546.881 144.664C549.91 143.384 553.004 142.744 556.161 142.744C560.214 142.744 563.585 143.939 566.273 146.328C568.961 148.675 570.305 151.832 570.305 155.8C570.305 156.184 570.284 158.147 570.241 161.688C570.241 165.187 570.241 169.027 570.241 173.208C570.241 173.763 570.006 174.211 569.537 174.552C569.068 174.851 568.513 175 567.873 175C566.294 175 565.505 174.403 565.505 173.208V156.376C565.505 154.285 564.908 152.536 563.713 151.128C562.561 149.677 561.281 148.696 559.873 148.184C558.465 147.672 557.036 147.416 555.585 147.416C552.428 147.416 549.206 148.397 545.921 150.36C542.678 152.323 540.438 154.84 539.201 157.912V173.336C539.201 174.488 538.39 175.064 536.769 175.064C536.129 175.064 535.574 174.915 535.105 174.616C534.678 174.317 534.465 173.891 534.465 173.336ZM577.528 173.208V144.728C577.528 143.576 578.338 143 579.96 143C580.6 143 581.133 143.149 581.56 143.448C582.029 143.747 582.264 144.173 582.264 144.728V173.208C582.264 173.763 582.029 174.211 581.56 174.552C581.09 174.851 580.536 175 579.896 175C578.317 175 577.528 174.403 577.528 173.208ZM577.528 134.808V133.656C577.528 132.504 578.338 131.928 579.96 131.928C580.6 131.928 581.133 132.077 581.56 132.376C582.029 132.675 582.264 133.101 582.264 133.656V134.808C582.264 135.363 582.029 135.811 581.56 136.152C581.09 136.451 580.536 136.6 579.896 136.6C578.317 136.6 577.528 136.003 577.528 134.808ZM589.965 173.336V144.728C589.965 144.173 590.178 143.747 590.605 143.448C591.074 143.149 591.629 143 592.269 143C593.89 143 594.701 143.576 594.701 144.728V149.784C596.834 147.48 599.416 145.667 602.445 144.344C605.474 142.979 608.546 142.296 611.661 142.296C615.672 142.296 619.021 143.555 621.709 146.072C624.44 148.547 625.805 151.789 625.805 155.8C625.805 156.184 625.784 158.147 625.741 161.688C625.741 165.187 625.741 169.027 625.741 173.208C625.741 173.763 625.506 174.211 625.037 174.552C624.568 174.851 624.013 175 623.373 175C621.794 175 621.005 174.403 621.005 173.208V156.376C621.005 153.347 619.917 151.021 617.741 149.4C615.608 147.779 613.389 146.968 611.085 146.968C607.97 146.968 604.77 148.013 601.485 150.104C598.242 152.152 595.981 154.755 594.701 157.912V173.336C594.701 174.488 593.89 175.064 592.269 175.064C591.629 175.064 591.074 174.915 590.605 174.616C590.178 174.317 589.965 173.891 589.965 173.336ZM631.62 163.352C631.62 157.635 633.86 152.707 638.34 148.568C642.82 144.429 647.897 142.36 653.572 142.36C657.113 142.36 660.206 143.619 662.852 146.136V144.664C662.852 143.512 663.662 142.936 665.284 142.936C665.924 142.936 666.457 143.085 666.884 143.384C667.353 143.683 667.588 144.109 667.588 144.664V175.32C667.588 180.312 665.966 184.216 662.724 187.032C659.481 189.891 655.705 191.32 651.396 191.32C647.982 191.32 645.124 190.723 642.82 189.528C640.516 188.333 639.342 186.349 639.3 183.576C639.3 182.893 639.513 182.36 639.94 181.976C640.366 181.635 640.9 181.464 641.54 181.464C642.222 181.464 642.798 181.656 643.268 182.04C643.78 182.424 644.036 182.915 644.036 183.512C644.036 184.237 644.228 184.813 644.612 185.24C645.038 185.709 645.7 186.029 646.596 186.2C647.492 186.371 648.26 186.477 648.9 186.52C649.582 186.563 650.521 186.584 651.716 186.584C654.745 186.584 657.348 185.667 659.524 183.832C661.742 181.997 662.852 179.309 662.852 175.768V162.776C659.396 167.256 656.089 170.499 652.932 172.504C649.817 174.509 646.596 175.512 643.268 175.512C640.196 175.512 637.486 174.275 635.14 171.8C632.793 169.283 631.62 166.467 631.62 163.352ZM636.228 163.48C636.228 165.912 637.081 167.768 638.788 169.048C640.494 170.285 642.308 170.904 644.228 170.904C646.446 170.904 648.985 169.816 651.844 167.64C654.702 165.421 657.07 162.968 658.948 160.28C660.868 157.549 661.828 155.416 661.828 153.88C661.828 152.6 661.444 151.469 660.676 150.488C659.95 149.464 659.033 148.717 657.924 148.248C656.857 147.779 655.876 147.437 654.98 147.224C654.084 146.968 653.337 146.84 652.74 146.84C648.558 146.84 644.761 148.525 641.348 151.896C637.934 155.224 636.228 159.085 636.228 163.48ZM688.603 145.368C688.603 144.728 688.752 144.173 689.051 143.704C689.392 143.235 689.84 143 690.395 143H692.571V135.128C692.571 134.573 692.784 134.147 693.211 133.848C693.68 133.549 694.235 133.4 694.875 133.4C696.496 133.4 697.307 133.976 697.307 135.128V143H707.547C708.102 143 708.528 143.235 708.827 143.704C709.126 144.131 709.275 144.664 709.275 145.304C709.275 146.925 708.699 147.736 707.547 147.736H697.307V163.032C697.307 167.811 699.12 170.2 702.747 170.2C704.283 170.2 705.606 169.773 706.715 168.92C707.867 168.067 708.443 166.573 708.443 164.44C708.443 163.843 708.678 163.352 709.147 162.968C709.659 162.584 710.256 162.392 710.939 162.392C711.579 162.392 712.112 162.584 712.539 162.968C712.966 163.309 713.179 163.821 713.179 164.504C713.136 167.875 712.112 170.456 710.107 172.248C708.144 174.04 705.691 174.936 702.747 174.936C695.963 174.936 692.571 170.392 692.571 161.304V147.736H690.395C689.2 147.736 688.603 146.947 688.603 145.368ZM716.682 159.128C716.682 155.459 717.642 152.301 719.562 149.656C721.525 146.968 723.871 145.027 726.602 143.832C729.375 142.637 732.277 142.04 735.306 142.04C739.573 142.04 743.498 143.661 747.082 146.904C750.709 150.104 752.522 154.157 752.522 159.064C752.522 163.715 750.922 167.704 747.722 171.032C744.522 174.317 740.341 175.96 735.178 175.96C730.101 175.96 725.749 174.317 722.122 171.032C718.495 167.704 716.682 163.736 716.682 159.128ZM721.418 159.192C721.418 162.221 722.805 164.995 725.578 167.512C728.351 169.987 731.573 171.224 735.242 171.224C738.698 171.224 741.642 169.965 744.074 167.448C746.549 164.931 747.786 162.136 747.786 159.064C747.786 156.077 746.613 153.283 744.266 150.68C741.919 148.077 738.89 146.776 735.178 146.776C730.826 146.776 727.434 148.099 725.002 150.744C722.613 153.389 721.418 156.205 721.418 159.192ZM774.215 173.336V128.664C774.215 128.109 774.428 127.683 774.855 127.384C775.324 127.085 775.879 126.936 776.519 126.936C778.14 126.936 778.951 127.512 778.951 128.664V149.912C781.042 147.693 783.602 145.944 786.631 144.664C789.66 143.384 792.754 142.744 795.911 142.744C799.964 142.744 803.335 143.939 806.023 146.328C808.711 148.675 810.055 151.832 810.055 155.8C810.055 156.184 810.034 158.147 809.991 161.688C809.991 165.187 809.991 169.027 809.991 173.208C809.991 173.763 809.756 174.211 809.287 174.552C808.818 174.851 808.263 175 807.623 175C806.044 175 805.255 174.403 805.255 173.208V156.376C805.255 154.285 804.658 152.536 803.463 151.128C802.311 149.677 801.031 148.696 799.623 148.184C798.215 147.672 796.786 147.416 795.335 147.416C792.178 147.416 788.956 148.397 785.671 150.36C782.428 152.323 780.188 154.84 778.951 157.912V173.336C778.951 174.488 778.14 175.064 776.519 175.064C775.879 175.064 775.324 174.915 774.855 174.616C774.428 174.317 774.215 173.891 774.215 173.336ZM815.87 159.128C815.87 155.459 816.83 152.301 818.75 149.656C820.712 146.968 823.059 145.027 825.79 143.832C828.563 142.637 831.464 142.04 834.494 142.04C838.76 142.04 842.686 143.661 846.27 146.904C849.896 150.104 851.71 154.157 851.71 159.064C851.71 163.715 850.11 167.704 846.91 171.032C843.71 174.317 839.528 175.96 834.366 175.96C829.288 175.96 824.936 174.317 821.31 171.032C817.683 167.704 815.87 163.736 815.87 159.128ZM820.606 159.192C820.606 162.221 821.992 164.995 824.766 167.512C827.539 169.987 830.76 171.224 834.43 171.224C837.886 171.224 840.83 169.965 843.262 167.448C845.736 164.931 846.974 162.136 846.974 159.064C846.974 156.077 845.8 153.283 843.454 150.68C841.107 148.077 838.078 146.776 834.366 146.776C830.014 146.776 826.622 148.099 824.19 150.744C821.8 153.389 820.606 156.205 820.606 159.192ZM857.965 173.208V128.728C857.965 127.576 858.776 127 860.397 127C861.037 127 861.57 127.149 861.997 127.448C862.466 127.747 862.701 128.173 862.701 128.728V173.208C862.701 173.763 862.466 174.211 861.997 174.552C861.528 174.851 860.973 175 860.333 175C858.754 175 857.965 174.403 857.965 173.208ZM868.995 163.352C868.995 157.635 871.235 152.707 875.715 148.568C880.195 144.429 885.272 142.36 890.947 142.36C894.488 142.36 897.581 143.619 900.227 146.136V128.664C900.227 127.555 900.995 127 902.531 127C904.152 127 904.963 127.555 904.963 128.664V173.208C904.963 174.403 904.173 175 902.595 175C901.955 175 901.4 174.851 900.931 174.552C900.461 174.211 900.227 173.763 900.227 173.208V162.776C896.771 167.256 893.464 170.499 890.307 172.504C887.192 174.509 883.971 175.512 880.643 175.512C877.571 175.512 874.861 174.275 872.515 171.8C870.168 169.283 868.995 166.467 868.995 163.352ZM873.603 163.48C873.603 165.912 874.456 167.768 876.163 169.048C877.869 170.285 879.683 170.904 881.603 170.904C883.821 170.904 886.36 169.816 889.219 167.64C892.077 165.421 894.445 162.968 896.323 160.28C898.243 157.549 899.203 155.416 899.203 153.88C899.203 152.6 898.819 151.469 898.051 150.488C897.325 149.464 896.408 148.717 895.299 148.248C894.232 147.779 893.251 147.437 892.355 147.224C891.459 146.968 890.712 146.84 890.115 146.84C885.933 146.84 882.136 148.525 878.723 151.896C875.309 155.224 873.603 159.085 873.603 163.48ZM926.682 159.128C926.682 155.459 927.642 152.301 929.562 149.656C931.525 146.968 933.871 145.027 936.602 143.832C939.375 142.637 942.277 142.04 945.306 142.04C949.573 142.04 953.498 143.661 957.082 146.904C960.709 150.104 962.522 154.157 962.522 159.064C962.522 163.715 960.922 167.704 957.722 171.032C954.522 174.317 950.341 175.96 945.178 175.96C940.101 175.96 935.749 174.317 932.122 171.032C928.495 167.704 926.682 163.736 926.682 159.128ZM931.418 159.192C931.418 162.221 932.805 164.995 935.578 167.512C938.351 169.987 941.573 171.224 945.242 171.224C948.698 171.224 951.642 169.965 954.074 167.448C956.549 164.931 957.786 162.136 957.786 159.064C957.786 156.077 956.613 153.283 954.266 150.68C951.919 148.077 948.89 146.776 945.178 146.776C940.826 146.776 937.434 148.099 935.002 150.744C932.613 153.389 931.418 156.205 931.418 159.192ZM968.778 173.336V144.728C968.778 144.173 968.991 143.747 969.418 143.448C969.887 143.149 970.442 143 971.082 143C972.703 143 973.514 143.576 973.514 144.728V149.784C975.647 147.48 978.228 145.667 981.258 144.344C984.287 142.979 987.359 142.296 990.474 142.296C994.484 142.296 997.834 143.555 1000.52 146.072C1003.25 148.547 1004.62 151.789 1004.62 155.8C1004.62 156.184 1004.6 158.147 1004.55 161.688C1004.55 165.187 1004.55 169.027 1004.55 173.208C1004.55 173.763 1004.32 174.211 1003.85 174.552C1003.38 174.851 1002.83 175 1002.19 175C1000.61 175 999.818 174.403 999.818 173.208V156.376C999.818 153.347 998.73 151.021 996.554 149.4C994.42 147.779 992.202 146.968 989.898 146.968C986.783 146.968 983.583 148.013 980.298 150.104C977.055 152.152 974.794 154.755 973.514 157.912V173.336C973.514 174.488 972.703 175.064 971.082 175.064C970.442 175.064 969.887 174.915 969.418 174.616C968.991 174.317 968.778 173.891 968.778 173.336ZM1009.48 145.368C1009.48 144.728 1009.63 144.173 1009.93 143.704C1010.27 143.235 1010.72 143 1011.27 143H1013.45V135.128C1013.45 134.573 1013.66 134.147 1014.09 133.848C1014.56 133.549 1015.11 133.4 1015.75 133.4C1017.37 133.4 1018.18 133.976 1018.18 135.128V143H1028.42C1028.98 143 1029.4 143.235 1029.7 143.704C1030 144.131 1030.15 144.664 1030.15 145.304C1030.15 146.925 1029.57 147.736 1028.42 147.736H1018.18V163.032C1018.18 167.811 1020 170.2 1023.62 170.2C1025.16 170.2 1026.48 169.773 1027.59 168.92C1028.74 168.067 1029.32 166.573 1029.32 164.44C1029.32 163.843 1029.55 163.352 1030.02 162.968C1030.53 162.584 1031.13 162.392 1031.81 162.392C1032.45 162.392 1032.99 162.584 1033.41 162.968C1033.84 163.309 1034.05 163.821 1034.05 164.504C1034.01 167.875 1032.99 170.456 1030.98 172.248C1029.02 174.04 1026.57 174.936 1023.62 174.936C1016.84 174.936 1013.45 170.392 1013.45 161.304V147.736H1011.27C1010.08 147.736 1009.48 146.947 1009.48 145.368ZM1037.56 159.128C1037.56 155.459 1038.52 152.301 1040.44 149.656C1042.4 146.968 1044.75 145.027 1047.48 143.832C1050.25 142.637 1053.15 142.04 1056.18 142.04C1060.45 142.04 1064.37 143.661 1067.96 146.904C1071.58 150.104 1073.4 154.157 1073.4 159.064C1073.4 163.715 1071.8 167.704 1068.6 171.032C1065.4 174.317 1061.22 175.96 1056.05 175.96C1050.98 175.96 1046.62 174.317 1043 171.032C1039.37 167.704 1037.56 163.736 1037.56 159.128ZM1042.29 159.192C1042.29 162.221 1043.68 164.995 1046.45 167.512C1049.23 169.987 1052.45 171.224 1056.12 171.224C1059.57 171.224 1062.52 169.965 1064.95 167.448C1067.42 164.931 1068.66 162.136 1068.66 159.064C1068.66 156.077 1067.49 153.283 1065.14 150.68C1062.79 148.077 1059.77 146.776 1056.05 146.776C1051.7 146.776 1048.31 148.099 1045.88 150.744C1043.49 153.389 1042.29 156.205 1042.29 159.192ZM1095.09 173.208V144.728C1095.09 143.576 1095.9 143 1097.52 143C1098.16 143 1098.7 143.149 1099.12 143.448C1099.59 143.747 1099.83 144.173 1099.83 144.728V173.208C1099.83 173.763 1099.59 174.211 1099.12 174.552C1098.65 174.851 1098.1 175 1097.46 175C1095.88 175 1095.09 174.403 1095.09 173.208ZM1095.09 134.808V133.656C1095.09 132.504 1095.9 131.928 1097.52 131.928C1098.16 131.928 1098.7 132.077 1099.12 132.376C1099.59 132.675 1099.83 133.101 1099.83 133.656V134.808C1099.83 135.363 1099.59 135.811 1099.12 136.152C1098.65 136.451 1098.1 136.6 1097.46 136.6C1095.88 136.6 1095.09 136.003 1095.09 134.808ZM1107.53 173.336V144.728C1107.53 144.173 1107.74 143.747 1108.17 143.448C1108.64 143.149 1109.19 143 1109.83 143C1111.45 143 1112.26 143.576 1112.26 144.728V149.784C1114.4 147.48 1116.98 145.667 1120.01 144.344C1123.04 142.979 1126.11 142.296 1129.22 142.296C1133.23 142.296 1136.58 143.555 1139.27 146.072C1142 148.547 1143.37 151.789 1143.37 155.8C1143.37 156.184 1143.35 158.147 1143.3 161.688C1143.3 165.187 1143.3 169.027 1143.3 173.208C1143.3 173.763 1143.07 174.211 1142.6 174.552C1142.13 174.851 1141.58 175 1140.94 175C1139.36 175 1138.57 174.403 1138.57 173.208V156.376C1138.57 153.347 1137.48 151.021 1135.3 149.4C1133.17 147.779 1130.95 146.968 1128.65 146.968C1125.53 146.968 1122.33 148.013 1119.05 150.104C1115.8 152.152 1113.54 154.755 1112.26 157.912V173.336C1112.26 174.488 1111.45 175.064 1109.83 175.064C1109.19 175.064 1108.64 174.915 1108.17 174.616C1107.74 174.317 1107.53 173.891 1107.53 173.336ZM1166.03 173.208V128.728C1166.03 127.576 1166.84 127 1168.46 127C1169.1 127 1169.63 127.149 1170.06 127.448C1170.53 127.747 1170.76 128.173 1170.76 128.728V173.208C1170.76 173.763 1170.53 174.211 1170.06 174.552C1169.59 174.851 1169.04 175 1168.4 175C1166.82 175 1166.03 174.403 1166.03 173.208ZM1178.47 173.208V144.728C1178.47 143.576 1179.28 143 1180.9 143C1181.54 143 1182.07 143.149 1182.5 143.448C1182.97 143.747 1183.2 144.173 1183.2 144.728V173.208C1183.2 173.763 1182.97 174.211 1182.5 174.552C1182.03 174.851 1181.47 175 1180.83 175C1179.25 175 1178.47 174.403 1178.47 173.208ZM1178.47 134.808V133.656C1178.47 132.504 1179.28 131.928 1180.9 131.928C1181.54 131.928 1182.07 132.077 1182.5 132.376C1182.97 132.675 1183.2 133.101 1183.2 133.656V134.808C1183.2 135.363 1182.97 135.811 1182.5 136.152C1182.03 136.451 1181.47 136.6 1180.83 136.6C1179.25 136.6 1178.47 136.003 1178.47 134.808ZM1188.98 146.968C1188.98 145.389 1189.58 144.6 1190.77 144.6H1192.95V140.632C1192.95 131.544 1196.34 127 1203.13 127C1206.07 127 1208.55 127.896 1210.55 129.688C1212.56 131.48 1213.58 134.061 1213.62 137.432C1213.62 138.115 1213.39 138.648 1212.92 139.032C1212.49 139.373 1211.96 139.544 1211.32 139.544C1210.64 139.544 1210.06 139.352 1209.59 138.968C1209.12 138.584 1208.89 138.093 1208.89 137.496C1208.89 135.363 1208.31 133.869 1207.16 133.016C1206.01 132.163 1204.66 131.736 1203.13 131.736C1199.5 131.736 1197.69 134.125 1197.69 138.904V144.6H1207.93C1209.08 144.6 1209.65 145.411 1209.65 147.032C1209.65 147.672 1209.51 148.227 1209.21 148.696C1208.91 149.123 1208.48 149.336 1207.93 149.336H1197.69V173.208C1197.69 174.36 1196.88 174.936 1195.25 174.936C1194.61 174.936 1194.06 174.787 1193.59 174.488C1193.16 174.189 1192.95 173.763 1192.95 173.208V149.336H1190.77C1190.22 149.336 1189.77 149.101 1189.43 148.632C1189.13 148.163 1188.98 147.608 1188.98 146.968ZM1212.68 158.104C1212.68 155.373 1213.28 152.941 1214.47 150.808C1215.67 148.675 1217.25 146.989 1219.21 145.752C1221.17 144.515 1223.28 143.597 1225.55 143C1227.81 142.36 1230.11 142.04 1232.46 142.04C1236.64 142.04 1239.88 142.957 1242.19 144.792C1244.49 146.584 1245.64 148.803 1245.64 151.448C1245.64 154.307 1244.3 156.739 1241.61 158.744C1238.92 160.749 1235.1 161.752 1230.15 161.752C1225.72 161.752 1221.49 161.112 1217.48 159.832C1217.95 162.989 1219.42 165.635 1221.9 167.768C1224.37 169.901 1227.42 170.968 1231.05 170.968C1232.97 170.968 1234.95 170.669 1237 170.072C1239.09 169.475 1240.74 168.621 1241.93 167.512C1242.1 167.171 1242.44 167 1242.95 167C1243.55 167 1244.19 167.277 1244.87 167.832C1245.56 168.344 1245.9 168.877 1245.9 169.432C1244.83 171.608 1242.74 173.208 1239.63 174.232C1236.55 175.213 1233.57 175.704 1230.67 175.704C1225.42 175.704 1221.11 173.976 1217.74 170.52C1214.37 167.064 1212.68 162.925 1212.68 158.104ZM1217.74 154.904C1220.94 156.312 1224.91 157.016 1229.64 157.016C1233.35 157.016 1236.17 156.44 1238.09 155.288C1240.01 154.093 1240.97 152.771 1240.97 151.32C1240.97 150.04 1240.16 148.973 1238.54 148.12C1236.96 147.224 1234.59 146.776 1231.43 146.776C1228.02 146.776 1225.16 147.544 1222.86 149.08C1220.6 150.573 1218.89 152.515 1217.74 154.904ZM1267.65 173.208V144.728C1267.65 143.576 1268.46 143 1270.08 143C1270.72 143 1271.26 143.149 1271.68 143.448C1272.15 143.747 1272.39 144.173 1272.39 144.728V173.208C1272.39 173.763 1272.15 174.211 1271.68 174.552C1271.22 174.851 1270.66 175 1270.02 175C1268.44 175 1267.65 174.403 1267.65 173.208ZM1267.65 134.808V133.656C1267.65 132.504 1268.46 131.928 1270.08 131.928C1270.72 131.928 1271.26 132.077 1271.68 132.376C1272.15 132.675 1272.39 133.101 1272.39 133.656V134.808C1272.39 135.363 1272.15 135.811 1271.68 136.152C1271.22 136.451 1270.66 136.6 1270.02 136.6C1268.44 136.6 1267.65 136.003 1267.65 134.808ZM1278.75 168.92C1278.75 168.365 1278.98 167.768 1279.45 167.128C1279.96 166.488 1280.54 166.083 1281.18 165.912C1281.48 165.912 1281.63 165.955 1281.63 166.04C1282.99 167.533 1284.95 168.707 1287.51 169.56C1290.07 170.371 1292.08 170.84 1293.53 170.968C1295.02 171.096 1296.41 171.16 1297.69 171.16C1303.24 171.16 1306.01 169.475 1306.01 166.104C1306.01 164.952 1305.58 164.035 1304.73 163.352C1303.92 162.627 1302.79 162.136 1301.34 161.88C1299.93 161.624 1298.5 161.453 1297.05 161.368C1295.6 161.283 1294.02 161.219 1292.31 161.176C1290.61 161.091 1289.31 160.963 1288.41 160.792C1285.98 160.323 1283.82 159.341 1281.95 157.848C1280.07 156.312 1279.13 154.52 1279.13 152.472C1279.13 149.229 1280.75 146.755 1283.99 145.048C1287.28 143.299 1290.88 142.424 1294.81 142.424C1297.46 142.424 1300.29 142.893 1303.32 143.832C1306.35 144.728 1308.61 146.136 1310.11 148.056C1310.15 148.141 1310.17 148.248 1310.17 148.376C1310.17 148.931 1309.91 149.592 1309.4 150.36C1308.89 151.085 1308.4 151.448 1307.93 151.448C1307.5 151.448 1307.08 151.107 1306.65 150.424C1304.6 148.248 1300.53 147.16 1294.43 147.16C1291.91 147.16 1289.52 147.587 1287.26 148.44C1285 149.293 1283.87 150.552 1283.87 152.216C1283.87 153.624 1284.85 154.691 1286.81 155.416C1288.77 156.099 1290.86 156.44 1293.08 156.44C1294.66 156.44 1295.98 156.461 1297.05 156.504C1298.12 156.547 1299.42 156.675 1300.95 156.888C1302.49 157.059 1303.77 157.379 1304.79 157.848C1305.82 158.275 1306.82 158.851 1307.8 159.576C1308.78 160.259 1309.51 161.197 1309.98 162.392C1310.49 163.544 1310.75 164.909 1310.75 166.488C1310.75 168.664 1310.06 170.499 1308.7 171.992C1307.38 173.443 1305.84 174.445 1304.09 175C1302.38 175.597 1300.57 175.896 1298.65 175.896C1289.65 175.896 1283.16 173.976 1279.19 170.136C1278.9 169.837 1278.75 169.432 1278.75 168.92ZM1331.18 158.104C1331.18 155.373 1331.78 152.941 1332.97 150.808C1334.17 148.675 1335.75 146.989 1337.71 145.752C1339.67 144.515 1341.78 143.597 1344.05 143C1346.31 142.36 1348.61 142.04 1350.96 142.04C1355.14 142.04 1358.38 142.957 1360.69 144.792C1362.99 146.584 1364.14 148.803 1364.14 151.448C1364.14 154.307 1362.8 156.739 1360.11 158.744C1357.42 160.749 1353.6 161.752 1348.65 161.752C1344.22 161.752 1339.99 161.112 1335.98 159.832C1336.45 162.989 1337.92 165.635 1340.4 167.768C1342.87 169.901 1345.92 170.968 1349.55 170.968C1351.47 170.968 1353.45 170.669 1355.5 170.072C1357.59 169.475 1359.24 168.621 1360.43 167.512C1360.6 167.171 1360.94 167 1361.45 167C1362.05 167 1362.69 167.277 1363.37 167.832C1364.06 168.344 1364.4 168.877 1364.4 169.432C1363.33 171.608 1361.24 173.208 1358.13 174.232C1355.05 175.213 1352.07 175.704 1349.17 175.704C1343.92 175.704 1339.61 173.976 1336.24 170.52C1332.87 167.064 1331.18 162.925 1331.18 158.104ZM1336.24 154.904C1339.44 156.312 1343.41 157.016 1348.14 157.016C1351.85 157.016 1354.67 156.44 1356.59 155.288C1358.51 154.093 1359.47 152.771 1359.47 151.32C1359.47 150.04 1358.66 148.973 1357.04 148.12C1355.46 147.224 1353.09 146.776 1349.93 146.776C1346.52 146.776 1343.66 147.544 1341.36 149.08C1339.1 150.573 1337.39 152.515 1336.24 154.904ZM1369.31 163.352C1369.31 157.635 1371.55 152.707 1376.03 148.568C1380.51 144.429 1385.58 142.36 1391.26 142.36C1395.14 142.36 1398.45 143.832 1401.18 146.776C1403.91 149.72 1405.28 153.069 1405.28 156.824L1405.21 173.592C1405.21 174.147 1404.93 174.595 1404.38 174.936C1403.87 175.235 1403.29 175.384 1402.65 175.384C1401.24 175.384 1400.54 174.787 1400.54 173.592V162.776C1397.08 167.256 1393.78 170.499 1390.62 172.504C1387.5 174.509 1384.28 175.512 1380.96 175.512C1377.88 175.512 1375.17 174.275 1372.83 171.8C1370.48 169.283 1369.31 166.467 1369.31 163.352ZM1373.92 163.48C1373.92 165.912 1374.77 167.768 1376.48 169.048C1378.18 170.285 1380 170.904 1381.92 170.904C1384.13 170.904 1386.67 169.816 1389.53 167.64C1392.39 165.421 1394.76 162.968 1396.64 160.28C1398.56 157.549 1399.52 155.416 1399.52 153.88C1399.52 152.6 1399.13 151.469 1398.36 150.488C1397.64 149.464 1396.72 148.717 1395.61 148.248C1394.54 147.779 1393.56 147.437 1392.67 147.224C1391.77 146.968 1391.02 146.84 1390.43 146.84C1386.25 146.84 1382.45 148.525 1379.04 151.896C1375.62 155.224 1373.92 159.085 1373.92 163.48ZM1411.06 159.128C1411.06 155.459 1412.04 152.301 1414 149.656C1415.96 146.968 1418.33 145.027 1421.11 143.832C1423.88 142.637 1426.78 142.04 1429.81 142.04C1433.65 142.04 1437.21 143.363 1440.5 146.008C1440.84 146.307 1441.01 146.691 1441.01 147.16C1441.01 147.843 1440.73 148.483 1440.18 149.08C1439.62 149.635 1439.05 149.912 1438.45 149.912C1438.02 149.912 1437.66 149.763 1437.36 149.464C1435.31 147.672 1432.75 146.776 1429.68 146.776C1425.33 146.776 1421.92 148.099 1419.44 150.744C1417.01 153.389 1415.79 156.205 1415.79 159.192C1415.79 162.221 1417.2 164.995 1420.02 167.512C1422.83 169.987 1426.08 171.224 1429.75 171.224C1433.5 171.224 1436.55 169.88 1438.9 167.192C1439.37 166.723 1439.77 166.488 1440.11 166.488C1440.75 166.488 1441.37 166.808 1441.97 167.448C1442.57 168.088 1442.87 168.707 1442.87 169.304C1442.87 169.688 1442.72 170.029 1442.42 170.328C1439.13 174.083 1435.01 175.96 1430.07 175.96C1424.82 175.96 1420.34 174.317 1416.62 171.032C1412.91 167.704 1411.06 163.736 1411.06 159.128ZM1447.97 173.336V128.664C1447.97 128.109 1448.18 127.683 1448.61 127.384C1449.07 127.085 1449.63 126.936 1450.27 126.936C1451.89 126.936 1452.7 127.512 1452.7 128.664V149.912C1454.79 147.693 1457.35 145.944 1460.38 144.664C1463.41 143.384 1466.5 142.744 1469.66 142.744C1473.71 142.744 1477.09 143.939 1479.77 146.328C1482.46 148.675 1483.81 151.832 1483.81 155.8C1483.81 156.184 1483.78 158.147 1483.74 161.688C1483.74 165.187 1483.74 169.027 1483.74 173.208C1483.74 173.763 1483.51 174.211 1483.04 174.552C1482.57 174.851 1482.01 175 1481.37 175C1479.79 175 1479.01 174.403 1479.01 173.208V156.376C1479.01 154.285 1478.41 152.536 1477.21 151.128C1476.06 149.677 1474.78 148.696 1473.37 148.184C1471.97 147.672 1470.54 147.416 1469.09 147.416C1465.93 147.416 1462.71 148.397 1459.42 150.36C1456.18 152.323 1453.94 154.84 1452.7 157.912V173.336C1452.7 174.488 1451.89 175.064 1450.27 175.064C1449.63 175.064 1449.07 174.915 1448.61 174.616C1448.18 174.317 1447.97 173.891 1447.97 173.336ZM1505.06 159.128C1505.06 155.459 1506.02 152.301 1507.94 149.656C1509.9 146.968 1512.25 145.027 1514.98 143.832C1517.75 142.637 1520.65 142.04 1523.68 142.04C1527.95 142.04 1531.87 143.661 1535.46 146.904C1539.08 150.104 1540.9 154.157 1540.9 159.064C1540.9 163.715 1539.3 167.704 1536.1 171.032C1532.9 174.317 1528.72 175.96 1523.55 175.96C1518.48 175.96 1514.12 174.317 1510.5 171.032C1506.87 167.704 1505.06 163.736 1505.06 159.128ZM1509.79 159.192C1509.79 162.221 1511.18 164.995 1513.95 167.512C1516.73 169.987 1519.95 171.224 1523.62 171.224C1527.07 171.224 1530.02 169.965 1532.45 167.448C1534.92 164.931 1536.16 162.136 1536.16 159.064C1536.16 156.077 1534.99 153.283 1532.64 150.68C1530.29 148.077 1527.27 146.776 1523.55 146.776C1519.2 146.776 1515.81 148.099 1513.38 150.744C1510.99 153.389 1509.79 156.205 1509.79 159.192ZM1544.73 145.368C1544.73 144.728 1544.88 144.173 1545.18 143.704C1545.52 143.235 1545.97 143 1546.52 143H1548.7V135.128C1548.7 134.573 1548.91 134.147 1549.34 133.848C1549.81 133.549 1550.36 133.4 1551 133.4C1552.62 133.4 1553.43 133.976 1553.43 135.128V143H1563.67C1564.23 143 1564.65 143.235 1564.95 143.704C1565.25 144.131 1565.4 144.664 1565.4 145.304C1565.4 146.925 1564.82 147.736 1563.67 147.736H1553.43V163.032C1553.43 167.811 1555.25 170.2 1558.87 170.2C1560.41 170.2 1561.73 169.773 1562.84 168.92C1563.99 168.067 1564.57 166.573 1564.57 164.44C1564.57 163.843 1564.8 163.352 1565.27 162.968C1565.78 162.584 1566.38 162.392 1567.06 162.392C1567.7 162.392 1568.24 162.584 1568.66 162.968C1569.09 163.309 1569.3 163.821 1569.3 164.504C1569.26 167.875 1568.24 170.456 1566.23 172.248C1564.27 174.04 1561.82 174.936 1558.87 174.936C1552.09 174.936 1548.7 170.392 1548.7 161.304V147.736H1546.52C1545.33 147.736 1544.73 146.947 1544.73 145.368ZM1574.22 173.336V128.664C1574.22 128.109 1574.43 127.683 1574.86 127.384C1575.32 127.085 1575.88 126.936 1576.52 126.936C1578.14 126.936 1578.95 127.512 1578.95 128.664V149.912C1581.04 147.693 1583.6 145.944 1586.63 144.664C1589.66 143.384 1592.75 142.744 1595.91 142.744C1599.96 142.744 1603.34 143.939 1606.02 146.328C1608.71 148.675 1610.06 151.832 1610.06 155.8C1610.06 156.184 1610.03 158.147 1609.99 161.688C1609.99 165.187 1609.99 169.027 1609.99 173.208C1609.99 173.763 1609.76 174.211 1609.29 174.552C1608.82 174.851 1608.26 175 1607.62 175C1606.04 175 1605.26 174.403 1605.26 173.208V156.376C1605.26 154.285 1604.66 152.536 1603.46 151.128C1602.31 149.677 1601.03 148.696 1599.62 148.184C1598.22 147.672 1596.79 147.416 1595.34 147.416C1592.18 147.416 1588.96 148.397 1585.67 150.36C1582.43 152.323 1580.19 154.84 1578.95 157.912V173.336C1578.95 174.488 1578.14 175.064 1576.52 175.064C1575.88 175.064 1575.32 174.915 1574.86 174.616C1574.43 174.317 1574.22 173.891 1574.22 173.336ZM1615.87 158.104C1615.87 155.373 1616.47 152.941 1617.66 150.808C1618.86 148.675 1620.43 146.989 1622.4 145.752C1624.36 144.515 1626.47 143.597 1628.73 143C1630.99 142.36 1633.3 142.04 1635.65 142.04C1639.83 142.04 1643.07 142.957 1645.37 144.792C1647.68 146.584 1648.83 148.803 1648.83 151.448C1648.83 154.307 1647.49 156.739 1644.8 158.744C1642.11 160.749 1638.29 161.752 1633.34 161.752C1628.9 161.752 1624.68 161.112 1620.67 159.832C1621.14 162.989 1622.61 165.635 1625.09 167.768C1627.56 169.901 1630.61 170.968 1634.24 170.968C1636.16 170.968 1638.14 170.669 1640.19 170.072C1642.28 169.475 1643.92 168.621 1645.12 167.512C1645.29 167.171 1645.63 167 1646.14 167C1646.74 167 1647.38 167.277 1648.06 167.832C1648.74 168.344 1649.09 168.877 1649.09 169.432C1648.02 171.608 1645.93 173.208 1642.81 174.232C1639.74 175.213 1636.75 175.704 1633.85 175.704C1628.61 175.704 1624.3 173.976 1620.93 170.52C1617.55 167.064 1615.87 162.925 1615.87 158.104ZM1620.93 154.904C1624.13 156.312 1628.09 157.016 1632.83 157.016C1636.54 157.016 1639.36 156.44 1641.28 155.288C1643.2 154.093 1644.16 152.771 1644.16 151.32C1644.16 150.04 1643.35 148.973 1641.73 148.12C1640.15 147.224 1637.78 146.776 1634.62 146.776C1631.21 146.776 1628.35 147.544 1626.05 149.08C1623.78 150.573 1622.08 152.515 1620.93 154.904ZM1655.34 173.208V144.856C1655.34 143.704 1656.15 143.128 1657.77 143.128C1658.41 143.128 1658.94 143.277 1659.37 143.576C1659.84 143.875 1660.07 144.301 1660.07 144.856V152.856C1661.7 149.357 1663.49 146.712 1665.45 144.92C1667.46 143.128 1670.1 142.232 1673.39 142.232C1675.69 142.232 1678.02 142.531 1680.36 143.128C1681.6 143.725 1682.22 144.536 1682.22 145.56C1682.22 146.285 1682.07 146.797 1681.77 147.096C1681.47 147.395 1680.98 147.587 1680.3 147.672C1678.12 147.16 1676.35 146.904 1674.99 146.904C1671.83 146.904 1668.95 148.461 1666.35 151.576C1663.74 154.691 1661.65 158.744 1660.07 163.736V173.208C1660.07 173.763 1659.84 174.211 1659.37 174.552C1658.9 174.851 1658.35 175 1657.71 175C1656.13 175 1655.34 174.403 1655.34 173.208ZM1681.28 171.8V170.008C1681.28 169.069 1681.66 168.323 1682.43 167.768C1683.24 167.213 1684.31 166.936 1685.63 166.936C1686.78 166.936 1687.76 167.213 1688.57 167.768C1689.38 168.28 1689.79 169.027 1689.79 170.008V171.8C1689.79 172.781 1689.36 173.571 1688.51 174.168C1687.66 174.723 1686.67 175 1685.57 175C1684.24 175 1683.2 174.723 1682.43 174.168C1681.66 173.571 1681.28 172.781 1681.28 171.8ZM1696.63 134.104C1696.63 133.123 1696.93 132.227 1697.53 131.416C1698.17 130.605 1699.15 130.2 1700.47 130.2C1702.99 130.2 1704.25 131.928 1704.25 135.384C1704.25 137.475 1703.8 139.629 1702.91 141.848C1702.05 144.024 1701.24 145.112 1700.47 145.112C1699.92 145.112 1699.58 144.749 1699.45 144.024C1699.32 143.256 1699.21 142.253 1699.13 141.016C1699.04 139.779 1698.79 138.797 1698.36 138.072C1698.23 137.816 1698.02 137.496 1697.72 137.112C1697.47 136.728 1697.27 136.429 1697.15 136.216C1697.02 135.96 1696.89 135.661 1696.76 135.32C1696.68 134.936 1696.63 134.531 1696.63 134.104ZM1709.43 134.104C1709.43 133.123 1709.73 132.227 1710.33 131.416C1710.97 130.605 1711.95 130.2 1713.27 130.2C1715.79 130.2 1717.05 131.928 1717.05 135.384C1717.05 137.475 1716.6 139.629 1715.71 141.848C1714.85 144.024 1714.04 145.112 1713.27 145.112C1712.72 145.112 1712.38 144.749 1712.25 144.024C1712.12 143.256 1712.01 142.253 1711.93 141.016C1711.84 139.779 1711.59 138.797 1711.16 138.072C1711.03 137.816 1710.82 137.496 1710.52 137.112C1710.27 136.728 1710.07 136.429 1709.95 136.216C1709.82 135.96 1709.69 135.661 1709.56 135.32C1709.48 134.936 1709.43 134.531 1709.43 134.104ZM671.371 234.976C671.371 234.336 671.521 233.803 671.819 233.376C672.118 232.907 672.545 232.672 673.099 232.672H691.979C692.534 232.672 692.961 232.907 693.259 233.376C693.601 233.845 693.771 234.4 693.771 235.04C693.771 236.619 693.174 237.408 691.979 237.408H673.099C671.947 237.408 671.371 236.597 671.371 234.976ZM715.335 249.632C715.335 249.461 715.378 249.248 715.463 248.992L719.815 237.472H717.191C716.039 237.472 715.463 236.661 715.463 235.04C715.463 234.4 715.613 233.867 715.911 233.44C716.21 232.971 716.637 232.736 717.191 232.736H721.607L730.503 209.44C730.845 208.757 731.314 208.224 731.911 207.84C732.509 207.413 733.042 207.2 733.511 207.2C733.981 207.2 734.514 207.413 735.111 207.84C735.709 208.267 736.157 208.8 736.455 209.44L745.351 232.736H749.511C750.066 232.736 750.493 232.971 750.791 233.44C751.133 233.909 751.303 234.464 751.303 235.104C751.303 236.683 750.706 237.472 749.511 237.472H747.207L751.623 248.992C751.709 249.248 751.751 249.461 751.751 249.632C751.751 250.272 751.431 250.827 750.791 251.296C750.151 251.765 749.511 252 748.871 252C748.189 252 747.677 251.68 747.335 251.04L742.151 237.472H724.935L719.751 251.04C719.41 251.68 718.898 252 718.215 252C717.575 252 716.935 251.765 716.295 251.296C715.655 250.827 715.335 250.272 715.335 249.632ZM726.727 232.736H740.295L733.511 214.88L726.727 232.736ZM757.298 238.944C757.298 238.56 757.298 236.661 757.298 233.248C757.341 229.792 757.362 225.973 757.362 221.792C757.362 221.237 757.597 220.811 758.066 220.512C758.536 220.171 759.09 220 759.73 220C761.309 220 762.098 220.597 762.098 221.792V238.368C762.098 241.397 763.165 243.765 765.298 245.472C767.474 247.136 769.714 247.968 772.018 247.968C774.92 247.968 778.013 246.923 781.298 244.832C784.626 242.699 786.93 240.053 788.21 236.896V221.728C788.21 220.576 789.021 220 790.642 220C791.282 220 791.816 220.149 792.242 220.448C792.712 220.747 792.946 221.173 792.946 221.728V250.272C792.946 250.827 792.712 251.253 792.242 251.552C791.816 251.851 791.282 252 790.642 252C789.021 252 788.21 251.424 788.21 250.272V245.024C786.077 247.371 783.517 249.227 780.53 250.592C777.586 251.957 774.557 252.64 771.442 252.64C767.432 252.64 764.061 251.36 761.33 248.8C758.642 246.24 757.298 242.955 757.298 238.944ZM799.213 240.352C799.213 234.635 801.453 229.707 805.933 225.568C810.413 221.429 815.491 219.36 821.165 219.36C824.707 219.36 827.8 220.619 830.445 223.136V205.664C830.445 204.555 831.213 204 832.749 204C834.371 204 835.181 204.555 835.181 205.664V250.208C835.181 251.403 834.392 252 832.813 252C832.173 252 831.619 251.851 831.149 251.552C830.68 251.211 830.445 250.763 830.445 250.208V239.776C826.989 244.256 823.683 247.499 820.525 249.504C817.411 251.509 814.189 252.512 810.861 252.512C807.789 252.512 805.08 251.275 802.733 248.8C800.387 246.283 799.213 243.467 799.213 240.352ZM803.821 240.48C803.821 242.912 804.675 244.768 806.381 246.048C808.088 247.285 809.901 247.904 811.821 247.904C814.04 247.904 816.579 246.816 819.437 244.64C822.296 242.421 824.664 239.968 826.541 237.28C828.461 234.549 829.421 232.416 829.421 230.88C829.421 229.6 829.037 228.469 828.269 227.488C827.544 226.464 826.627 225.717 825.517 225.248C824.451 224.779 823.469 224.437 822.573 224.224C821.677 223.968 820.931 223.84 820.333 223.84C816.152 223.84 812.355 225.525 808.941 228.896C805.528 232.224 803.821 236.085 803.821 240.48ZM842.807 250.208V221.856C842.807 220.704 843.618 220.128 845.239 220.128C845.879 220.128 846.413 220.277 846.839 220.576C847.309 220.875 847.543 221.301 847.543 221.856V229.856C849.165 226.357 850.957 223.712 852.919 221.92C854.925 220.128 857.57 219.232 860.855 219.232C863.159 219.232 865.485 219.531 867.831 220.128C869.069 220.725 869.687 221.536 869.687 222.56C869.687 223.285 869.538 223.797 869.239 224.096C868.941 224.395 868.45 224.587 867.767 224.672C865.591 224.16 863.821 223.904 862.455 223.904C859.298 223.904 856.418 225.461 853.815 228.576C851.213 231.691 849.122 235.744 847.543 240.736V250.208C847.543 250.763 847.309 251.211 846.839 251.552C846.37 251.851 845.815 252 845.175 252C843.597 252 842.807 251.403 842.807 250.208ZM871.963 235.104C871.963 232.373 872.561 229.941 873.755 227.808C874.95 225.675 876.529 223.989 878.491 222.752C880.454 221.515 882.566 220.597 884.827 220C887.089 219.36 889.393 219.04 891.739 219.04C895.921 219.04 899.163 219.957 901.467 221.792C903.771 223.584 904.923 225.803 904.923 228.448C904.923 231.307 903.579 233.739 900.891 235.744C898.203 237.749 894.385 238.752 889.435 238.752C884.998 238.752 880.774 238.112 876.763 236.832C877.233 239.989 878.705 242.635 881.179 244.768C883.654 246.901 886.705 247.968 890.331 247.968C892.251 247.968 894.235 247.669 896.283 247.072C898.374 246.475 900.017 245.621 901.211 244.512C901.382 244.171 901.723 244 902.235 244C902.833 244 903.473 244.277 904.155 244.832C904.838 245.344 905.179 245.877 905.179 246.432C904.113 248.608 902.022 250.208 898.907 251.232C895.835 252.213 892.849 252.704 889.947 252.704C884.699 252.704 880.39 250.976 877.019 247.52C873.649 244.064 871.963 239.925 871.963 235.104ZM877.019 231.904C880.219 233.312 884.187 234.016 888.923 234.016C892.635 234.016 895.451 233.44 897.371 232.288C899.291 231.093 900.251 229.771 900.251 228.32C900.251 227.04 899.441 225.973 897.819 225.12C896.241 224.224 893.873 223.776 890.715 223.776C887.302 223.776 884.443 224.544 882.139 226.08C879.878 227.573 878.171 229.515 877.019 231.904ZM911.112 238.944V221.664C911.112 221.109 911.326 220.683 911.752 220.384C912.222 220.043 912.755 219.872 913.352 219.872C914.931 219.872 915.72 220.469 915.72 221.664V238.368C915.72 239.947 916.147 241.355 917 242.592C917.854 243.829 918.92 244.768 920.2 245.408C921.523 246.048 922.803 246.539 924.04 246.88C925.32 247.179 926.494 247.328 927.56 247.328C930.59 247.328 933.448 246.389 936.136 244.512C938.824 242.635 940.723 240.139 941.832 237.024V221.664C941.832 220.512 942.643 219.936 944.264 219.936C944.904 219.936 945.438 220.085 945.864 220.384C946.334 220.683 946.568 221.109 946.568 221.664V252.32C946.568 254.837 945.992 257.141 944.84 259.232C943.731 261.365 942.28 263.072 940.488 264.352C938.696 265.632 936.755 266.613 934.664 267.296C932.574 267.979 930.504 268.32 928.456 268.32C924.958 268.32 921.523 267.509 918.152 265.888C914.824 264.267 913.139 262.091 913.096 259.36C913.096 258.677 913.31 258.144 913.736 257.76C914.206 257.419 914.76 257.248 915.4 257.248C916.083 257.248 916.68 257.44 917.192 257.824C917.704 258.208 917.96 258.699 917.96 259.296C917.96 260.661 919.176 261.707 921.608 262.432C924.04 263.2 926.43 263.584 928.776 263.584C930.696 263.584 932.595 263.221 934.472 262.496C936.392 261.813 938.099 260.597 939.592 258.848C941.086 257.141 941.832 255.115 941.832 252.768V245.344C937.95 249.781 933 252 926.984 252C922.803 252 919.112 250.805 915.912 248.416C912.712 245.984 911.112 242.827 911.112 238.944ZM970.516 250.208V208.928C970.516 207.776 971.326 207.2 972.948 207.2C973.588 207.2 974.121 207.349 974.548 207.648C975.017 207.947 975.252 208.373 975.252 208.928V224.544H1002.39V208.928C1002.39 207.776 1003.2 207.2 1004.82 207.2C1005.46 207.2 1005.99 207.349 1006.42 207.648C1006.89 207.947 1007.12 208.373 1007.12 208.928V250.208C1007.12 250.763 1006.89 251.211 1006.42 251.552C1005.95 251.851 1005.4 252 1004.76 252C1003.18 252 1002.39 251.403 1002.39 250.208V229.28H975.252V250.208C975.252 250.763 975.017 251.211 974.548 251.552C974.078 251.851 973.524 252 972.884 252C971.305 252 970.516 251.403 970.516 250.208ZM1014.21 235.104C1014.21 232.373 1014.81 229.941 1016.01 227.808C1017.2 225.675 1018.78 223.989 1020.74 222.752C1022.7 221.515 1024.82 220.597 1027.08 220C1029.34 219.36 1031.64 219.04 1033.99 219.04C1038.17 219.04 1041.41 219.957 1043.72 221.792C1046.02 223.584 1047.17 225.803 1047.17 228.448C1047.17 231.307 1045.83 233.739 1043.14 235.744C1040.45 237.749 1036.63 238.752 1031.69 238.752C1027.25 238.752 1023.02 238.112 1019.01 236.832C1019.48 239.989 1020.95 242.635 1023.43 244.768C1025.9 246.901 1028.95 247.968 1032.58 247.968C1034.5 247.968 1036.49 247.669 1038.53 247.072C1040.62 246.475 1042.27 245.621 1043.46 244.512C1043.63 244.171 1043.97 244 1044.49 244C1045.08 244 1045.72 244.277 1046.41 244.832C1047.09 245.344 1047.43 245.877 1047.43 246.432C1046.36 248.608 1044.27 250.208 1041.16 251.232C1038.09 252.213 1035.1 252.704 1032.2 252.704C1026.95 252.704 1022.64 250.976 1019.27 247.52C1015.9 244.064 1014.21 239.925 1014.21 235.104ZM1019.27 231.904C1022.47 233.312 1026.44 234.016 1031.17 234.016C1034.89 234.016 1037.7 233.44 1039.62 232.288C1041.54 231.093 1042.5 229.771 1042.5 228.32C1042.5 227.04 1041.69 225.973 1040.07 225.12C1038.49 224.224 1036.12 223.776 1032.97 223.776C1029.55 223.776 1026.69 224.544 1024.39 226.08C1022.13 227.573 1020.42 229.515 1019.27 231.904ZM1053.75 266.272V221.792C1053.75 221.237 1053.98 220.811 1054.45 220.512C1054.92 220.171 1055.47 220 1056.11 220C1057.69 220 1058.48 220.597 1058.48 221.792V228.768C1062.54 222.581 1068.53 219.488 1076.47 219.488C1080.09 219.488 1083.16 220.704 1085.68 223.136C1088.24 225.525 1089.52 228.341 1089.52 231.584C1089.52 235.381 1088.48 238.88 1086.39 242.08C1084.3 245.237 1081.56 247.691 1078.19 249.44C1074.87 251.189 1071.37 252.064 1067.7 252.064C1064.16 252.064 1061.08 250.891 1058.48 248.544V266.272C1058.48 267.424 1057.67 268 1056.05 268C1055.41 268 1054.86 267.851 1054.39 267.552C1053.96 267.253 1053.75 266.827 1053.75 266.272ZM1058.42 239.392C1058.42 241.995 1059.44 243.957 1061.49 245.28C1063.58 246.603 1065.65 247.264 1067.7 247.264C1070.17 247.264 1072.69 246.667 1075.25 245.472C1077.81 244.277 1079.99 242.507 1081.78 240.16C1083.61 237.771 1084.53 235.168 1084.53 232.352C1084.53 229.451 1083.61 227.36 1081.78 226.08C1079.99 224.8 1077.81 224.16 1075.25 224.16C1072.86 224.16 1070.32 224.971 1067.63 226.592C1064.99 228.171 1062.79 230.176 1061.04 232.608C1059.29 234.997 1058.42 237.259 1058.42 239.392ZM1095.81 250.208V205.664C1095.81 204.555 1096.62 204 1098.24 204C1099.78 204 1100.54 204.555 1100.54 205.664V223.136C1103.19 220.619 1106.28 219.36 1109.82 219.36C1115.5 219.36 1120.58 221.429 1125.06 225.568C1129.54 229.707 1131.78 234.635 1131.78 240.352C1131.78 243.467 1130.6 246.283 1128.26 248.8C1125.91 251.275 1123.2 252.512 1120.13 252.512C1116.8 252.512 1113.56 251.509 1110.4 249.504C1107.29 247.499 1104 244.256 1100.54 239.776V250.208C1100.54 250.763 1100.31 251.211 1099.84 251.552C1099.37 251.851 1098.82 252 1098.18 252C1096.6 252 1095.81 251.403 1095.81 250.208ZM1101.57 230.88C1101.57 232.416 1102.51 234.549 1104.38 237.28C1106.3 239.968 1108.69 242.421 1111.55 244.64C1114.41 246.816 1116.95 247.904 1119.17 247.904C1121.09 247.904 1122.9 247.285 1124.61 246.048C1126.32 244.768 1127.17 242.912 1127.17 240.48C1127.17 236.085 1125.46 232.224 1122.05 228.896C1118.64 225.525 1114.84 223.84 1110.66 223.84C1110.06 223.84 1109.31 223.968 1108.42 224.224C1107.52 224.437 1106.52 224.779 1105.41 225.248C1104.34 225.717 1103.42 226.464 1102.66 227.488C1101.93 228.469 1101.57 229.6 1101.57 230.88ZM1137.61 238.944C1137.61 238.56 1137.61 236.661 1137.61 233.248C1137.65 229.792 1137.67 225.973 1137.67 221.792C1137.67 221.237 1137.91 220.811 1138.38 220.512C1138.85 220.171 1139.4 220 1140.04 220C1141.62 220 1142.41 220.597 1142.41 221.792V238.368C1142.41 241.397 1143.48 243.765 1145.61 245.472C1147.79 247.136 1150.03 247.968 1152.33 247.968C1155.23 247.968 1158.33 246.923 1161.61 244.832C1164.94 242.699 1167.24 240.053 1168.52 236.896V221.728C1168.52 220.576 1169.33 220 1170.95 220C1171.59 220 1172.13 220.149 1172.55 220.448C1173.02 220.747 1173.26 221.173 1173.26 221.728V250.272C1173.26 250.827 1173.02 251.253 1172.55 251.552C1172.13 251.851 1171.59 252 1170.95 252C1169.33 252 1168.52 251.424 1168.52 250.272V245.024C1166.39 247.371 1163.83 249.227 1160.84 250.592C1157.9 251.957 1154.87 252.64 1151.75 252.64C1147.74 252.64 1144.37 251.36 1141.64 248.8C1138.95 246.24 1137.61 242.955 1137.61 238.944ZM1180.87 250.208V221.856C1180.87 220.704 1181.68 220.128 1183.3 220.128C1183.94 220.128 1184.48 220.277 1184.9 220.576C1185.37 220.875 1185.61 221.301 1185.61 221.856V229.856C1187.23 226.357 1189.02 223.712 1190.98 221.92C1192.99 220.128 1195.63 219.232 1198.92 219.232C1201.22 219.232 1203.55 219.531 1205.89 220.128C1207.13 220.725 1207.75 221.536 1207.75 222.56C1207.75 223.285 1207.6 223.797 1207.3 224.096C1207 224.395 1206.51 224.587 1205.83 224.672C1203.65 224.16 1201.88 223.904 1200.52 223.904C1197.36 223.904 1194.48 225.461 1191.88 228.576C1189.28 231.691 1187.18 235.744 1185.61 240.736V250.208C1185.61 250.763 1185.37 251.211 1184.9 251.552C1184.43 251.851 1183.88 252 1183.24 252C1181.66 252 1180.87 251.403 1180.87 250.208ZM1212.25 250.336V221.728C1212.25 221.173 1212.46 220.747 1212.89 220.448C1213.36 220.149 1213.91 220 1214.55 220C1216.17 220 1216.98 220.576 1216.98 221.728V226.784C1219.12 224.48 1221.7 222.667 1224.73 221.344C1227.76 219.979 1230.83 219.296 1233.94 219.296C1237.95 219.296 1241.3 220.555 1243.99 223.072C1246.72 225.547 1248.09 228.789 1248.09 232.8C1248.09 233.184 1248.06 235.147 1248.02 238.688C1248.02 242.187 1248.02 246.027 1248.02 250.208C1248.02 250.763 1247.79 251.211 1247.32 251.552C1246.85 251.851 1246.29 252 1245.65 252C1244.08 252 1243.29 251.403 1243.29 250.208V233.376C1243.29 230.347 1242.2 228.021 1240.02 226.4C1237.89 224.779 1235.67 223.968 1233.37 223.968C1230.25 223.968 1227.05 225.013 1223.77 227.104C1220.52 229.152 1218.26 231.755 1216.98 234.912V250.336C1216.98 251.488 1216.17 252.064 1214.55 252.064C1213.91 252.064 1213.36 251.915 1212.89 251.616C1212.46 251.317 1212.25 250.891 1212.25 250.336Z" fill="#515151"/>
</svg>
