<svg width="321" height="176" viewBox="0 0 321 176" fill="none" xmlns="http://www.w3.org/2000/svg">
<path d="M320.5 3.74849V161.112C320.284 162.373 320.14 162.866 320.14 161.935C320.14 155.193 319.095 170.43 319.095 175.089C319.095 174.048 308.036 173.171 308.036 170.979C308.036 173.335 300.435 163.524 300.435 163.634C300.435 167.251 289.772 169.937 289.772 167.799C289.772 170.047 282.999 156.125 282.999 156.344C282.999 158.756 274.029 154.645 274.029 153.713C274.029 158.043 264.879 156.399 264.879 154.261C264.879 157.495 256.017 153 256.017 151.904C256.017 160.619 247.336 154.206 247.336 155.467C247.336 155.522 239.158 158.92 239.158 159.907C239.158 158.153 230.512 164.346 230.512 162.812C230.512 163.25 221.218 161.88 221.218 160.619C221.218 160.126 210.735 160.181 210.735 158.536C210.735 158.207 200.504 167.361 200.504 169.225C200.504 168.622 189.913 175.309 189.913 171.472C189.913 172.294 178.17 166.429 178.17 166.703C178.17 160.455 170.136 168.622 170.136 167.251C170.136 166.429 161.707 169.005 161.707 167.909C161.707 173.993 152.665 175.254 152.665 169.499C152.665 168.841 146.685 155.631 146.685 155.686C146.685 162.263 138.652 144.943 138.652 151.685C138.652 152.233 130.114 151.794 130.114 149.383C130.114 149.931 121.18 153.494 121.18 151.849C121.18 150.808 113.003 155.576 113.003 153.932C113.003 153.932 104.681 149.492 104.681 145.875C104.681 148.122 96.5756 149.383 96.5756 151.137C96.5756 145.436 88.7585 142.476 88.7585 146.258C88.7585 143.079 80.2568 149.986 80.2568 148.451C80.2568 149.054 73.7365 134.912 73.7365 141.271C73.7365 139.462 66.8199 130.911 66.8199 133.707C66.8199 139.846 57.7059 136.009 57.7059 132.336C57.7059 124.279 48.6639 146.368 48.6639 138.366C48.6639 137.05 47.6552 154.316 47.6552 153C47.6552 154.754 39.5859 161.606 39.5859 157.166C39.5859 152.617 32.165 148.451 32.165 147.958C32.165 148.725 21.9342 166.703 21.9342 158.865C21.9342 158.591 9.97428 160.4 9.97428 157.879C9.97428 153.658 2.55336 157.988 0.5 160.235V12.5183C1.47264 10.7644 2.22915 9.5037 2.22915 10.0518C2.22915 15.0945 9.8662 17.3417 9.8662 19.5342C9.8662 17.7802 20.2411 26.1664 20.2411 18.712C20.2411 12.628 29.2831 21.8911 29.2831 28.4685C29.2831 33.5112 39.5138 27.5367 39.5138 27.0982C39.5138 29.9484 47.7993 18.5476 47.7993 16.3003C47.7993 21.5074 56.9134 16.0263 56.9134 12.0798C56.9134 19.3698 65.487 -2.22597 65.487 0.29536C65.487 -2.11635 76.1141 20.0823 76.1141 9.22964C76.1141 5.50246 85.6604 8.73634 85.6604 14.7656C85.6604 7.74973 94.0179 24.4124 94.0179 19.3698C94.0179 13.6694 103.708 17.5062 103.708 23.371C103.708 16.7388 112.21 17.9995 112.21 23.3162C112.21 23.4258 120.64 24.5221 120.64 28.7974C120.64 25.5087 129.177 30.3321 129.177 28.3041C129.177 25.4539 137.679 25.1798 137.679 26.3308C137.679 32.0861 146.253 21.1786 146.253 21.1237C146.253 12.9568 154.718 29.1262 154.718 27.7559C154.718 21.343 163.22 33.1275 163.22 25.6731C163.22 26.6597 173.198 21.2334 173.198 22.0555C173.198 16.8484 180.944 21.2334 180.944 14.8204C180.944 15.0945 190.382 12.8472 190.382 9.55851C190.382 2.43301 200.649 9.44889 200.649 8.29784C200.649 9.55851 210.159 8.51709 210.159 12.7376C210.159 12.2991 219.345 23.9191 219.345 21.1786C219.345 24.3028 231.017 27.6463 231.017 17.6158C231.017 14.7656 238.005 11.4221 238.005 10.5999C238.005 9.77776 245.714 17.2321 245.714 3.85811C245.714 8.95558 254.288 7.69492 254.288 7.64011C254.288 1.66565 262.285 9.33926 262.285 10.874C262.285 12.4087 270.859 8.13341 270.859 8.62671C270.859 4.24179 278.46 7.31124 278.46 13.9434C278.46 15.807 288.006 22.5488 288.006 18.9313C288.006 21.617 297.769 32.9082 297.769 23.2066C297.769 20.0275 307.387 26.276 307.387 19.1505C307.387 25.3442 315.889 14.6012 315.889 9.12002C315.889 5.06397 318.194 3.8033 320.5 3.74849Z" fill="#FCE3E7"/>
<path d="M10.8736 63.3094C10.8736 63.0027 10.9669 62.7227 11.1536 62.4694C11.3536 62.216 11.6603 62.0894 12.0736 62.0894C12.8603 62.0894 13.2536 62.6294 13.2536 63.7094C13.2536 64.3627 13.1136 65.036 12.8336 65.7294C12.5669 66.4094 12.3136 66.7494 12.0736 66.7494C11.9003 66.7494 11.7936 66.636 11.7536 66.4094C11.7136 66.1694 11.6803 65.856 11.6536 65.4694C11.6269 65.0827 11.5469 64.776 11.4136 64.5494C11.3736 64.4694 11.3069 64.3694 11.2136 64.2494C11.1336 64.1294 11.0736 64.036 11.0336 63.9694C10.9936 63.8894 10.9536 63.796 10.9136 63.6894C10.8869 63.5694 10.8736 63.4427 10.8736 63.3094ZM14.8736 63.3094C14.8736 63.0027 14.9669 62.7227 15.1536 62.4694C15.3536 62.216 15.6603 62.0894 16.0736 62.0894C16.8603 62.0894 17.2536 62.6294 17.2536 63.7094C17.2536 64.3627 17.1136 65.036 16.8336 65.7294C16.5669 66.4094 16.3136 66.7494 16.0736 66.7494C15.9003 66.7494 15.7936 66.636 15.7536 66.4094C15.7136 66.1694 15.6803 65.856 15.6536 65.4694C15.6269 65.0827 15.5469 64.776 15.4136 64.5494C15.3736 64.4694 15.3069 64.3694 15.2136 64.2494C15.1336 64.1294 15.0736 64.036 15.0336 63.9694C14.9936 63.8894 14.9536 63.796 14.9136 63.6894C14.8869 63.5694 14.8736 63.4427 14.8736 63.3094ZM18.5125 62.8094C18.5125 62.6094 18.5592 62.4427 18.6525 62.3094C18.7458 62.1627 18.8792 62.0894 19.0525 62.0894H28.9325C29.1058 62.0894 29.2392 62.1627 29.3325 62.3094C29.4392 62.456 29.4925 62.6294 29.4925 62.8294C29.4925 63.3227 29.3058 63.5694 28.9325 63.5694H24.6125V75.5294C24.6125 75.7027 24.5392 75.8427 24.3925 75.9494C24.2458 76.0427 24.0725 76.0894 23.8725 76.0894C23.3792 76.0894 23.1325 75.9027 23.1325 75.5294V63.5694H19.0525C18.6925 63.5694 18.5125 63.316 18.5125 62.8094ZM30.8992 75.5694V61.6094C30.8992 61.436 30.9659 61.3027 31.0992 61.2094C31.2459 61.116 31.4192 61.0694 31.6192 61.0694C32.1259 61.0694 32.3792 61.2494 32.3792 61.6094V68.2494C33.0326 67.556 33.8326 67.0094 34.7792 66.6094C35.7259 66.2094 36.6926 66.0094 37.6792 66.0094C38.9459 66.0094 39.9992 66.3827 40.8392 67.1294C41.6792 67.8627 42.0992 68.8494 42.0992 70.0894C42.0992 70.2094 42.0926 70.8227 42.0792 71.9294C42.0792 73.0227 42.0792 74.2227 42.0792 75.5294C42.0792 75.7027 42.0059 75.8427 41.8592 75.9494C41.7126 76.0427 41.5392 76.0894 41.3392 76.0894C40.8459 76.0894 40.5992 75.9027 40.5992 75.5294V70.2694C40.5992 69.616 40.4126 69.0694 40.0392 68.6294C39.6792 68.176 39.2792 67.8694 38.8392 67.7094C38.3992 67.5494 37.9526 67.4694 37.4992 67.4694C36.5126 67.4694 35.5059 67.776 34.4792 68.3894C33.4659 69.0027 32.7659 69.7894 32.3792 70.7494V75.5694C32.3792 75.9294 32.1259 76.1094 31.6192 76.1094C31.4192 76.1094 31.2459 76.0627 31.0992 75.9694C30.9659 75.876 30.8992 75.7427 30.8992 75.5694ZM43.9163 70.8094C43.9163 69.956 44.1029 69.196 44.4762 68.5294C44.8496 67.8627 45.3429 67.336 45.9563 66.9494C46.5696 66.5627 47.2296 66.276 47.9363 66.0894C48.6429 65.8894 49.3629 65.7894 50.0963 65.7894C51.4029 65.7894 52.4163 66.076 53.1363 66.6494C53.8563 67.2094 54.2163 67.9027 54.2163 68.7294C54.2163 69.6227 53.7963 70.3827 52.9563 71.0094C52.1163 71.636 50.9229 71.9494 49.3763 71.9494C47.9896 71.9494 46.6696 71.7494 45.4163 71.3494C45.5629 72.336 46.0229 73.1627 46.7963 73.8294C47.5696 74.496 48.5229 74.8294 49.6563 74.8294C50.2563 74.8294 50.8763 74.736 51.5163 74.5494C52.1696 74.3627 52.6829 74.096 53.0563 73.7494C53.1096 73.6427 53.2163 73.5894 53.3763 73.5894C53.5629 73.5894 53.7629 73.676 53.9763 73.8494C54.1896 74.0094 54.2963 74.176 54.2963 74.3494C53.9629 75.0294 53.3096 75.5294 52.3363 75.8494C51.3763 76.156 50.4429 76.3094 49.5363 76.3094C47.8963 76.3094 46.5496 75.7694 45.4963 74.6894C44.4429 73.6094 43.9163 72.316 43.9163 70.8094ZM45.4963 69.8094C46.4963 70.2494 47.7363 70.4694 49.2163 70.4694C50.3763 70.4694 51.2563 70.2894 51.8563 69.9294C52.4563 69.556 52.7563 69.1427 52.7563 68.6894C52.7563 68.2894 52.5029 67.956 51.9963 67.6894C51.5029 67.4094 50.7629 67.2694 49.7763 67.2694C48.7096 67.2694 47.8163 67.5094 47.0963 67.9894C46.3896 68.456 45.8563 69.0627 45.4963 69.8094ZM61.0945 75.5294V61.6094C61.0945 61.2627 61.3479 61.0894 61.8545 61.0894C62.3345 61.0894 62.5745 61.2627 62.5745 61.6094V67.0694C63.4012 66.2827 64.3679 65.8894 65.4745 65.8894C67.2479 65.8894 68.8345 66.536 70.2345 67.8294C71.6345 69.1227 72.3345 70.6627 72.3345 72.4494C72.3345 73.4227 71.9679 74.3027 71.2345 75.0894C70.5012 75.8627 69.6545 76.2494 68.6945 76.2494C67.6545 76.2494 66.6412 75.936 65.6545 75.3094C64.6812 74.6827 63.6545 73.6694 62.5745 72.2694V75.5294C62.5745 75.7027 62.5012 75.8427 62.3545 75.9494C62.2079 76.0427 62.0345 76.0894 61.8345 76.0894C61.3412 76.0894 61.0945 75.9027 61.0945 75.5294ZM62.8945 69.4894C62.8945 69.9694 63.1879 70.636 63.7745 71.4894C64.3745 72.3294 65.1212 73.096 66.0145 73.7894C66.9079 74.4694 67.7012 74.8094 68.3945 74.8094C68.9945 74.8094 69.5612 74.616 70.0945 74.2294C70.6279 73.8294 70.8945 73.2494 70.8945 72.4894C70.8945 71.116 70.3612 69.9094 69.2945 68.8694C68.2279 67.816 67.0412 67.2894 65.7345 67.2894C65.5479 67.2894 65.3145 67.3294 65.0345 67.4094C64.7545 67.476 64.4412 67.5827 64.0945 67.7294C63.7612 67.876 63.4745 68.1094 63.2345 68.4294C63.0079 68.736 62.8945 69.0894 62.8945 69.4894ZM73.8577 70.8094C73.8577 69.956 74.0443 69.196 74.4177 68.5294C74.791 67.8627 75.2843 67.336 75.8977 66.9494C76.511 66.5627 77.171 66.276 77.8777 66.0894C78.5843 65.8894 79.3043 65.7894 80.0377 65.7894C81.3443 65.7894 82.3577 66.076 83.0777 66.6494C83.7977 67.2094 84.1577 67.9027 84.1577 68.7294C84.1577 69.6227 83.7377 70.3827 82.8977 71.0094C82.0577 71.636 80.8643 71.9494 79.3177 71.9494C77.931 71.9494 76.611 71.7494 75.3577 71.3494C75.5043 72.336 75.9643 73.1627 76.7377 73.8294C77.511 74.496 78.4643 74.8294 79.5977 74.8294C80.1977 74.8294 80.8177 74.736 81.4577 74.5494C82.111 74.3627 82.6243 74.096 82.9977 73.7494C83.051 73.6427 83.1577 73.5894 83.3177 73.5894C83.5043 73.5894 83.7043 73.676 83.9177 73.8494C84.131 74.0094 84.2377 74.176 84.2377 74.3494C83.9043 75.0294 83.251 75.5294 82.2777 75.8494C81.3177 76.156 80.3843 76.3094 79.4777 76.3094C77.8377 76.3094 76.491 75.7694 75.4377 74.6894C74.3843 73.6094 73.8577 72.316 73.8577 70.8094ZM75.4377 69.8094C76.4377 70.2494 77.6777 70.4694 79.1577 70.4694C80.3177 70.4694 81.1977 70.2894 81.7977 69.9294C82.3977 69.556 82.6977 69.1427 82.6977 68.6894C82.6977 68.2894 82.4443 67.956 81.9377 67.6894C81.4443 67.4094 80.7043 67.2694 79.7177 67.2694C78.651 67.2694 77.7577 67.5094 77.0377 67.9894C76.331 68.456 75.7977 69.0627 75.4377 69.8094ZM85.7917 74.1894C85.7917 74.016 85.8651 73.8294 86.0117 73.6294C86.1717 73.4294 86.3517 73.3027 86.5517 73.2494C86.6451 73.2494 86.6917 73.2627 86.6917 73.2894C87.1184 73.756 87.7317 74.1227 88.5317 74.3894C89.3317 74.6427 89.9584 74.7894 90.4117 74.8294C90.8784 74.8694 91.3117 74.8894 91.7117 74.8894C93.4451 74.8894 94.3117 74.3627 94.3117 73.3094C94.3117 72.9494 94.1784 72.6627 93.9117 72.4494C93.6584 72.2227 93.3051 72.0694 92.8517 71.9894C92.4117 71.9094 91.9651 71.856 91.5117 71.8294C91.0584 71.8027 90.5651 71.7827 90.0317 71.7694C89.4984 71.7427 89.0917 71.7027 88.8117 71.6494C88.0517 71.5027 87.3784 71.196 86.7917 70.7294C86.2051 70.2494 85.9117 69.6894 85.9117 69.0494C85.9117 68.036 86.4184 67.2627 87.4317 66.7294C88.4584 66.1827 89.5851 65.9094 90.8117 65.9094C91.6384 65.9094 92.5251 66.056 93.4717 66.3494C94.4184 66.6294 95.1251 67.0694 95.5917 67.6694C95.6051 67.696 95.6117 67.7294 95.6117 67.7694C95.6117 67.9427 95.5317 68.1494 95.3717 68.3894C95.2117 68.616 95.0584 68.7294 94.9117 68.7294C94.7784 68.7294 94.6451 68.6227 94.5117 68.4094C93.8717 67.7294 92.5984 67.3894 90.6917 67.3894C89.9051 67.3894 89.1584 67.5227 88.4517 67.7894C87.7451 68.056 87.3917 68.4494 87.3917 68.9694C87.3917 69.4094 87.6984 69.7427 88.3117 69.9694C88.9251 70.1827 89.5784 70.2894 90.2717 70.2894C90.7651 70.2894 91.1784 70.296 91.5117 70.3094C91.8451 70.3227 92.2517 70.3627 92.7317 70.4294C93.2117 70.4827 93.6117 70.5827 93.9317 70.7294C94.2517 70.8627 94.5651 71.0427 94.8717 71.2694C95.1784 71.4827 95.4051 71.776 95.5517 72.1494C95.7117 72.5094 95.7917 72.936 95.7917 73.4294C95.7917 74.1094 95.5784 74.6827 95.1517 75.1494C94.7384 75.6027 94.2584 75.916 93.7117 76.0894C93.1784 76.276 92.6117 76.3694 92.0117 76.3694C89.1984 76.3694 87.1717 75.7694 85.9317 74.5694C85.8384 74.476 85.7917 74.3494 85.7917 74.1894ZM97.1338 66.8294C97.1338 66.6294 97.1804 66.456 97.2738 66.3094C97.3804 66.1627 97.5204 66.0894 97.6938 66.0894H98.3738V63.6294C98.3738 63.456 98.4404 63.3227 98.5738 63.2294C98.7204 63.136 98.8938 63.0894 99.0938 63.0894C99.6004 63.0894 99.8538 63.2694 99.8538 63.6294V66.0894H103.054C103.227 66.0894 103.36 66.1627 103.454 66.3094C103.547 66.4427 103.594 66.6094 103.594 66.8094C103.594 67.316 103.414 67.5694 103.054 67.5694H99.8538V72.3494C99.8538 73.8427 100.42 74.5894 101.554 74.5894C102.034 74.5894 102.447 74.456 102.794 74.1894C103.154 73.9227 103.334 73.456 103.334 72.7894C103.334 72.6027 103.407 72.4494 103.554 72.3294C103.714 72.2094 103.9 72.1494 104.114 72.1494C104.314 72.1494 104.48 72.2094 104.614 72.3294C104.747 72.436 104.814 72.596 104.814 72.8094C104.8 73.8627 104.48 74.6694 103.854 75.2294C103.24 75.7894 102.474 76.0694 101.554 76.0694C99.4338 76.0694 98.3738 74.6494 98.3738 71.8094V67.5694H97.6938C97.3204 67.5694 97.1338 67.3227 97.1338 66.8294ZM110.513 66.8294C110.513 66.6294 110.559 66.456 110.653 66.3094C110.759 66.1627 110.899 66.0894 111.073 66.0894H111.753V63.6294C111.753 63.456 111.819 63.3227 111.953 63.2294C112.099 63.136 112.273 63.0894 112.473 63.0894C112.979 63.0894 113.233 63.2694 113.233 63.6294V66.0894H116.433C116.606 66.0894 116.739 66.1627 116.833 66.3094C116.926 66.4427 116.973 66.6094 116.973 66.8094C116.973 67.316 116.793 67.5694 116.433 67.5694H113.233V72.3494C113.233 73.8427 113.799 74.5894 114.933 74.5894C115.413 74.5894 115.826 74.456 116.173 74.1894C116.533 73.9227 116.713 73.456 116.713 72.7894C116.713 72.6027 116.786 72.4494 116.933 72.3294C117.093 72.2094 117.279 72.1494 117.493 72.1494C117.693 72.1494 117.859 72.2094 117.993 72.3294C118.126 72.436 118.193 72.596 118.193 72.8094C118.179 73.8627 117.859 74.6694 117.233 75.2294C116.619 75.7894 115.853 76.0694 114.933 76.0694C112.813 76.0694 111.753 74.6494 111.753 71.8094V67.5694H111.073C110.699 67.5694 110.513 67.3227 110.513 66.8294ZM119.727 75.5694V61.6094C119.727 61.436 119.794 61.3027 119.927 61.2094C120.074 61.116 120.247 61.0694 120.447 61.0694C120.954 61.0694 121.207 61.2494 121.207 61.6094V68.2494C121.861 67.556 122.661 67.0094 123.607 66.6094C124.554 66.2094 125.521 66.0094 126.507 66.0094C127.774 66.0094 128.827 66.3827 129.667 67.1294C130.507 67.8627 130.927 68.8494 130.927 70.0894C130.927 70.2094 130.921 70.8227 130.907 71.9294C130.907 73.0227 130.907 74.2227 130.907 75.5294C130.907 75.7027 130.834 75.8427 130.687 75.9494C130.541 76.0427 130.367 76.0894 130.167 76.0894C129.674 76.0894 129.427 75.9027 129.427 75.5294V70.2694C129.427 69.616 129.241 69.0694 128.867 68.6294C128.507 68.176 128.107 67.8694 127.667 67.7094C127.227 67.5494 126.781 67.4694 126.327 67.4694C125.341 67.4694 124.334 67.776 123.307 68.3894C122.294 69.0027 121.594 69.7894 121.207 70.7494V75.5694C121.207 75.9294 120.954 76.1094 120.447 76.1094C120.247 76.1094 120.074 76.0627 119.927 75.9694C119.794 75.876 119.727 75.7427 119.727 75.5694ZM133.184 75.5294V66.6294C133.184 66.2694 133.438 66.0894 133.944 66.0894C134.144 66.0894 134.311 66.136 134.444 66.2294C134.591 66.3227 134.664 66.456 134.664 66.6294V75.5294C134.664 75.7027 134.591 75.8427 134.444 75.9494C134.298 76.0427 134.124 76.0894 133.924 76.0894C133.431 76.0894 133.184 75.9027 133.184 75.5294ZM133.184 63.5294V63.1694C133.184 62.8094 133.438 62.6294 133.944 62.6294C134.144 62.6294 134.311 62.676 134.444 62.7694C134.591 62.8627 134.664 62.996 134.664 63.1694V63.5294C134.664 63.7027 134.591 63.8427 134.444 63.9494C134.298 64.0427 134.124 64.0894 133.924 64.0894C133.431 64.0894 133.184 63.9027 133.184 63.5294ZM137.071 75.5694V66.6294C137.071 66.456 137.138 66.3227 137.271 66.2294C137.418 66.136 137.591 66.0894 137.791 66.0894C138.298 66.0894 138.551 66.2694 138.551 66.6294V68.2094C139.218 67.4894 140.024 66.9227 140.971 66.5094C141.918 66.0827 142.878 65.8694 143.851 65.8694C145.104 65.8694 146.151 66.2627 146.991 67.0494C147.844 67.8227 148.271 68.836 148.271 70.0894C148.271 70.2094 148.264 70.8227 148.251 71.9294C148.251 73.0227 148.251 74.2227 148.251 75.5294C148.251 75.7027 148.178 75.8427 148.031 75.9494C147.884 76.0427 147.711 76.0894 147.511 76.0894C147.018 76.0894 146.771 75.9027 146.771 75.5294V70.2694C146.771 69.3227 146.431 68.596 145.751 68.0894C145.084 67.5827 144.391 67.3294 143.671 67.3294C142.698 67.3294 141.698 67.656 140.671 68.3094C139.658 68.9494 138.951 69.7627 138.551 70.7494V75.5694C138.551 75.9294 138.298 76.1094 137.791 76.1094C137.591 76.1094 137.418 76.0627 137.271 75.9694C137.138 75.876 137.071 75.7427 137.071 75.5694ZM150.088 72.4494C150.088 70.6627 150.788 69.1227 152.188 67.8294C153.588 66.536 155.175 65.8894 156.948 65.8894C158.055 65.8894 159.021 66.2827 159.848 67.0694V66.6094C159.848 66.2494 160.101 66.0694 160.608 66.0694C160.808 66.0694 160.975 66.116 161.108 66.2094C161.255 66.3027 161.328 66.436 161.328 66.6094V76.1894C161.328 77.7494 160.821 78.9694 159.808 79.8494C158.795 80.7427 157.615 81.1894 156.268 81.1894C155.201 81.1894 154.308 81.0027 153.588 80.6294C152.868 80.256 152.501 79.636 152.488 78.7694C152.488 78.556 152.555 78.3894 152.688 78.2694C152.821 78.1627 152.988 78.1094 153.188 78.1094C153.401 78.1094 153.581 78.1694 153.728 78.2894C153.888 78.4094 153.968 78.5627 153.968 78.7494C153.968 78.976 154.028 79.156 154.148 79.2894C154.281 79.436 154.488 79.536 154.768 79.5894C155.048 79.6427 155.288 79.676 155.488 79.6894C155.701 79.7027 155.995 79.7094 156.368 79.7094C157.315 79.7094 158.128 79.4227 158.808 78.8494C159.501 78.276 159.848 77.436 159.848 76.3294V72.2694C158.768 73.6694 157.735 74.6827 156.748 75.3094C155.775 75.936 154.768 76.2494 153.728 76.2494C152.768 76.2494 151.921 75.8627 151.188 75.0894C150.455 74.3027 150.088 73.4227 150.088 72.4494ZM151.528 72.4894C151.528 73.2494 151.795 73.8294 152.328 74.2294C152.861 74.616 153.428 74.8094 154.028 74.8094C154.721 74.8094 155.515 74.4694 156.408 73.7894C157.301 73.096 158.041 72.3294 158.628 71.4894C159.228 70.636 159.528 69.9694 159.528 69.4894C159.528 69.0894 159.408 68.736 159.168 68.4294C158.941 68.1094 158.655 67.876 158.308 67.7294C157.975 67.5827 157.668 67.476 157.388 67.4094C157.108 67.3294 156.875 67.2894 156.688 67.2894C155.381 67.2894 154.195 67.816 153.128 68.8694C152.061 69.9094 151.528 71.116 151.528 72.4894ZM167.895 66.8294C167.895 66.6294 167.942 66.456 168.035 66.3094C168.142 66.1627 168.282 66.0894 168.455 66.0894H169.135V63.6294C169.135 63.456 169.202 63.3227 169.335 63.2294C169.482 63.136 169.655 63.0894 169.855 63.0894C170.362 63.0894 170.615 63.2694 170.615 63.6294V66.0894H173.815C173.989 66.0894 174.122 66.1627 174.215 66.3094C174.309 66.4427 174.355 66.6094 174.355 66.8094C174.355 67.316 174.175 67.5694 173.815 67.5694H170.615V72.3494C170.615 73.8427 171.182 74.5894 172.315 74.5894C172.795 74.5894 173.209 74.456 173.555 74.1894C173.915 73.9227 174.095 73.456 174.095 72.7894C174.095 72.6027 174.169 72.4494 174.315 72.3294C174.475 72.2094 174.662 72.1494 174.875 72.1494C175.075 72.1494 175.242 72.2094 175.375 72.3294C175.509 72.436 175.575 72.596 175.575 72.8094C175.562 73.8627 175.242 74.6694 174.615 75.2294C174.002 75.7894 173.235 76.0694 172.315 76.0694C170.195 76.0694 169.135 74.6494 169.135 71.8094V67.5694H168.455C168.082 67.5694 167.895 67.3227 167.895 66.8294ZM176.67 71.1294C176.67 69.9827 176.97 68.996 177.57 68.1694C178.183 67.3294 178.917 66.7227 179.77 66.3494C180.637 65.976 181.543 65.7894 182.49 65.7894C183.823 65.7894 185.05 66.296 186.17 67.3094C187.303 68.3094 187.87 69.576 187.87 71.1094C187.87 72.5627 187.37 73.8094 186.37 74.8494C185.37 75.876 184.063 76.3894 182.45 76.3894C180.863 76.3894 179.503 75.876 178.37 74.8494C177.237 73.8094 176.67 72.5694 176.67 71.1294ZM178.15 71.1494C178.15 72.096 178.583 72.9627 179.45 73.7494C180.317 74.5227 181.323 74.9094 182.47 74.9094C183.55 74.9094 184.47 74.516 185.23 73.7294C186.003 72.9427 186.39 72.0694 186.39 71.1094C186.39 70.176 186.023 69.3027 185.29 68.4894C184.557 67.676 183.61 67.2694 182.45 67.2694C181.09 67.2694 180.03 67.6827 179.27 68.5094C178.523 69.336 178.15 70.216 178.15 71.1494ZM194.649 75.5694V61.6094C194.649 61.436 194.716 61.3027 194.849 61.2094C194.996 61.116 195.169 61.0694 195.369 61.0694C195.876 61.0694 196.129 61.2494 196.129 61.6094V68.2494C196.783 67.556 197.583 67.0094 198.529 66.6094C199.476 66.2094 200.443 66.0094 201.429 66.0094C202.696 66.0094 203.749 66.3827 204.589 67.1294C205.429 67.8627 205.849 68.8494 205.849 70.0894C205.849 70.2094 205.843 70.8227 205.829 71.9294C205.829 73.0227 205.829 74.2227 205.829 75.5294C205.829 75.7027 205.756 75.8427 205.609 75.9494C205.463 76.0427 205.289 76.0894 205.089 76.0894C204.596 76.0894 204.349 75.9027 204.349 75.5294V70.2694C204.349 69.616 204.163 69.0694 203.789 68.6294C203.429 68.176 203.029 67.8694 202.589 67.7094C202.149 67.5494 201.703 67.4694 201.249 67.4694C200.263 67.4694 199.256 67.776 198.229 68.3894C197.216 69.0027 196.516 69.7894 196.129 70.7494V75.5694C196.129 75.9294 195.876 76.1094 195.369 76.1094C195.169 76.1094 194.996 76.0627 194.849 75.9694C194.716 75.876 194.649 75.7427 194.649 75.5694ZM207.666 71.1294C207.666 69.9827 207.966 68.996 208.566 68.1694C209.18 67.3294 209.913 66.7227 210.766 66.3494C211.633 65.976 212.54 65.7894 213.486 65.7894C214.82 65.7894 216.046 66.296 217.166 67.3094C218.3 68.3094 218.866 69.576 218.866 71.1094C218.866 72.5627 218.366 73.8094 217.366 74.8494C216.366 75.876 215.06 76.3894 213.446 76.3894C211.86 76.3894 210.5 75.876 209.366 74.8494C208.233 73.8094 207.666 72.5694 207.666 71.1294ZM209.146 71.1494C209.146 72.096 209.58 72.9627 210.446 73.7494C211.313 74.5227 212.32 74.9094 213.466 74.9094C214.546 74.9094 215.466 74.516 216.226 73.7294C217 72.9427 217.386 72.0694 217.386 71.1094C217.386 70.176 217.02 69.3027 216.286 68.4894C215.553 67.676 214.606 67.2694 213.446 67.2694C212.086 67.2694 211.026 67.6827 210.266 68.5094C209.52 69.336 209.146 70.216 209.146 71.1494ZM220.821 75.5294V61.6294C220.821 61.2694 221.074 61.0894 221.581 61.0894C221.781 61.0894 221.948 61.136 222.081 61.2294C222.228 61.3227 222.301 61.456 222.301 61.6294V75.5294C222.301 75.7027 222.228 75.8427 222.081 75.9494C221.934 76.0427 221.761 76.0894 221.561 76.0894C221.068 76.0894 220.821 75.9027 220.821 75.5294ZM224.268 72.4494C224.268 70.6627 224.968 69.1227 226.368 67.8294C227.768 66.536 229.354 65.8894 231.128 65.8894C232.234 65.8894 233.201 66.2827 234.028 67.0694V61.6094C234.028 61.2627 234.268 61.0894 234.748 61.0894C235.254 61.0894 235.508 61.2627 235.508 61.6094V75.5294C235.508 75.9027 235.261 76.0894 234.768 76.0894C234.568 76.0894 234.394 76.0427 234.248 75.9494C234.101 75.8427 234.028 75.7027 234.028 75.5294V72.2694C232.948 73.6694 231.914 74.6827 230.928 75.3094C229.954 75.936 228.948 76.2494 227.908 76.2494C226.948 76.2494 226.101 75.8627 225.368 75.0894C224.634 74.3027 224.268 73.4227 224.268 72.4494ZM225.708 72.4894C225.708 73.2494 225.974 73.8294 226.508 74.2294C227.041 74.616 227.608 74.8094 228.208 74.8094C228.901 74.8094 229.694 74.4694 230.588 73.7894C231.481 73.096 232.221 72.3294 232.808 71.4894C233.408 70.636 233.708 69.9694 233.708 69.4894C233.708 69.0894 233.588 68.736 233.348 68.4294C233.121 68.1094 232.834 67.876 232.488 67.7294C232.154 67.5827 231.848 67.476 231.568 67.4094C231.288 67.3294 231.054 67.2894 230.868 67.2894C229.561 67.2894 228.374 67.816 227.308 68.8694C226.241 69.9094 225.708 71.116 225.708 72.4894ZM242.295 71.1294C242.295 69.9827 242.595 68.996 243.195 68.1694C243.808 67.3294 244.542 66.7227 245.395 66.3494C246.262 65.976 247.168 65.7894 248.115 65.7894C249.448 65.7894 250.675 66.296 251.795 67.3094C252.928 68.3094 253.495 69.576 253.495 71.1094C253.495 72.5627 252.995 73.8094 251.995 74.8494C250.995 75.876 249.688 76.3894 248.075 76.3894C246.488 76.3894 245.128 75.876 243.995 74.8494C242.862 73.8094 242.295 72.5694 242.295 71.1294ZM243.775 71.1494C243.775 72.096 244.208 72.9627 245.075 73.7494C245.942 74.5227 246.948 74.9094 248.095 74.9094C249.175 74.9094 250.095 74.516 250.855 73.7294C251.628 72.9427 252.015 72.0694 252.015 71.1094C252.015 70.176 251.648 69.3027 250.915 68.4894C250.182 67.676 249.235 67.2694 248.075 67.2694C246.715 67.2694 245.655 67.6827 244.895 68.5094C244.148 69.336 243.775 70.216 243.775 71.1494ZM255.45 75.5694V66.6294C255.45 66.456 255.517 66.3227 255.65 66.2294C255.797 66.136 255.97 66.0894 256.17 66.0894C256.677 66.0894 256.93 66.2694 256.93 66.6294V68.2094C257.597 67.4894 258.403 66.9227 259.35 66.5094C260.297 66.0827 261.257 65.8694 262.23 65.8694C263.483 65.8694 264.53 66.2627 265.37 67.0494C266.223 67.8227 266.65 68.836 266.65 70.0894C266.65 70.2094 266.643 70.8227 266.63 71.9294C266.63 73.0227 266.63 74.2227 266.63 75.5294C266.63 75.7027 266.557 75.8427 266.41 75.9494C266.263 76.0427 266.09 76.0894 265.89 76.0894C265.397 76.0894 265.15 75.9027 265.15 75.5294V70.2694C265.15 69.3227 264.81 68.596 264.13 68.0894C263.463 67.5827 262.77 67.3294 262.05 67.3294C261.077 67.3294 260.077 67.656 259.05 68.3094C258.037 68.9494 257.33 69.7627 256.93 70.7494V75.5694C256.93 75.9294 256.677 76.1094 256.17 76.1094C255.97 76.1094 255.797 76.0627 255.65 75.9694C255.517 75.876 255.45 75.7427 255.45 75.5694ZM268.169 66.8294C268.169 66.6294 268.216 66.456 268.309 66.3094C268.416 66.1627 268.556 66.0894 268.729 66.0894H269.409V63.6294C269.409 63.456 269.476 63.3227 269.609 63.2294C269.756 63.136 269.929 63.0894 270.129 63.0894C270.636 63.0894 270.889 63.2694 270.889 63.6294V66.0894H274.089C274.262 66.0894 274.396 66.1627 274.489 66.3094C274.582 66.4427 274.629 66.6094 274.629 66.8094C274.629 67.316 274.449 67.5694 274.089 67.5694H270.889V72.3494C270.889 73.8427 271.456 74.5894 272.589 74.5894C273.069 74.5894 273.482 74.456 273.829 74.1894C274.189 73.9227 274.369 73.456 274.369 72.7894C274.369 72.6027 274.442 72.4494 274.589 72.3294C274.749 72.2094 274.936 72.1494 275.149 72.1494C275.349 72.1494 275.516 72.2094 275.649 72.3294C275.782 72.436 275.849 72.596 275.849 72.8094C275.836 73.8627 275.516 74.6694 274.889 75.2294C274.276 75.7894 273.509 76.0694 272.589 76.0694C270.469 76.0694 269.409 74.6494 269.409 71.8094V67.5694H268.729C268.356 67.5694 268.169 67.3227 268.169 66.8294ZM276.944 71.1294C276.944 69.9827 277.244 68.996 277.844 68.1694C278.457 67.3294 279.19 66.7227 280.044 66.3494C280.91 65.976 281.817 65.7894 282.764 65.7894C284.097 65.7894 285.324 66.296 286.444 67.3094C287.577 68.3094 288.144 69.576 288.144 71.1094C288.144 72.5627 287.644 73.8094 286.644 74.8494C285.644 75.876 284.337 76.3894 282.724 76.3894C281.137 76.3894 279.777 75.876 278.644 74.8494C277.51 73.8094 276.944 72.5694 276.944 71.1294ZM278.424 71.1494C278.424 72.096 278.857 72.9627 279.724 73.7494C280.59 74.5227 281.597 74.9094 282.744 74.9094C283.824 74.9094 284.744 74.516 285.504 73.7294C286.277 72.9427 286.664 72.0694 286.664 71.1094C286.664 70.176 286.297 69.3027 285.564 68.4894C284.83 67.676 283.884 67.2694 282.724 67.2694C281.364 67.2694 280.304 67.6827 279.544 68.5094C278.797 69.336 278.424 70.216 278.424 71.1494ZM294.923 75.5294V66.6294C294.923 66.2694 295.176 66.0894 295.683 66.0894C295.883 66.0894 296.049 66.136 296.183 66.2294C296.329 66.3227 296.403 66.456 296.403 66.6294V75.5294C296.403 75.7027 296.329 75.8427 296.183 75.9494C296.036 76.0427 295.863 76.0894 295.663 76.0894C295.169 76.0894 294.923 75.9027 294.923 75.5294ZM294.923 63.5294V63.1694C294.923 62.8094 295.176 62.6294 295.683 62.6294C295.883 62.6294 296.049 62.676 296.183 62.7694C296.329 62.8627 296.403 62.996 296.403 63.1694V63.5294C296.403 63.7027 296.329 63.8427 296.183 63.9494C296.036 64.0427 295.863 64.0894 295.663 64.0894C295.169 64.0894 294.923 63.9027 294.923 63.5294ZM298.809 75.5694V66.6294C298.809 66.456 298.876 66.3227 299.009 66.2294C299.156 66.136 299.329 66.0894 299.529 66.0894C300.036 66.0894 300.289 66.2694 300.289 66.6294V68.2094C300.956 67.4894 301.763 66.9227 302.709 66.5094C303.656 66.0827 304.616 65.8694 305.589 65.8694C306.843 65.8694 307.889 66.2627 308.729 67.0494C309.583 67.8227 310.009 68.836 310.009 70.0894C310.009 70.2094 310.003 70.8227 309.989 71.9294C309.989 73.0227 309.989 74.2227 309.989 75.5294C309.989 75.7027 309.916 75.8427 309.769 75.9494C309.623 76.0427 309.449 76.0894 309.249 76.0894C308.756 76.0894 308.509 75.9027 308.509 75.5294V70.2694C308.509 69.3227 308.169 68.596 307.489 68.0894C306.823 67.5827 306.129 67.3294 305.409 67.3294C304.436 67.3294 303.436 67.656 302.409 68.3094C301.396 68.9494 300.689 69.7627 300.289 70.7494V75.5694C300.289 75.9294 300.036 76.1094 299.529 76.1094C299.329 76.1094 299.156 76.0627 299.009 75.9694C298.876 75.876 298.809 75.7427 298.809 75.5694ZM72.0613 99.5294V85.6294C72.0613 85.2694 72.3147 85.0894 72.8213 85.0894C73.0213 85.0894 73.188 85.136 73.3213 85.2294C73.468 85.3227 73.5413 85.456 73.5413 85.6294V99.5294C73.5413 99.7027 73.468 99.8427 73.3213 99.9494C73.1747 100.043 73.0013 100.089 72.8013 100.089C72.308 100.089 72.0613 99.9027 72.0613 99.5294ZM75.948 99.5294V90.6294C75.948 90.2694 76.2014 90.0894 76.708 90.0894C76.908 90.0894 77.0747 90.136 77.208 90.2294C77.3547 90.3227 77.428 90.456 77.428 90.6294V99.5294C77.428 99.7027 77.3547 99.8427 77.208 99.9494C77.0614 100.043 76.888 100.089 76.688 100.089C76.1947 100.089 75.948 99.9027 75.948 99.5294ZM75.948 87.5294V87.1694C75.948 86.8094 76.2014 86.6294 76.708 86.6294C76.908 86.6294 77.0747 86.676 77.208 86.7694C77.3547 86.8627 77.428 86.996 77.428 87.1694V87.5294C77.428 87.7027 77.3547 87.8427 77.208 87.9494C77.0614 88.0427 76.888 88.0894 76.688 88.0894C76.1947 88.0894 75.948 87.9027 75.948 87.5294ZM79.2348 91.3294C79.2348 90.836 79.4214 90.5894 79.7948 90.5894H80.4748V89.3494C80.4748 86.5094 81.5348 85.0894 83.6548 85.0894C84.5748 85.0894 85.3481 85.3694 85.9748 85.9294C86.6014 86.4894 86.9214 87.296 86.9348 88.3494C86.9348 88.5627 86.8614 88.7294 86.7148 88.8494C86.5814 88.956 86.4148 89.0094 86.2148 89.0094C86.0014 89.0094 85.8214 88.9494 85.6748 88.8294C85.5281 88.7094 85.4548 88.556 85.4548 88.3694C85.4548 87.7027 85.2748 87.236 84.9148 86.9694C84.5548 86.7027 84.1348 86.5694 83.6548 86.5694C82.5214 86.5694 81.9548 87.316 81.9548 88.8094V90.5894H85.1548C85.5148 90.5894 85.6948 90.8427 85.6948 91.3494C85.6948 91.5494 85.6481 91.7227 85.5548 91.8694C85.4614 92.0027 85.3281 92.0694 85.1548 92.0694H81.9548V99.5294C81.9548 99.8894 81.7014 100.069 81.1948 100.069C80.9948 100.069 80.8214 100.023 80.6748 99.9294C80.5414 99.836 80.4748 99.7027 80.4748 99.5294V92.0694H79.7948C79.6214 92.0694 79.4814 91.996 79.3748 91.8494C79.2814 91.7027 79.2348 91.5294 79.2348 91.3294ZM86.6409 94.8094C86.6409 93.956 86.8275 93.196 87.2009 92.5294C87.5742 91.8627 88.0675 91.336 88.6809 90.9494C89.2942 90.5627 89.9542 90.276 90.6609 90.0894C91.3675 89.8894 92.0875 89.7894 92.8209 89.7894C94.1275 89.7894 95.1409 90.076 95.8609 90.6494C96.5809 91.2094 96.9409 91.9027 96.9409 92.7294C96.9409 93.6227 96.5209 94.3827 95.6809 95.0094C94.8409 95.636 93.6475 95.9494 92.1009 95.9494C90.7142 95.9494 89.3942 95.7494 88.1409 95.3494C88.2875 96.336 88.7475 97.1627 89.5209 97.8294C90.2942 98.496 91.2475 98.8294 92.3809 98.8294C92.9809 98.8294 93.6009 98.736 94.2409 98.5494C94.8942 98.3627 95.4075 98.096 95.7809 97.7494C95.8342 97.6427 95.9409 97.5894 96.1009 97.5894C96.2875 97.5894 96.4875 97.676 96.7009 97.8494C96.9142 98.0094 97.0209 98.176 97.0209 98.3494C96.6875 99.0294 96.0342 99.5294 95.0609 99.8494C94.1009 100.156 93.1675 100.309 92.2609 100.309C90.6209 100.309 89.2742 99.7694 88.2209 98.6894C87.1675 97.6094 86.6409 96.316 86.6409 94.8094ZM88.2209 93.8094C89.2209 94.2494 90.4609 94.4694 91.9409 94.4694C93.1009 94.4694 93.9809 94.2894 94.5809 93.9294C95.1809 93.556 95.4809 93.1427 95.4809 92.6894C95.4809 92.2894 95.2275 91.956 94.7209 91.6894C94.2275 91.4094 93.4875 91.2694 92.5009 91.2694C91.4342 91.2694 90.5409 91.5094 89.8209 91.9894C89.1142 92.456 88.5809 93.0627 88.2209 93.8094ZM103.819 99.5294V90.6294C103.819 90.2694 104.072 90.0894 104.579 90.0894C104.779 90.0894 104.946 90.136 105.079 90.2294C105.226 90.3227 105.299 90.456 105.299 90.6294V99.5294C105.299 99.7027 105.226 99.8427 105.079 99.9494C104.932 100.043 104.759 100.089 104.559 100.089C104.066 100.089 103.819 99.9027 103.819 99.5294ZM103.819 87.5294V87.1694C103.819 86.8094 104.072 86.6294 104.579 86.6294C104.779 86.6294 104.946 86.676 105.079 86.7694C105.226 86.8627 105.299 86.996 105.299 87.1694V87.5294C105.299 87.7027 105.226 87.8427 105.079 87.9494C104.932 88.0427 104.759 88.0894 104.559 88.0894C104.066 88.0894 103.819 87.9027 103.819 87.5294ZM107.286 98.1894C107.286 98.016 107.359 97.8294 107.506 97.6294C107.666 97.4294 107.846 97.3027 108.046 97.2494C108.139 97.2494 108.186 97.2627 108.186 97.2894C108.613 97.756 109.226 98.1227 110.026 98.3894C110.826 98.6427 111.453 98.7894 111.906 98.8294C112.373 98.8694 112.806 98.8894 113.206 98.8894C114.939 98.8894 115.806 98.3627 115.806 97.3094C115.806 96.9494 115.673 96.6627 115.406 96.4494C115.153 96.2227 114.799 96.0694 114.346 95.9894C113.906 95.9094 113.459 95.856 113.006 95.8294C112.553 95.8027 112.059 95.7827 111.526 95.7694C110.993 95.7427 110.586 95.7027 110.306 95.6494C109.546 95.5027 108.873 95.196 108.286 94.7294C107.699 94.2494 107.406 93.6894 107.406 93.0494C107.406 92.036 107.913 91.2627 108.926 90.7294C109.953 90.1827 111.079 89.9094 112.306 89.9094C113.133 89.9094 114.019 90.056 114.966 90.3494C115.913 90.6294 116.619 91.0694 117.086 91.6694C117.099 91.696 117.106 91.7294 117.106 91.7694C117.106 91.9427 117.026 92.1494 116.866 92.3894C116.706 92.616 116.553 92.7294 116.406 92.7294C116.273 92.7294 116.139 92.6227 116.006 92.4094C115.366 91.7294 114.093 91.3894 112.186 91.3894C111.399 91.3894 110.653 91.5227 109.946 91.7894C109.239 92.056 108.886 92.4494 108.886 92.9694C108.886 93.4094 109.193 93.7427 109.806 93.9694C110.419 94.1827 111.073 94.2894 111.766 94.2894C112.259 94.2894 112.673 94.296 113.006 94.3094C113.339 94.3227 113.746 94.3627 114.226 94.4294C114.706 94.4827 115.106 94.5827 115.426 94.7294C115.746 94.8627 116.059 95.0427 116.366 95.2694C116.673 95.4827 116.899 95.776 117.046 96.1494C117.206 96.5094 117.286 96.936 117.286 97.4294C117.286 98.1094 117.073 98.6827 116.646 99.1494C116.233 99.6027 115.753 99.916 115.206 100.089C114.673 100.276 114.106 100.369 113.506 100.369C110.693 100.369 108.666 99.7694 107.426 98.5694C107.333 98.476 107.286 98.3494 107.286 98.1894ZM123.672 94.8094C123.672 93.956 123.859 93.196 124.232 92.5294C124.605 91.8627 125.099 91.336 125.712 90.9494C126.325 90.5627 126.985 90.276 127.692 90.0894C128.399 89.8894 129.119 89.7894 129.852 89.7894C131.159 89.7894 132.172 90.076 132.892 90.6494C133.612 91.2094 133.972 91.9027 133.972 92.7294C133.972 93.6227 133.552 94.3827 132.712 95.0094C131.872 95.636 130.679 95.9494 129.132 95.9494C127.745 95.9494 126.425 95.7494 125.172 95.3494C125.319 96.336 125.779 97.1627 126.552 97.8294C127.325 98.496 128.279 98.8294 129.412 98.8294C130.012 98.8294 130.632 98.736 131.272 98.5494C131.925 98.3627 132.439 98.096 132.812 97.7494C132.865 97.6427 132.972 97.5894 133.132 97.5894C133.319 97.5894 133.519 97.676 133.732 97.8494C133.945 98.0094 134.052 98.176 134.052 98.3494C133.719 99.0294 133.065 99.5294 132.092 99.8494C131.132 100.156 130.199 100.309 129.292 100.309C127.652 100.309 126.305 99.7694 125.252 98.6894C124.199 97.6094 123.672 96.316 123.672 94.8094ZM125.252 93.8094C126.252 94.2494 127.492 94.4694 128.972 94.4694C130.132 94.4694 131.012 94.2894 131.612 93.9294C132.212 93.556 132.512 93.1427 132.512 92.6894C132.512 92.2894 132.259 91.956 131.752 91.6894C131.259 91.4094 130.519 91.2694 129.532 91.2694C128.465 91.2694 127.572 91.5094 126.852 91.9894C126.145 92.456 125.612 93.0627 125.252 93.8094ZM135.586 96.4494C135.586 94.6627 136.286 93.1227 137.686 91.8294C139.086 90.536 140.673 89.8894 142.446 89.8894C143.66 89.8894 144.693 90.3494 145.546 91.2694C146.4 92.1894 146.826 93.236 146.826 94.4094L146.806 99.6494C146.806 99.8227 146.72 99.9627 146.546 100.069C146.386 100.163 146.206 100.209 146.006 100.209C145.566 100.209 145.346 100.023 145.346 99.6494V96.2694C144.266 97.6694 143.233 98.6827 142.246 99.3094C141.273 99.936 140.266 100.249 139.226 100.249C138.266 100.249 137.42 99.8627 136.686 99.0894C135.953 98.3027 135.586 97.4227 135.586 96.4494ZM137.026 96.4894C137.026 97.2494 137.293 97.8294 137.826 98.2294C138.36 98.616 138.926 98.8094 139.526 98.8094C140.22 98.8094 141.013 98.4694 141.906 97.7894C142.8 97.096 143.54 96.3294 144.126 95.4894C144.726 94.636 145.026 93.9694 145.026 93.4894C145.026 93.0894 144.906 92.736 144.666 92.4294C144.44 92.1094 144.153 91.876 143.806 91.7294C143.473 91.5827 143.166 91.476 142.886 91.4094C142.606 91.3294 142.373 91.2894 142.186 91.2894C140.88 91.2894 139.693 91.816 138.626 92.8694C137.56 93.9094 137.026 95.116 137.026 96.4894ZM148.633 95.1294C148.633 93.9827 148.94 92.996 149.553 92.1694C150.166 91.3294 150.906 90.7227 151.773 90.3494C152.64 89.976 153.546 89.7894 154.493 89.7894C155.693 89.7894 156.806 90.2027 157.833 91.0294C157.94 91.1227 157.993 91.2427 157.993 91.3894C157.993 91.6027 157.906 91.8027 157.733 91.9894C157.56 92.1627 157.38 92.2494 157.193 92.2494C157.06 92.2494 156.946 92.2027 156.853 92.1094C156.213 91.5494 155.413 91.2694 154.453 91.2694C153.093 91.2694 152.026 91.6827 151.253 92.5094C150.493 93.336 150.113 94.216 150.113 95.1494C150.113 96.096 150.553 96.9627 151.433 97.7494C152.313 98.5227 153.326 98.9094 154.473 98.9094C155.646 98.9094 156.6 98.4894 157.333 97.6494C157.48 97.5027 157.606 97.4294 157.713 97.4294C157.913 97.4294 158.106 97.5294 158.293 97.7294C158.48 97.9294 158.573 98.1227 158.573 98.3094C158.573 98.4294 158.526 98.536 158.433 98.6294C157.406 99.8027 156.12 100.389 154.573 100.389C152.933 100.389 151.533 99.876 150.373 98.8494C149.213 97.8094 148.633 96.5694 148.633 95.1294ZM160.167 99.5694V85.6094C160.167 85.436 160.233 85.3027 160.367 85.2094C160.513 85.116 160.687 85.0694 160.887 85.0694C161.393 85.0694 161.647 85.2494 161.647 85.6094V92.2494C162.3 91.556 163.1 91.0094 164.047 90.6094C164.993 90.2094 165.96 90.0094 166.947 90.0094C168.213 90.0094 169.267 90.3827 170.107 91.1294C170.947 91.8627 171.367 92.8494 171.367 94.0894C171.367 94.2094 171.36 94.8227 171.347 95.9294C171.347 97.0227 171.347 98.2227 171.347 99.5294C171.347 99.7027 171.273 99.8427 171.127 99.9494C170.98 100.043 170.807 100.089 170.607 100.089C170.113 100.089 169.867 99.9027 169.867 99.5294V94.2694C169.867 93.616 169.68 93.0694 169.307 92.6294C168.947 92.176 168.547 91.8694 168.107 91.7094C167.667 91.5494 167.22 91.4694 166.767 91.4694C165.78 91.4694 164.773 91.776 163.747 92.3894C162.733 93.0027 162.033 93.7894 161.647 94.7494V99.5694C161.647 99.9294 161.393 100.109 160.887 100.109C160.687 100.109 160.513 100.063 160.367 99.9694C160.233 99.876 160.167 99.7427 160.167 99.5694ZM178.008 95.1294C178.008 93.9827 178.308 92.996 178.908 92.1694C179.521 91.3294 180.255 90.7227 181.108 90.3494C181.975 89.976 182.881 89.7894 183.828 89.7894C185.161 89.7894 186.388 90.296 187.508 91.3094C188.641 92.3094 189.208 93.576 189.208 95.1094C189.208 96.5627 188.708 97.8094 187.708 98.8494C186.708 99.876 185.401 100.389 183.788 100.389C182.201 100.389 180.841 99.876 179.708 98.8494C178.575 97.8094 178.008 96.5694 178.008 95.1294ZM179.488 95.1494C179.488 96.096 179.921 96.9627 180.788 97.7494C181.655 98.5227 182.661 98.9094 183.808 98.9094C184.888 98.9094 185.808 98.516 186.568 97.7294C187.341 96.9427 187.728 96.0694 187.728 95.1094C187.728 94.176 187.361 93.3027 186.628 92.4894C185.895 91.676 184.948 91.2694 183.788 91.2694C182.428 91.2694 181.368 91.6827 180.608 92.5094C179.861 93.336 179.488 94.216 179.488 95.1494ZM190.405 90.8294C190.405 90.6294 190.452 90.456 190.545 90.3094C190.652 90.1627 190.792 90.0894 190.965 90.0894H191.645V87.6294C191.645 87.456 191.712 87.3227 191.845 87.2294C191.992 87.136 192.165 87.0894 192.365 87.0894C192.872 87.0894 193.125 87.2694 193.125 87.6294V90.0894H196.325C196.499 90.0894 196.632 90.1627 196.725 90.3094C196.819 90.4427 196.865 90.6094 196.865 90.8094C196.865 91.316 196.685 91.5694 196.325 91.5694H193.125V96.3494C193.125 97.8427 193.692 98.5894 194.825 98.5894C195.305 98.5894 195.719 98.456 196.065 98.1894C196.425 97.9227 196.605 97.456 196.605 96.7894C196.605 96.6027 196.679 96.4494 196.825 96.3294C196.985 96.2094 197.172 96.1494 197.385 96.1494C197.585 96.1494 197.752 96.2094 197.885 96.3294C198.019 96.436 198.085 96.596 198.085 96.8094C198.072 97.8627 197.752 98.6694 197.125 99.2294C196.512 99.7894 195.745 100.069 194.825 100.069C192.705 100.069 191.645 98.6494 191.645 95.8094V91.5694H190.965C190.592 91.5694 190.405 91.3227 190.405 90.8294ZM199.62 99.5694V85.6094C199.62 85.436 199.687 85.3027 199.82 85.2094C199.967 85.116 200.14 85.0694 200.34 85.0694C200.847 85.0694 201.1 85.2494 201.1 85.6094V92.2494C201.753 91.556 202.553 91.0094 203.5 90.6094C204.447 90.2094 205.413 90.0094 206.4 90.0094C207.667 90.0094 208.72 90.3827 209.56 91.1294C210.4 91.8627 210.82 92.8494 210.82 94.0894C210.82 94.2094 210.813 94.8227 210.8 95.9294C210.8 97.0227 210.8 98.2227 210.8 99.5294C210.8 99.7027 210.727 99.8427 210.58 99.9494C210.433 100.043 210.26 100.089 210.06 100.089C209.567 100.089 209.32 99.9027 209.32 99.5294V94.2694C209.32 93.616 209.133 93.0694 208.76 92.6294C208.4 92.176 208 91.8694 207.56 91.7094C207.12 91.5494 206.673 91.4694 206.22 91.4694C205.233 91.4694 204.227 91.776 203.2 92.3894C202.187 93.0027 201.487 93.7894 201.1 94.7494V99.5694C201.1 99.9294 200.847 100.109 200.34 100.109C200.14 100.109 199.967 100.063 199.82 99.9694C199.687 99.876 199.62 99.7427 199.62 99.5694ZM212.637 94.8094C212.637 93.956 212.824 93.196 213.197 92.5294C213.57 91.8627 214.064 91.336 214.677 90.9494C215.29 90.5627 215.95 90.276 216.657 90.0894C217.364 89.8894 218.084 89.7894 218.817 89.7894C220.124 89.7894 221.137 90.076 221.857 90.6494C222.577 91.2094 222.937 91.9027 222.937 92.7294C222.937 93.6227 222.517 94.3827 221.677 95.0094C220.837 95.636 219.644 95.9494 218.097 95.9494C216.71 95.9494 215.39 95.7494 214.137 95.3494C214.284 96.336 214.744 97.1627 215.517 97.8294C216.29 98.496 217.244 98.8294 218.377 98.8294C218.977 98.8294 219.597 98.736 220.237 98.5494C220.89 98.3627 221.404 98.096 221.777 97.7494C221.83 97.6427 221.937 97.5894 222.097 97.5894C222.284 97.5894 222.484 97.676 222.697 97.8494C222.91 98.0094 223.017 98.176 223.017 98.3494C222.684 99.0294 222.03 99.5294 221.057 99.8494C220.097 100.156 219.164 100.309 218.257 100.309C216.617 100.309 215.27 99.7694 214.217 98.6894C213.164 97.6094 212.637 96.316 212.637 94.8094ZM214.217 93.8094C215.217 94.2494 216.457 94.4694 217.937 94.4694C219.097 94.4694 219.977 94.2894 220.577 93.9294C221.177 93.556 221.477 93.1427 221.477 92.6894C221.477 92.2894 221.224 91.956 220.717 91.6894C220.224 91.4094 219.484 91.2694 218.497 91.2694C217.43 91.2694 216.537 91.5094 215.817 91.9894C215.11 92.456 214.577 93.0627 214.217 93.8094ZM224.971 99.5294V90.6694C224.971 90.3094 225.224 90.1294 225.731 90.1294C225.931 90.1294 226.098 90.176 226.231 90.2694C226.378 90.3627 226.451 90.496 226.451 90.6694V93.1694C226.958 92.076 227.518 91.2494 228.131 90.6894C228.758 90.1294 229.584 89.8494 230.611 89.8494C231.331 89.8494 232.058 89.9427 232.791 90.1294C233.178 90.316 233.371 90.5694 233.371 90.8894C233.371 91.116 233.324 91.276 233.231 91.3694C233.138 91.4627 232.984 91.5227 232.771 91.5494C232.091 91.3894 231.538 91.3094 231.111 91.3094C230.124 91.3094 229.224 91.796 228.411 92.7694C227.598 93.7427 226.944 95.0094 226.451 96.5694V99.5294C226.451 99.7027 226.378 99.8427 226.231 99.9494C226.084 100.043 225.911 100.089 225.711 100.089C225.218 100.089 224.971 99.9027 224.971 99.5294ZM233.077 99.0894V98.5294C233.077 98.236 233.197 98.0027 233.437 97.8294C233.69 97.656 234.024 97.5694 234.437 97.5694C234.797 97.5694 235.104 97.656 235.357 97.8294C235.61 97.9894 235.737 98.2227 235.737 98.5294V99.0894C235.737 99.396 235.604 99.6427 235.337 99.8294C235.07 100.003 234.764 100.089 234.417 100.089C234.004 100.089 233.677 100.003 233.437 99.8294C233.197 99.6427 233.077 99.396 233.077 99.0894ZM237.876 87.3094C237.876 87.0027 237.969 86.7227 238.156 86.4694C238.356 86.216 238.662 86.0894 239.076 86.0894C239.862 86.0894 240.256 86.6294 240.256 87.7094C240.256 88.3627 240.116 89.036 239.836 89.7294C239.569 90.4094 239.316 90.7494 239.076 90.7494C238.902 90.7494 238.796 90.636 238.756 90.4094C238.716 90.1694 238.682 89.856 238.656 89.4694C238.629 89.0827 238.549 88.776 238.416 88.5494C238.376 88.4694 238.309 88.3694 238.216 88.2494C238.136 88.1294 238.076 88.036 238.036 87.9694C237.996 87.8894 237.956 87.796 237.916 87.6894C237.889 87.5694 237.876 87.4427 237.876 87.3094ZM241.876 87.3094C241.876 87.0027 241.969 86.7227 242.156 86.4694C242.356 86.216 242.662 86.0894 243.076 86.0894C243.862 86.0894 244.256 86.6294 244.256 87.7094C244.256 88.3627 244.116 89.036 243.836 89.7294C243.569 90.4094 243.316 90.7494 243.076 90.7494C242.902 90.7494 242.796 90.636 242.756 90.4094C242.716 90.1694 242.682 89.856 242.656 89.4694C242.629 89.0827 242.549 88.776 242.416 88.5494C242.376 88.4694 242.309 88.3694 242.216 88.2494C242.136 88.1294 242.076 88.036 242.036 87.9694C241.996 87.8894 241.956 87.796 241.916 87.6894C241.889 87.5694 241.876 87.4427 241.876 87.3094ZM70.4598 118.769C70.4598 118.569 70.5064 118.403 70.5998 118.269C70.6931 118.123 70.8264 118.049 70.9998 118.049H76.8998C77.0731 118.049 77.2064 118.123 77.2998 118.269C77.4064 118.416 77.4598 118.589 77.4598 118.789C77.4598 119.283 77.2731 119.529 76.8998 119.529H70.9998C70.6398 119.529 70.4598 119.276 70.4598 118.769ZM84.1985 123.349C84.1985 123.296 84.2118 123.229 84.2385 123.149L85.5985 119.549H84.7785C84.4185 119.549 84.2385 119.296 84.2385 118.789C84.2385 118.589 84.2852 118.423 84.3785 118.289C84.4718 118.143 84.6052 118.069 84.7785 118.069H86.1585L88.9385 110.789C89.0452 110.576 89.1918 110.409 89.3785 110.289C89.5652 110.156 89.7318 110.089 89.8785 110.089C90.0252 110.089 90.1918 110.156 90.3785 110.289C90.5652 110.423 90.7052 110.589 90.7985 110.789L93.5785 118.069H94.8785C95.0518 118.069 95.1852 118.143 95.2785 118.289C95.3852 118.436 95.4385 118.609 95.4385 118.809C95.4385 119.303 95.2518 119.549 94.8785 119.549H94.1585L95.5385 123.149C95.5652 123.229 95.5785 123.296 95.5785 123.349C95.5785 123.549 95.4785 123.723 95.2785 123.869C95.0785 124.016 94.8785 124.089 94.6785 124.089C94.4652 124.089 94.3052 123.989 94.1985 123.789L92.5785 119.549H87.1985L85.5785 123.789C85.4718 123.989 85.3118 124.089 85.0985 124.089C84.8985 124.089 84.6985 124.016 84.4985 123.869C84.2985 123.723 84.1985 123.549 84.1985 123.349ZM87.7585 118.069H91.9985L89.8785 112.489L87.7585 118.069ZM97.312 120.009C97.312 119.889 97.312 119.296 97.312 118.229C97.3253 117.149 97.332 115.956 97.332 114.649C97.332 114.476 97.4053 114.343 97.552 114.249C97.6986 114.143 97.872 114.089 98.072 114.089C98.5653 114.089 98.812 114.276 98.812 114.649V119.829C98.812 120.776 99.1453 121.516 99.812 122.049C100.492 122.569 101.192 122.829 101.912 122.829C102.819 122.829 103.785 122.503 104.812 121.849C105.852 121.183 106.572 120.356 106.972 119.369V114.629C106.972 114.269 107.225 114.089 107.732 114.089C107.932 114.089 108.099 114.136 108.232 114.229C108.379 114.323 108.452 114.456 108.452 114.629V123.549C108.452 123.723 108.379 123.856 108.232 123.949C108.099 124.043 107.932 124.089 107.732 124.089C107.225 124.089 106.972 123.909 106.972 123.549V121.909C106.305 122.643 105.505 123.223 104.572 123.649C103.652 124.076 102.705 124.289 101.732 124.289C100.479 124.289 99.4253 123.889 98.572 123.089C97.732 122.289 97.312 121.263 97.312 120.009ZM110.41 120.449C110.41 118.663 111.11 117.123 112.51 115.829C113.91 114.536 115.497 113.889 117.27 113.889C118.377 113.889 119.344 114.283 120.17 115.069V109.609C120.17 109.263 120.41 109.089 120.89 109.089C121.397 109.089 121.65 109.263 121.65 109.609V123.529C121.65 123.903 121.404 124.089 120.91 124.089C120.71 124.089 120.537 124.043 120.39 123.949C120.244 123.843 120.17 123.703 120.17 123.529V120.269C119.09 121.669 118.057 122.683 117.07 123.309C116.097 123.936 115.09 124.249 114.05 124.249C113.09 124.249 112.244 123.863 111.51 123.089C110.777 122.303 110.41 121.423 110.41 120.449ZM111.85 120.489C111.85 121.249 112.117 121.829 112.65 122.229C113.184 122.616 113.75 122.809 114.35 122.809C115.044 122.809 115.837 122.469 116.73 121.789C117.624 121.096 118.364 120.329 118.95 119.489C119.55 118.636 119.85 117.969 119.85 117.489C119.85 117.089 119.73 116.736 119.49 116.429C119.264 116.109 118.977 115.876 118.63 115.729C118.297 115.583 117.99 115.476 117.71 115.409C117.43 115.329 117.197 115.289 117.01 115.289C115.704 115.289 114.517 115.816 113.45 116.869C112.384 117.909 111.85 119.116 111.85 120.489ZM124.034 123.529V114.669C124.034 114.309 124.287 114.129 124.794 114.129C124.994 114.129 125.16 114.176 125.294 114.269C125.44 114.363 125.514 114.496 125.514 114.669V117.169C126.02 116.076 126.58 115.249 127.194 114.689C127.82 114.129 128.647 113.849 129.674 113.849C130.394 113.849 131.12 113.943 131.854 114.129C132.24 114.316 132.434 114.569 132.434 114.889C132.434 115.116 132.387 115.276 132.294 115.369C132.2 115.463 132.047 115.523 131.834 115.549C131.154 115.389 130.6 115.309 130.174 115.309C129.187 115.309 128.287 115.796 127.474 116.769C126.66 117.743 126.007 119.009 125.514 120.569V123.529C125.514 123.703 125.44 123.843 125.294 123.949C125.147 124.043 124.974 124.089 124.774 124.089C124.28 124.089 124.034 123.903 124.034 123.529ZM133.145 118.809C133.145 117.956 133.331 117.196 133.705 116.529C134.078 115.863 134.571 115.336 135.185 114.949C135.798 114.563 136.458 114.276 137.165 114.089C137.871 113.889 138.591 113.789 139.325 113.789C140.631 113.789 141.645 114.076 142.365 114.649C143.085 115.209 143.445 115.903 143.445 116.729C143.445 117.623 143.025 118.383 142.185 119.009C141.345 119.636 140.151 119.949 138.605 119.949C137.218 119.949 135.898 119.749 134.645 119.349C134.791 120.336 135.251 121.163 136.025 121.829C136.798 122.496 137.751 122.829 138.885 122.829C139.485 122.829 140.105 122.736 140.745 122.549C141.398 122.363 141.911 122.096 142.285 121.749C142.338 121.643 142.445 121.589 142.605 121.589C142.791 121.589 142.991 121.676 143.205 121.849C143.418 122.009 143.525 122.176 143.525 122.349C143.191 123.029 142.538 123.529 141.565 123.849C140.605 124.156 139.671 124.309 138.765 124.309C137.125 124.309 135.778 123.769 134.725 122.689C133.671 121.609 133.145 120.316 133.145 118.809ZM134.725 117.809C135.725 118.249 136.965 118.469 138.445 118.469C139.605 118.469 140.485 118.289 141.085 117.929C141.685 117.556 141.985 117.143 141.985 116.689C141.985 116.289 141.731 115.956 141.225 115.689C140.731 115.409 139.991 115.269 139.005 115.269C137.938 115.269 137.045 115.509 136.325 115.989C135.618 116.456 135.085 117.063 134.725 117.809ZM145.379 120.009V114.609C145.379 114.436 145.445 114.303 145.579 114.209C145.725 114.103 145.892 114.049 146.079 114.049C146.572 114.049 146.819 114.236 146.819 114.609V119.829C146.819 120.323 146.952 120.763 147.219 121.149C147.485 121.536 147.819 121.829 148.219 122.029C148.632 122.229 149.032 122.383 149.419 122.489C149.819 122.583 150.185 122.629 150.519 122.629C151.465 122.629 152.359 122.336 153.199 121.749C154.039 121.163 154.632 120.383 154.979 119.409V114.609C154.979 114.249 155.232 114.069 155.739 114.069C155.939 114.069 156.105 114.116 156.239 114.209C156.385 114.303 156.459 114.436 156.459 114.609V124.189C156.459 124.976 156.279 125.696 155.919 126.349C155.572 127.016 155.119 127.549 154.559 127.949C153.999 128.349 153.392 128.656 152.739 128.869C152.085 129.083 151.439 129.189 150.799 129.189C149.705 129.189 148.632 128.936 147.579 128.429C146.539 127.923 146.012 127.243 145.999 126.389C145.999 126.176 146.065 126.009 146.199 125.889C146.345 125.783 146.519 125.729 146.719 125.729C146.932 125.729 147.119 125.789 147.279 125.909C147.439 126.029 147.519 126.183 147.519 126.369C147.519 126.796 147.899 127.123 148.659 127.349C149.419 127.589 150.165 127.709 150.899 127.709C151.499 127.709 152.092 127.596 152.679 127.369C153.279 127.156 153.812 126.776 154.279 126.229C154.745 125.696 154.979 125.063 154.979 124.329V122.009C153.765 123.396 152.219 124.089 150.339 124.089C149.032 124.089 147.879 123.716 146.879 122.969C145.879 122.209 145.379 121.223 145.379 120.009ZM163.942 123.529V110.629C163.942 110.269 164.196 110.089 164.702 110.089C164.902 110.089 165.069 110.136 165.202 110.229C165.349 110.323 165.422 110.456 165.422 110.629V115.509H173.902V110.629C173.902 110.269 174.156 110.089 174.662 110.089C174.862 110.089 175.029 110.136 175.162 110.229C175.309 110.323 175.382 110.456 175.382 110.629V123.529C175.382 123.703 175.309 123.843 175.162 123.949C175.016 124.043 174.842 124.089 174.642 124.089C174.149 124.089 173.902 123.903 173.902 123.529V116.989H165.422V123.529C165.422 123.703 165.349 123.843 165.202 123.949C165.056 124.043 164.882 124.089 164.682 124.089C164.189 124.089 163.942 123.903 163.942 123.529ZM177.598 118.809C177.598 117.956 177.785 117.196 178.158 116.529C178.531 115.863 179.025 115.336 179.638 114.949C180.251 114.563 180.911 114.276 181.618 114.089C182.325 113.889 183.045 113.789 183.778 113.789C185.085 113.789 186.098 114.076 186.818 114.649C187.538 115.209 187.898 115.903 187.898 116.729C187.898 117.623 187.478 118.383 186.638 119.009C185.798 119.636 184.605 119.949 183.058 119.949C181.671 119.949 180.351 119.749 179.098 119.349C179.245 120.336 179.705 121.163 180.478 121.829C181.251 122.496 182.205 122.829 183.338 122.829C183.938 122.829 184.558 122.736 185.198 122.549C185.851 122.363 186.365 122.096 186.738 121.749C186.791 121.643 186.898 121.589 187.058 121.589C187.245 121.589 187.445 121.676 187.658 121.849C187.871 122.009 187.978 122.176 187.978 122.349C187.645 123.029 186.991 123.529 186.018 123.849C185.058 124.156 184.125 124.309 183.218 124.309C181.578 124.309 180.231 123.769 179.178 122.689C178.125 121.609 177.598 120.316 177.598 118.809ZM179.178 117.809C180.178 118.249 181.418 118.469 182.898 118.469C184.058 118.469 184.938 118.289 185.538 117.929C186.138 117.556 186.438 117.143 186.438 116.689C186.438 116.289 186.185 115.956 185.678 115.689C185.185 115.409 184.445 115.269 183.458 115.269C182.391 115.269 181.498 115.509 180.778 115.989C180.071 116.456 179.538 117.063 179.178 117.809ZM189.952 128.549V114.649C189.952 114.476 190.025 114.343 190.172 114.249C190.319 114.143 190.492 114.089 190.692 114.089C191.185 114.089 191.432 114.276 191.432 114.649V116.829C192.699 114.896 194.572 113.929 197.052 113.929C198.185 113.929 199.145 114.309 199.932 115.069C200.732 115.816 201.132 116.696 201.132 117.709C201.132 118.896 200.805 119.989 200.152 120.989C199.499 121.976 198.645 122.743 197.592 123.289C196.552 123.836 195.459 124.109 194.312 124.109C193.205 124.109 192.245 123.743 191.432 123.009V128.549C191.432 128.909 191.179 129.089 190.672 129.089C190.472 129.089 190.299 129.043 190.152 128.949C190.019 128.856 189.952 128.723 189.952 128.549ZM191.412 120.149C191.412 120.963 191.732 121.576 192.372 121.989C193.025 122.403 193.672 122.609 194.312 122.609C195.085 122.609 195.872 122.423 196.672 122.049C197.472 121.676 198.152 121.123 198.712 120.389C199.285 119.643 199.572 118.829 199.572 117.949C199.572 117.043 199.285 116.389 198.712 115.989C198.152 115.589 197.472 115.389 196.672 115.389C195.925 115.389 195.132 115.643 194.292 116.149C193.465 116.643 192.779 117.269 192.232 118.029C191.685 118.776 191.412 119.483 191.412 120.149ZM203.096 123.529V109.609C203.096 109.263 203.35 109.089 203.856 109.089C204.336 109.089 204.576 109.263 204.576 109.609V115.069C205.403 114.283 206.37 113.889 207.476 113.889C209.25 113.889 210.836 114.536 212.236 115.829C213.636 117.123 214.336 118.663 214.336 120.449C214.336 121.423 213.97 122.303 213.236 123.089C212.503 123.863 211.656 124.249 210.696 124.249C209.656 124.249 208.643 123.936 207.656 123.309C206.683 122.683 205.656 121.669 204.576 120.269V123.529C204.576 123.703 204.503 123.843 204.356 123.949C204.21 124.043 204.036 124.089 203.836 124.089C203.343 124.089 203.096 123.903 203.096 123.529ZM204.896 117.489C204.896 117.969 205.19 118.636 205.776 119.489C206.376 120.329 207.123 121.096 208.016 121.789C208.91 122.469 209.703 122.809 210.396 122.809C210.996 122.809 211.563 122.616 212.096 122.229C212.63 121.829 212.896 121.249 212.896 120.489C212.896 119.116 212.363 117.909 211.296 116.869C210.23 115.816 209.043 115.289 207.736 115.289C207.55 115.289 207.316 115.329 207.036 115.409C206.756 115.476 206.443 115.583 206.096 115.729C205.763 115.876 205.476 116.109 205.236 116.429C205.01 116.736 204.896 117.089 204.896 117.489ZM216.16 120.009C216.16 119.889 216.16 119.296 216.16 118.229C216.173 117.149 216.18 115.956 216.18 114.649C216.18 114.476 216.253 114.343 216.4 114.249C216.546 114.143 216.72 114.089 216.92 114.089C217.413 114.089 217.66 114.276 217.66 114.649V119.829C217.66 120.776 217.993 121.516 218.66 122.049C219.34 122.569 220.04 122.829 220.76 122.829C221.666 122.829 222.633 122.503 223.66 121.849C224.7 121.183 225.42 120.356 225.82 119.369V114.629C225.82 114.269 226.073 114.089 226.58 114.089C226.78 114.089 226.946 114.136 227.08 114.229C227.226 114.323 227.3 114.456 227.3 114.629V123.549C227.3 123.723 227.226 123.856 227.08 123.949C226.946 124.043 226.78 124.089 226.58 124.089C226.073 124.089 225.82 123.909 225.82 123.549V121.909C225.153 122.643 224.353 123.223 223.42 123.649C222.5 124.076 221.553 124.289 220.58 124.289C219.326 124.289 218.273 123.889 217.42 123.089C216.58 122.289 216.16 121.263 216.16 120.009ZM229.678 123.529V114.669C229.678 114.309 229.931 114.129 230.438 114.129C230.638 114.129 230.805 114.176 230.938 114.269C231.085 114.363 231.158 114.496 231.158 114.669V117.169C231.665 116.076 232.225 115.249 232.838 114.689C233.465 114.129 234.291 113.849 235.318 113.849C236.038 113.849 236.765 113.943 237.498 114.129C237.885 114.316 238.078 114.569 238.078 114.889C238.078 115.116 238.031 115.276 237.938 115.369C237.845 115.463 237.691 115.523 237.478 115.549C236.798 115.389 236.245 115.309 235.818 115.309C234.831 115.309 233.931 115.796 233.118 116.769C232.305 117.743 231.651 119.009 231.158 120.569V123.529C231.158 123.703 231.085 123.843 230.938 123.949C230.791 124.043 230.618 124.089 230.418 124.089C229.925 124.089 229.678 123.903 229.678 123.529ZM239.483 123.569V114.629C239.483 114.456 239.55 114.323 239.683 114.229C239.83 114.136 240.003 114.089 240.203 114.089C240.71 114.089 240.963 114.269 240.963 114.629V116.209C241.63 115.489 242.437 114.923 243.383 114.509C244.33 114.083 245.29 113.869 246.263 113.869C247.517 113.869 248.563 114.263 249.403 115.049C250.257 115.823 250.683 116.836 250.683 118.089C250.683 118.209 250.677 118.823 250.663 119.929C250.663 121.023 250.663 122.223 250.663 123.529C250.663 123.703 250.59 123.843 250.443 123.949C250.297 124.043 250.123 124.089 249.923 124.089C249.43 124.089 249.183 123.903 249.183 123.529V118.269C249.183 117.323 248.843 116.596 248.163 116.089C247.497 115.583 246.803 115.329 246.083 115.329C245.11 115.329 244.11 115.656 243.083 116.309C242.07 116.949 241.363 117.763 240.963 118.749V123.569C240.963 123.929 240.71 124.109 240.203 124.109C240.003 124.109 239.83 124.063 239.683 123.969C239.55 123.876 239.483 123.743 239.483 123.569Z" fill="#515151"/>
</svg>
