<svg width="428" height="422" viewBox="0 0 428 422" fill="none" xmlns="http://www.w3.org/2000/svg">
<g clip-path="url(#clip0_5_732)">
<path opacity="0.5" d="M347.653 105.087L347.879 105.056C340.818 83.4005 325.61 83.7421 321.544 84.2465C319.682 83.6222 317.732 83.3046 315.769 83.3059H315.412V78.3663L315.968 78.1509C315.915 77.3391 315.753 76.5383 315.485 75.7704C319.792 74.0172 323.511 71.0717 326.208 67.2785C329.042 64.3035 331.177 60.7324 332.457 56.8257C333.738 52.9189 334.132 48.7751 333.61 44.6965C333.088 40.6179 331.664 36.7074 329.441 33.2503C327.219 29.7933 324.254 26.8768 320.763 24.7138C320.888 24.573 321.005 24.4256 321.114 24.2724C321.991 23.6323 322.65 22.7371 323 21.7086C323.351 20.6801 323.377 19.5683 323.074 18.5246C322.771 17.481 322.155 16.5561 321.308 15.8761C320.462 15.196 319.427 14.7938 318.344 14.7242C319.267 12.5441 319.434 10.1168 318.816 7.83086C318.199 5.54495 316.833 3.53269 314.939 2.11628C313.044 0.699875 310.73 -0.0387489 308.366 0.0186764C306.003 0.0761017 303.727 0.926254 301.904 2.43301C303.512 1.5761 305.315 1.15083 307.137 1.19856C308.959 1.24629 310.737 1.76539 312.299 2.70538C313.861 3.64537 315.154 4.97426 316.051 6.56284C316.949 8.15142 317.421 9.94562 317.421 11.771C317.421 11.8866 317.421 12.0022 317.421 12.1178C317.39 10.5796 317.025 9.06664 316.351 7.68436C315.677 6.30207 314.71 5.08376 313.517 4.11436C312.324 3.14496 310.935 2.44781 309.446 2.07153C307.957 1.69525 306.403 1.6489 304.894 1.9357C303.386 2.2225 301.957 2.83555 300.709 3.7321C299.461 4.62866 298.423 5.78713 297.668 7.12675C296.913 8.46637 296.458 9.95489 296.336 11.4885C296.214 13.0221 296.428 14.5639 296.962 16.0064C296.156 16.1818 295.402 16.5438 294.761 17.0634C294.12 17.583 293.609 18.2457 293.269 18.9986C292.93 19.7515 292.771 20.5736 292.805 21.399C292.84 22.2245 293.067 23.0304 293.468 23.7521C289.646 25.7632 286.348 28.645 283.841 32.1657C281.334 35.6864 279.687 39.7476 279.033 44.0224C278.378 48.2971 278.735 52.6661 280.074 56.7775C281.413 60.8889 283.698 64.6279 286.743 67.6936C289.315 71.1535 292.753 73.8724 296.71 75.576V83.3059C294.648 83.3268 292.604 83.7 290.667 84.4095C290.667 84.4095 271.503 79.9218 263.309 105.051C259.842 114.257 257.135 128.12 256.322 148.866C256.322 148.866 257.859 165.24 282.688 149.754L283.821 163.627H284.02V168.325H283.768L283.968 168.719V168.845C263.902 186.186 271.545 331.7 271.545 331.7L282.598 304.5C283.574 315.01 282.751 326.949 282.184 333.003H281.486L280.652 345.904C280.612 346.223 280.64 346.547 280.735 346.854C280.829 347.161 280.988 347.445 281.2 347.686C281.413 347.927 281.674 348.12 281.966 348.252C282.259 348.385 282.576 348.453 282.898 348.452H299.978C300.178 348.453 300.375 348.402 300.55 348.305C300.724 348.208 300.871 348.068 300.976 347.897C301.082 347.727 301.142 347.533 301.15 347.333C301.159 347.133 301.117 346.934 301.027 346.755L298.069 340.828C296.797 338.281 296.167 335.461 296.233 332.614L297.754 267.227L301.694 257.532L316.031 233.228L318.323 331.973C318.389 334.82 317.759 337.64 316.487 340.186L313.528 346.114C313.439 346.293 313.397 346.492 313.405 346.692C313.414 346.892 313.474 347.086 313.58 347.256C313.685 347.427 313.832 347.567 314.006 347.664C314.181 347.761 314.378 347.812 314.578 347.811H331.648C332.01 347.811 332.367 347.724 332.689 347.557C333.01 347.389 333.286 347.147 333.494 346.85L333.893 350.003L333.494 346.85C333.819 346.392 333.961 345.83 333.893 345.273L333.059 333.019L332.419 332.971C331.732 325.846 330.504 308.83 332.944 296.881C335.231 285.314 336.738 273.606 337.455 261.836L340.178 221.121H340.608L340.755 218.394L341.39 218.425C341.39 218.425 349.332 186.065 329.24 168.814H328.883L329.135 168.314H328.443V163.611H329.445L330.373 150.753C353.718 164.815 354.604 148.85 354.604 148.85C353.817 128.146 351.11 114.31 347.653 105.087ZM322.111 20.5677C322.111 20.6623 322.111 20.7568 322.111 20.8567C322.042 19.6616 321.571 18.525 320.775 17.6326C319.978 16.7402 318.903 16.1447 317.725 15.9434C317.827 15.7682 317.925 15.593 318.019 15.4179C319.181 15.6873 320.218 16.3429 320.961 17.278C321.704 18.2131 322.11 19.3726 322.111 20.5677ZM272.647 138.398L279.661 113.359L281.355 134.068L272.647 138.398ZM331.569 134.478L332.902 115.955L341.185 139.008L331.569 134.478Z" fill="url(#paint0_linear_5_732)"/>
<path d="M306.237 80.1057C320.81 80.1057 332.624 68.2716 332.624 53.6735C332.624 39.0755 320.81 27.2414 306.237 27.2414C291.663 27.2414 279.85 39.0755 279.85 53.6735C279.85 68.2716 291.663 80.1057 306.237 80.1057Z" fill="#F55F44"/>
<path d="M331.59 329.356C331.59 329.356 328.731 306.434 331.748 291.626C333.937 280.559 335.379 269.356 336.065 258.094L339.517 206.481L315.113 211.063L317.762 325.205" fill="#FDA57D"/>
<path d="M317.762 325.205C317.829 327.937 317.225 330.643 316.005 333.087L313.177 338.757C313.092 338.928 313.053 339.118 313.062 339.309C313.07 339.5 313.128 339.685 313.228 339.848C313.328 340.01 313.468 340.144 313.635 340.238C313.801 340.331 313.988 340.38 314.179 340.381H330.51C330.816 340.38 331.119 340.314 331.399 340.188C331.678 340.061 331.928 339.876 332.13 339.646C332.333 339.415 332.485 339.144 332.575 338.851C332.666 338.557 332.693 338.248 332.655 337.943L331.858 326.219" fill="#333333"/>
<path d="M282.803 329.971C282.803 329.971 285.662 307.049 282.646 292.241C280.457 281.173 279.014 269.971 278.328 258.709L274.876 207.096L299.281 211.678L296.631 325.82" fill="#FDA57D"/>
<path d="M296.631 325.825C296.565 328.557 297.168 331.263 298.389 333.707L301.216 339.377C301.301 339.548 301.341 339.738 301.332 339.929C301.323 340.12 301.266 340.305 301.165 340.468C301.065 340.63 300.925 340.764 300.759 340.858C300.592 340.951 300.405 341 300.214 341.001H283.884C283.577 341 283.274 340.934 282.994 340.808C282.715 340.681 282.466 340.496 282.263 340.266C282.06 340.035 281.908 339.764 281.818 339.471C281.727 339.177 281.7 338.868 281.738 338.563L282.536 326.219" fill="#333333"/>
<path d="M327.472 158.798H284.907V175.303H327.472V158.798Z" fill="#FDA57D"/>
<path d="M332.151 338.395V338.4L332.66 342.478L332.151 338.395Z" fill="black"/>
<path opacity="0.05" d="M315.674 218.425L339.081 219.145L339.517 211.037L315.118 215.619L315.674 218.425Z" fill="black"/>
<path opacity="0.05" d="M298.866 218.425L275.459 219.145L275.023 211.037L299.422 215.619L298.866 218.425Z" fill="black"/>
<path d="M328.432 164.121H284.713L279.85 104.693C279.85 100.073 281.682 95.6425 284.943 92.3756C288.204 89.1087 292.628 87.2734 297.24 87.2734H315.323C319.935 87.2734 324.358 89.1087 327.619 92.3756C330.881 95.6425 332.713 100.073 332.713 104.693L328.432 164.121Z" fill="#FF7876"/>
<path d="M309.946 72.0447H302.082C299.301 72.0447 297.046 74.3033 297.046 77.0894V91.7032C297.046 94.4894 299.301 96.748 302.082 96.748H309.946C312.727 96.748 314.982 94.4894 314.982 91.7032V77.0894C314.982 74.3033 312.727 72.0447 309.946 72.0447Z" fill="#FDA57D"/>
<path d="M284.713 168.614L300.031 198.683H310.995V215.204L339.847 216.581C339.847 216.581 347.449 185.619 328.222 169.113L284.713 168.614Z" fill="#FF7876"/>
<path d="M328.138 168.614L312.841 198.683L324.272 215.971L301.856 253.98L273.004 324.921C273.004 324.921 265.659 185.593 284.907 169.087L328.138 168.614Z" fill="#FF7876"/>
<g opacity="0.05">
<path opacity="0.05" d="M285.515 98.2929C285.697 97.3681 285.953 96.4596 286.281 95.5761C284.433 97.2083 282.953 99.2162 281.94 101.466C280.927 103.716 280.404 106.156 280.406 108.624L282.063 128.871L285.515 98.2929Z" fill="black"/>
</g>
<g opacity="0.05">
<path opacity="0.05" d="M326.732 104.467C326.55 103.543 326.294 102.634 325.967 101.751C327.815 103.383 329.295 105.391 330.308 107.64C331.321 109.89 331.844 112.33 331.842 114.799L330.184 135.046L326.732 104.467Z" fill="black"/>
</g>
<path d="M340.173 97.594C345.943 104.814 351.32 119.759 352.506 149.996C352.506 149.996 351.131 174.757 305.817 133.49L304.443 105.729C304.442 105.579 304.474 105.431 304.538 105.296C304.602 105.16 304.695 105.041 304.81 104.946C304.926 104.851 305.061 104.784 305.207 104.748C305.352 104.713 305.503 104.71 305.649 104.741C306.865 105.015 307.952 105.696 308.731 106.671C309.51 107.646 309.935 108.857 309.935 110.106V126.612L339.643 140.537L326.433 103.8C325.033 95.8704 335.142 91.2881 340.173 97.594Z" fill="#FDA57D"/>
<path d="M319.871 88.3296C319.871 88.3296 338.232 84.0364 346.043 108.078L327.834 110.5L319.871 88.3296Z" fill="#FF7876"/>
<path d="M273.644 94.5777C266.908 100.227 259.784 114.683 258.404 150.001C258.404 150.001 260.702 174.51 306.016 133.243L306.462 105.734C306.463 105.584 306.43 105.436 306.367 105.301C306.303 105.165 306.21 105.046 306.094 104.951C305.979 104.857 305.843 104.789 305.698 104.753C305.553 104.718 305.402 104.715 305.256 104.746C304.04 105.02 302.954 105.7 302.175 106.674C301.397 107.648 300.971 108.858 300.97 110.106V126.612L274.063 139.98L284.928 101.173C286.056 94.8142 278.601 90.4158 273.644 94.5777Z" fill="#FDA57D"/>
<path d="M291.259 88.3296C291.259 88.3296 272.899 84.0364 265.088 108.078L283.595 110.222L291.259 88.3296Z" fill="#FF7876"/>
<path opacity="0.05" d="M306.016 105.172H305.455V133.243H306.016V105.172Z" fill="black"/>
<path opacity="0.05" d="M306.85 84.0153C309.821 84.0163 312.765 83.4473 315.522 82.339C315.381 80.1577 314.416 78.1119 312.824 76.6168C311.232 75.1217 309.132 74.2893 306.95 74.2885H306.216C304.07 74.2889 302.002 75.0929 300.418 76.5427C298.834 77.9924 297.848 79.983 297.654 82.1236C300.559 83.3737 303.689 84.0174 306.85 84.0153Z" fill="black"/>
<path d="M306.284 81.7715C319.177 81.7715 329.628 71.302 329.628 58.3872C329.628 45.4724 319.177 35.0029 306.284 35.0029C293.391 35.0029 282.939 45.4724 282.939 58.3872C282.939 71.302 293.391 81.7715 306.284 81.7715Z" fill="#FDA57D"/>
<path d="M298.378 32.8641C301.168 32.8641 303.43 30.5985 303.43 27.8037C303.43 25.0088 301.168 22.7432 298.378 22.7432C295.588 22.7432 293.326 25.0088 293.326 27.8037C293.326 30.5985 295.588 32.8641 298.378 32.8641Z" fill="#F55F44"/>
<path d="M316.34 32.8641C319.13 32.8641 321.392 30.5985 321.392 27.8037C321.392 25.0088 319.13 22.7432 316.34 22.7432C313.55 22.7432 311.288 25.0088 311.288 27.8037C311.288 30.5985 313.55 32.8641 316.34 32.8641Z" fill="#F55F44"/>
<path d="M306.798 29.4905C312.378 29.4905 316.902 24.9592 316.902 19.3696C316.902 13.7799 312.378 9.24863 306.798 9.24863C301.218 9.24863 296.694 13.7799 296.694 19.3696C296.694 24.9592 301.218 29.4905 306.798 29.4905Z" fill="#F55F44"/>
<path d="M317.463 21.6187C316.459 21.618 315.478 21.9181 314.646 22.4805C315.805 22.0666 317.075 22.0909 318.218 22.5488C319.361 23.0067 320.297 23.8667 320.852 24.9673C321.406 26.0678 321.541 27.3333 321.23 28.5261C320.919 29.7189 320.184 30.7569 319.163 31.4453C320.28 31.0421 321.22 30.2575 321.817 29.2293C322.414 28.201 322.631 26.9948 322.429 25.8226C322.226 24.6503 321.618 23.5869 320.711 22.8191C319.804 22.0512 318.656 21.6281 317.468 21.6239L317.463 21.6187Z" fill="#F55F44"/>
<path d="M308.477 7.56181C306.131 7.55861 303.858 8.37646 302.05 9.87396C304.262 8.69578 306.831 8.38244 309.26 8.99474C311.689 9.60704 313.805 11.1013 315.196 13.1877C316.588 15.274 317.156 17.8037 316.79 20.286C316.425 22.7682 315.152 25.026 313.219 26.6213C315.209 25.5627 316.789 23.868 317.707 21.8067C318.625 19.7455 318.829 17.4359 318.286 15.2453C317.744 13.0546 316.485 11.1084 314.712 9.71626C312.938 8.32408 310.751 7.56575 308.498 7.56181H308.477Z" fill="#F55F44"/>
<path d="M289.392 37.3623C289.392 37.3623 292.199 55.9174 327.567 45.7965L310.166 30.6151L289.392 37.3623Z" fill="#F55F44"/>
<path opacity="0.05" d="M297.712 262.85L283.8 299.592V300.859L297.712 265.383V262.85Z" fill="black"/>
<g opacity="0.5">
<path opacity="0.5" d="M409.776 142.219H408.999V146.627H409.776V142.219Z" fill="#47E6B1"/>
<path opacity="0.5" d="M411.585 144.815V144.037H407.184V144.815H411.585Z" fill="#47E6B1"/>
</g>
<g opacity="0.5">
<path opacity="0.5" d="M226.168 238.383H225.392V242.792H226.168V238.383Z" fill="#47E6B1"/>
<path opacity="0.5" d="M227.978 240.979V240.201H223.576V240.979H227.978Z" fill="#47E6B1"/>
</g>
<g opacity="0.5">
<path opacity="0.5" d="M56.1787 272.419H55.4023V276.828H56.1787V272.419Z" fill="#47E6B1"/>
<path opacity="0.5" d="M57.9886 275.01V274.232H53.5872V275.01H57.9886Z" fill="#47E6B1"/>
</g>
<g opacity="0.5">
<path opacity="0.5" d="M235.17 286.087H234.394V290.496H235.17V286.087Z" fill="#47E6B1"/>
<path opacity="0.5" d="M236.985 288.678V287.9H232.584V288.678H236.985Z" fill="#47E6B1"/>
</g>
<path opacity="0.5" d="M292.644 399.267C292.431 399.173 292.26 399.004 292.163 398.792C292.067 398.58 292.051 398.339 292.12 398.116C292.124 398.082 292.124 398.046 292.12 398.011V398.011C292.125 397.91 292.097 397.809 292.041 397.724C291.985 397.639 291.903 397.574 291.808 397.539C291.712 397.504 291.608 397.5 291.511 397.528C291.413 397.557 291.327 397.615 291.265 397.696C291.244 397.725 291.226 397.757 291.212 397.791C291.118 398.004 290.95 398.176 290.738 398.272C290.526 398.369 290.286 398.385 290.063 398.316H289.959C289.857 398.311 289.756 398.339 289.672 398.395C289.587 398.451 289.522 398.533 289.487 398.629C289.452 398.724 289.448 398.829 289.476 398.926C289.505 399.024 289.563 399.111 289.644 399.173C289.673 399.194 289.705 399.212 289.738 399.225C289.951 399.319 290.122 399.488 290.219 399.701C290.316 399.913 290.331 400.153 290.263 400.376C290.259 400.411 290.259 400.446 290.263 400.481V400.481C290.258 400.583 290.285 400.684 290.341 400.769C290.398 400.854 290.479 400.918 290.575 400.954C290.67 400.989 290.774 400.992 290.872 400.964C290.97 400.936 291.056 400.877 291.118 400.796C291.139 400.767 291.157 400.735 291.17 400.702C291.264 400.488 291.433 400.317 291.645 400.22C291.857 400.123 292.097 400.108 292.319 400.176H292.424C292.526 400.181 292.626 400.154 292.711 400.098C292.796 400.041 292.861 399.96 292.896 399.864C292.931 399.768 292.935 399.664 292.906 399.566C292.878 399.468 292.819 399.382 292.739 399.32V399.32C292.71 399.299 292.678 399.281 292.644 399.267V399.267Z" fill="#4D8AF0"/>
<path opacity="0.5" d="M414.145 241.52C413.932 241.426 413.761 241.257 413.664 241.045C413.568 240.833 413.552 240.593 413.621 240.37C413.625 240.335 413.625 240.299 413.621 240.265V240.265C413.626 240.163 413.598 240.062 413.542 239.977C413.486 239.892 413.404 239.827 413.309 239.792C413.214 239.757 413.109 239.753 413.012 239.782C412.914 239.81 412.828 239.869 412.766 239.949V239.949C412.745 239.979 412.727 240.01 412.713 240.044C412.619 240.257 412.451 240.429 412.239 240.526C412.027 240.623 411.787 240.638 411.564 240.569H411.46C411.358 240.564 411.257 240.592 411.173 240.648C411.088 240.704 411.023 240.786 410.988 240.882C410.953 240.977 410.949 241.082 410.977 241.18C411.006 241.277 411.064 241.364 411.145 241.426V241.426C411.174 241.447 411.206 241.465 411.239 241.478C411.452 241.572 411.624 241.742 411.72 241.954C411.817 242.166 411.832 242.406 411.764 242.629C411.76 242.664 411.76 242.699 411.764 242.734V242.734C411.759 242.836 411.786 242.937 411.842 243.022C411.899 243.107 411.98 243.172 412.076 243.207C412.171 243.242 412.275 243.246 412.373 243.217C412.471 243.189 412.557 243.13 412.619 243.05V243.05C412.64 243.02 412.658 242.989 412.671 242.955C412.765 242.742 412.934 242.57 413.146 242.473C413.358 242.376 413.598 242.361 413.82 242.43H413.925C414.027 242.435 414.127 242.407 414.212 242.351C414.297 242.295 414.362 242.213 414.397 242.117C414.432 242.022 414.436 241.917 414.407 241.819C414.379 241.721 414.32 241.635 414.24 241.573V241.573C414.211 241.552 414.179 241.534 414.145 241.52V241.52Z" fill="#4D8AF0"/>
<path opacity="0.5" d="M81.7264 159.828C81.5133 159.734 81.3421 159.565 81.2454 159.352C81.1487 159.14 81.1332 158.9 81.2018 158.677C81.2058 158.642 81.2058 158.607 81.2018 158.572V158.572C81.2068 158.47 81.1793 158.369 81.1232 158.284C81.0671 158.199 80.9854 158.135 80.8899 158.099C80.7945 158.064 80.6903 158.061 80.5926 158.089C80.4949 158.117 80.4087 158.176 80.3467 158.257V158.257C80.3256 158.286 80.3079 158.318 80.2943 158.351C80.2004 158.565 80.0315 158.736 79.8197 158.833C79.6079 158.93 79.3679 158.945 79.1454 158.877H79.0405C78.9389 158.872 78.8384 158.899 78.7535 158.955C78.6687 159.012 78.604 159.093 78.5689 159.189C78.5338 159.285 78.53 159.389 78.5582 159.487C78.5865 159.585 78.6451 159.671 78.7257 159.733V159.733C78.755 159.754 78.7867 159.772 78.8201 159.786C79.0332 159.88 79.2044 160.049 79.3011 160.261C79.3979 160.473 79.4134 160.714 79.3447 160.937C79.3407 160.971 79.3407 161.007 79.3447 161.042V161.042C79.3397 161.143 79.3673 161.244 79.4234 161.329C79.4795 161.414 79.5612 161.479 79.6566 161.514C79.7521 161.549 79.8562 161.553 79.9539 161.525C80.0517 161.496 80.1378 161.438 80.1998 161.357V161.357C80.221 161.328 80.2386 161.296 80.2523 161.262C80.3461 161.049 80.515 160.877 80.7268 160.781C80.9387 160.684 81.1786 160.668 81.4011 160.737H81.5061C81.6076 160.742 81.7082 160.714 81.793 160.658C81.8778 160.602 81.9425 160.52 81.9776 160.424C82.0128 160.329 82.0165 160.225 81.9883 160.127C81.9601 160.029 81.9014 159.942 81.8208 159.88V159.88C81.7915 159.859 81.7598 159.841 81.7264 159.828V159.828Z" fill="#4D8AF0"/>
<path opacity="0.5" d="M426.442 98.151C427.3 98.151 427.995 97.4546 427.995 96.5956C427.995 95.7365 427.3 95.0401 426.442 95.0401C425.584 95.0401 424.889 95.7365 424.889 96.5956C424.889 97.4546 425.584 98.151 426.442 98.151Z" fill="#F55F44"/>
<path opacity="0.5" d="M62.3479 217.642C63.2055 217.642 63.9007 216.946 63.9007 216.087C63.9007 215.228 63.2055 214.531 62.3479 214.531C61.4903 214.531 60.7951 215.228 60.7951 216.087C60.7951 216.946 61.4903 217.642 62.3479 217.642Z" fill="#4D8AF0"/>
<path opacity="0.5" d="M363.47 178.614C364.327 178.614 365.023 177.918 365.023 177.059C365.023 176.2 364.327 175.503 363.47 175.503C362.612 175.503 361.917 176.2 361.917 177.059C361.917 177.918 362.612 178.614 363.47 178.614Z" fill="#F55F44"/>
<g opacity="0.5">
<path opacity="0.5" d="M161.223 20.058C160.104 19.2595 158.734 18.8922 157.366 19.0234C155.997 19.1547 154.722 19.7757 153.774 20.7726C152.746 21.894 152.195 23.3728 152.238 24.8947C152.281 26.4167 152.915 27.8618 154.005 28.923L161.129 36.0118C161.352 36.2355 161.655 36.3611 161.971 36.3611C162.287 36.3611 162.59 36.2355 162.813 36.0118L169.895 28.8757C170.978 27.8082 171.604 26.3597 171.638 24.8378C171.672 23.3159 171.113 21.8406 170.078 20.7253C169.122 19.7366 167.842 19.1265 166.473 19.0068C165.103 18.8871 163.737 19.2659 162.624 20.0737C162.418 20.2182 162.172 20.2943 161.921 20.2915C161.67 20.2887 161.426 20.207 161.223 20.058V20.058Z" fill="#F55F44"/>
<path opacity="0.5" d="M162.015 35.7176C161.933 35.8709 161.89 36.0425 161.89 36.2168C161.89 36.3911 161.933 36.5626 162.015 36.716C162.117 36.8646 162.21 37.019 162.293 37.1784C162.477 37.6356 162.157 38.1348 161.832 38.5079C161.627 38.7444 161.396 39.0649 161.533 39.3487C161.597 39.4532 161.678 39.5457 161.774 39.622C161.99 39.8327 162.149 40.0957 162.234 40.3857C162.319 40.6756 162.329 40.9826 162.261 41.2772C162.194 41.5718 162.052 41.844 161.849 42.0677C161.646 42.2913 161.389 42.4589 161.103 42.5542" stroke="#F55F44" stroke-miterlimit="10"/>
</g>
<g opacity="0.5">
<path opacity="0.5" d="M392.569 62.6226C391.449 61.8242 390.08 61.4569 388.711 61.5881C387.343 61.7194 386.068 62.3404 385.12 63.3373C384.092 64.4587 383.541 65.9375 383.584 67.4594C383.627 68.9814 384.261 70.4265 385.351 71.4877L392.475 78.5765C392.698 78.8002 393.001 78.9258 393.317 78.9258C393.632 78.9258 393.935 78.8002 394.159 78.5765L401.241 71.4404C402.324 70.3729 402.949 68.9244 402.984 67.4025C403.018 65.8806 402.458 64.4053 401.424 63.29C400.468 62.3013 399.187 61.6912 397.818 61.5715C396.449 61.4518 395.083 61.8306 393.97 62.6384C393.764 62.7829 393.518 62.859 393.267 62.8562C393.016 62.8534 392.772 62.7717 392.569 62.6226Z" fill="#F55F44"/>
<path opacity="0.5" d="M393.361 78.2822C393.279 78.4356 393.235 78.6072 393.235 78.7814C393.235 78.9557 393.279 79.1273 393.361 79.2807C393.463 79.4292 393.556 79.5836 393.639 79.7431C393.823 80.2003 393.503 80.6995 393.178 81.0726C392.973 81.3091 392.742 81.6296 392.879 81.9134C392.942 82.0179 393.024 82.1103 393.12 82.1866C393.336 82.3974 393.495 82.6604 393.58 82.9503C393.665 83.2402 393.675 83.5473 393.607 83.8419C393.54 84.1365 393.398 84.4087 393.195 84.6324C392.992 84.856 392.735 85.0236 392.448 85.1189" stroke="#F55F44" stroke-miterlimit="10"/>
</g>
<g opacity="0.5">
<path opacity="0.5" d="M24.829 306.976C23.7092 306.177 22.3396 305.81 20.9713 305.941C19.6031 306.072 18.3279 306.693 17.3798 307.69C16.3516 308.812 15.8006 310.29 15.8437 311.812C15.8868 313.334 16.5206 314.779 17.6106 315.841L24.7346 322.929C24.9579 323.153 25.2608 323.279 25.5766 323.279C25.8924 323.279 26.1952 323.153 26.4185 322.929L33.5005 315.793C34.584 314.726 35.2093 313.277 35.2436 311.755C35.2778 310.234 34.7184 308.758 33.6842 307.643C32.7277 306.654 31.4474 306.044 30.0782 305.924C28.709 305.805 27.3426 306.183 26.2297 306.991C26.0239 307.136 25.7781 307.212 25.5268 307.209C25.2756 307.206 25.0315 307.125 24.829 306.976V306.976Z" fill="#F55F44"/>
<path opacity="0.5" d="M25.6212 322.635C25.5385 322.788 25.4952 322.96 25.4952 323.134C25.4952 323.309 25.5385 323.48 25.6212 323.634C25.7228 323.782 25.8156 323.936 25.8992 324.096C26.0828 324.553 25.7628 325.052 25.4376 325.425C25.233 325.662 25.0022 325.982 25.1385 326.266C25.2025 326.371 25.2841 326.463 25.3799 326.539C25.5961 326.75 25.7545 327.013 25.8399 327.303C25.9252 327.593 25.9346 327.9 25.8672 328.195C25.7997 328.489 25.6576 328.762 25.4547 328.985C25.2517 329.209 24.9947 329.376 24.7084 329.472" stroke="#F55F44" stroke-miterlimit="10"/>
</g>
<g opacity="0.5">
<path opacity="0.5" d="M15.3863 37.3991C14.2665 36.6006 12.8969 36.2333 11.5286 36.3646C10.1604 36.4959 8.88522 37.1169 7.9371 38.1138C6.90895 39.2351 6.35787 40.7139 6.40097 42.2359C6.44407 43.7578 7.07796 45.2029 8.16792 46.2641L15.2919 53.353C15.5152 53.5766 15.8181 53.7023 16.1339 53.7023C16.4497 53.7023 16.7525 53.5766 16.9758 53.353L24.0578 46.2168C25.1413 45.1494 25.7666 43.7009 25.8009 42.179C25.8351 40.6571 25.2757 39.1818 24.2415 38.0665C23.285 37.0778 22.0048 36.4677 20.6355 36.348C19.2663 36.2283 17.9 36.6071 16.787 37.4149C16.5812 37.5593 16.3354 37.6355 16.0841 37.6326C15.8329 37.6298 15.5888 37.5481 15.3863 37.3991V37.3991Z" fill="#F55F44"/>
<path opacity="0.5" d="M16.1785 53.0587C16.0958 53.2121 16.0526 53.3836 16.0526 53.5579C16.0526 53.7322 16.0958 53.9038 16.1785 54.0571C16.2801 54.2057 16.3729 54.3601 16.4565 54.5196C16.6401 54.9768 16.3201 55.476 15.9949 55.8491C15.7903 56.0855 15.5595 56.4061 15.6959 56.6899C15.7598 56.7943 15.8414 56.8868 15.9372 56.9631C16.1534 57.1739 16.3118 57.4369 16.3972 57.7268C16.4825 58.0167 16.4919 58.3237 16.4245 58.6183C16.357 58.9129 16.215 59.1852 16.012 59.4088C15.809 59.6325 15.552 59.8 15.2657 59.8953" stroke="#F55F44" stroke-miterlimit="10"/>
</g>
<g opacity="0.5">
<path opacity="0.5" d="M199.519 250.223C198.399 249.424 197.029 249.057 195.661 249.188C194.293 249.319 193.018 249.94 192.069 250.937C191.041 252.059 190.49 253.537 190.533 255.059C190.576 256.581 191.21 258.026 192.3 259.088L199.424 266.176C199.648 266.4 199.95 266.526 200.266 266.526C200.582 266.526 200.885 266.4 201.108 266.176L208.19 259.04C209.274 257.973 209.899 256.524 209.933 255.002C209.967 253.481 209.408 252.005 208.374 250.89C207.417 249.901 206.137 249.291 204.768 249.171C203.399 249.052 202.032 249.431 200.919 250.238C200.714 250.383 200.468 250.459 200.216 250.456C199.965 250.453 199.721 250.372 199.519 250.223V250.223Z" fill="#F55F44"/>
<path opacity="0.5" d="M200.311 265.882C200.228 266.036 200.185 266.207 200.185 266.381C200.185 266.556 200.228 266.727 200.311 266.881C200.412 267.029 200.505 267.184 200.589 267.343C200.772 267.8 200.452 268.299 200.127 268.673C199.923 268.909 199.692 269.23 199.828 269.513C199.892 269.618 199.974 269.71 200.069 269.787C200.286 269.997 200.444 270.26 200.529 270.55C200.615 270.84 200.624 271.147 200.557 271.442C200.489 271.736 200.347 272.009 200.144 272.232C199.941 272.456 199.684 272.623 199.398 272.719" stroke="#F55F44" stroke-miterlimit="10"/>
</g>
<g opacity="0.5">
<path opacity="0.5" d="M207.912 121.478C206.792 120.679 205.423 120.312 204.054 120.443C202.686 120.574 201.411 121.195 200.463 122.192C199.435 123.314 198.884 124.792 198.927 126.314C198.97 127.836 199.604 129.281 200.694 130.343L207.818 137.431C208.041 137.655 208.344 137.781 208.66 137.781C208.975 137.781 209.278 137.655 209.502 137.431L216.584 130.295C217.667 129.228 218.292 127.779 218.327 126.257C218.361 124.736 217.802 123.26 216.767 122.145C215.811 121.156 214.531 120.546 213.161 120.426C211.792 120.307 210.426 120.686 209.313 121.493C209.107 121.638 208.861 121.714 208.61 121.711C208.359 121.708 208.115 121.627 207.912 121.478V121.478Z" fill="#F55F44"/>
<path opacity="0.5" d="M208.704 137.137C208.622 137.291 208.578 137.462 208.578 137.636C208.578 137.811 208.622 137.982 208.704 138.136C208.806 138.284 208.899 138.439 208.982 138.598C209.166 139.055 208.846 139.554 208.521 139.928C208.316 140.164 208.085 140.485 208.222 140.768C208.286 140.873 208.367 140.965 208.463 141.042C208.679 141.252 208.838 141.515 208.923 141.805C209.008 142.095 209.018 142.402 208.95 142.697C208.883 142.991 208.741 143.264 208.538 143.487C208.335 143.711 208.078 143.878 207.791 143.974" stroke="#F55F44" stroke-miterlimit="10"/>
</g>
<g opacity="0.5">
<path opacity="0.5" d="M71.5178 109.917C70.398 109.118 69.0284 108.751 67.6601 108.882C66.2919 109.013 65.0167 109.635 64.0686 110.631C63.0405 111.753 62.4894 113.232 62.5325 114.754C62.5756 116.275 63.2095 117.721 64.2994 118.782L71.4234 125.871C71.6467 126.094 71.9496 126.22 72.2654 126.22C72.5812 126.22 72.884 126.094 73.1073 125.871L80.1894 118.734C81.2728 117.667 81.8981 116.218 81.9324 114.697C81.9667 113.175 81.4072 111.699 80.373 110.584C79.4165 109.595 78.1363 108.985 76.7671 108.866C75.3979 108.746 74.0315 109.125 72.9185 109.933C72.7127 110.077 72.4669 110.153 72.2156 110.15C71.9644 110.147 71.7203 110.066 71.5178 109.917V109.917Z" fill="#F55F44"/>
<path opacity="0.5" d="M72.31 125.576C72.2273 125.73 72.1841 125.901 72.1841 126.076C72.1841 126.25 72.2273 126.421 72.31 126.575C72.4116 126.723 72.5044 126.878 72.588 127.037C72.7716 127.494 72.4516 127.994 72.1264 128.367C71.9218 128.603 71.6909 128.924 71.8273 129.207C71.8913 129.312 71.9729 129.404 72.0687 129.481C72.2849 129.692 72.4433 129.955 72.5287 130.244C72.614 130.534 72.6234 130.841 72.556 131.136C72.4885 131.431 72.3464 131.703 72.1435 131.926C71.9405 132.15 71.6835 132.318 71.3972 132.413" stroke="#F55F44" stroke-miterlimit="10"/>
</g>
<g opacity="0.5">
<path opacity="0.5" d="M206.265 306.361H204.691V315.294H206.265V306.361Z" fill="#47E6B1"/>
<path opacity="0.5" d="M209.937 311.616V310.039H201.019V311.616H209.937Z" fill="#47E6B1"/>
</g>
<g opacity="0.5">
<path opacity="0.5" d="M416.627 266.949H415.053V275.882H416.627V266.949Z" fill="#47E6B1"/>
<path opacity="0.5" d="M420.299 272.204V270.627H411.381V272.204H420.299Z" fill="#47E6B1"/>
</g>
<g opacity="0.5">
<path opacity="0.5" d="M96.6248 23.1216H95.0511V32.0549H96.6248V23.1216Z" fill="#47E6B1"/>
<path opacity="0.5" d="M100.297 28.3765V26.8H91.3789V28.3765H100.297Z" fill="#47E6B1"/>
</g>
<g opacity="0.5">
<path opacity="0.5" d="M375.709 118.761H374.135V127.694H375.709V118.761Z" fill="#47E6B1"/>
<path opacity="0.5" d="M379.381 124.016V122.439H370.463V124.016H379.381Z" fill="#47E6B1"/>
</g>
<g opacity="0.5">
<path opacity="0.5" d="M53.6082 180.243H52.0344V189.176H53.6082V180.243Z" fill="#47E6B1"/>
<path opacity="0.5" d="M57.2804 185.498V183.921H48.3623V185.498H57.2804Z" fill="#47E6B1"/>
</g>
<g opacity="0.5">
<path opacity="0.5" d="M49.936 339.467H48.3622V348.4H49.936V339.467Z" fill="#47E6B1"/>
<path opacity="0.5" d="M53.6082 344.721V343.145H44.6901V344.721H53.6082Z" fill="#47E6B1"/>
</g>
<path opacity="0.5" d="M244.613 49.7166C244.183 49.5234 243.839 49.1793 243.646 48.7494C243.453 48.3195 243.423 47.8336 243.563 47.3834C243.586 47.3135 243.6 47.2412 243.605 47.168V47.168C243.619 46.96 243.565 46.7533 243.451 46.5786C243.338 46.4039 243.171 46.2706 242.976 46.1985C242.781 46.1264 242.568 46.1195 242.368 46.1787C242.169 46.2378 241.994 46.36 241.869 46.5269C241.827 46.5856 241.792 46.6491 241.764 46.7161C241.571 47.1462 241.228 47.4906 240.799 47.6843C240.369 47.8779 239.884 47.9074 239.435 47.767C239.365 47.7446 239.293 47.7305 239.22 47.725C239.012 47.7116 238.806 47.7657 238.631 47.8793C238.457 47.993 238.324 48.16 238.252 48.3555C238.18 48.551 238.173 48.7646 238.232 48.9644C238.291 49.1643 238.413 49.3396 238.58 49.4644V49.4644C238.639 49.5067 238.702 49.5419 238.769 49.5695C239.198 49.7627 239.542 50.1067 239.735 50.5366C239.929 50.9665 239.958 51.4525 239.818 51.9026C239.795 51.9726 239.781 52.0449 239.776 52.1181C239.763 52.3261 239.817 52.5328 239.93 52.7075C240.043 52.8822 240.21 53.0155 240.405 53.0876C240.601 53.1596 240.814 53.1666 241.013 53.1074C241.213 53.0483 241.388 52.9261 241.512 52.7592V52.7592C241.555 52.7004 241.59 52.6369 241.617 52.57C241.81 52.1399 242.154 51.7955 242.583 51.6018C243.012 51.4082 243.497 51.3787 243.946 51.519C244.016 51.5415 244.088 51.5556 244.162 51.5611V51.5611C244.369 51.5745 244.576 51.5204 244.75 51.4067C244.924 51.2931 245.057 51.1261 245.129 50.9306C245.201 50.735 245.208 50.5214 245.149 50.3216C245.09 50.1218 244.968 49.9465 244.802 49.8217V49.8217C244.743 49.7794 244.679 49.7442 244.613 49.7166V49.7166Z" fill="#4D8AF0"/>
<path opacity="0.5" d="M403.04 173.207C402.61 173.014 402.267 172.669 402.073 172.24C401.88 171.81 401.851 171.324 401.991 170.874C402.013 170.804 402.027 170.731 402.033 170.658V170.658C402.046 170.45 401.992 170.243 401.879 170.069C401.765 169.894 401.598 169.761 401.403 169.689C401.208 169.617 400.995 169.61 400.795 169.669C400.596 169.728 400.421 169.85 400.296 170.017V170.017C400.254 170.076 400.219 170.139 400.191 170.206C399.998 170.636 399.655 170.981 399.226 171.174C398.797 171.368 398.311 171.398 397.862 171.257C397.792 171.235 397.72 171.221 397.647 171.215V171.215C397.439 171.202 397.233 171.256 397.059 171.369C396.884 171.483 396.751 171.65 396.679 171.846C396.607 172.041 396.6 172.255 396.659 172.455C396.718 172.654 396.84 172.83 397.007 172.955C397.066 172.997 397.129 173.032 397.196 173.06C397.625 173.253 397.969 173.597 398.162 174.027C398.356 174.457 398.385 174.943 398.245 175.393C398.223 175.463 398.209 175.535 398.203 175.608V175.608C398.19 175.816 398.244 176.023 398.357 176.198C398.471 176.372 398.637 176.506 398.832 176.578C399.028 176.65 399.241 176.657 399.44 176.598C399.64 176.538 399.815 176.416 399.939 176.249V176.249C399.982 176.191 400.017 176.127 400.044 176.06C400.237 175.63 400.581 175.286 401.01 175.092C401.439 174.898 401.924 174.869 402.374 175.009C402.443 175.032 402.516 175.046 402.589 175.051V175.051C402.796 175.065 403.003 175.011 403.177 174.897C403.351 174.783 403.485 174.616 403.556 174.421C403.628 174.225 403.635 174.012 403.576 173.812C403.517 173.612 403.395 173.437 403.229 173.312V173.312C403.17 173.27 403.107 173.234 403.04 173.207V173.207Z" fill="#4D8AF0"/>
<g opacity="0.5">
<path opacity="0.5" d="M13.183 76.0069H12.4066V80.4157H13.183V76.0069Z" fill="#47E6B1"/>
<path opacity="0.5" d="M14.9929 78.6028V77.8251H10.5916V78.6028H14.9929Z" fill="#47E6B1"/>
</g>
<g opacity="0.5">
<path opacity="0.5" d="M46.3163 144.205H45.5399V148.614H46.3163V144.205Z" fill="#47E6B1"/>
<path opacity="0.5" d="M48.1314 146.796V146.018H43.7301V146.796H48.1314Z" fill="#47E6B1"/>
</g>
<path opacity="0.5" d="M57.6266 75.5655C57.4135 75.4714 57.2423 75.3023 57.1456 75.0901C57.0489 74.8779 57.0334 74.6375 57.102 74.4146C57.106 74.3797 57.106 74.3445 57.102 74.3095V74.3095C57.107 74.2078 57.0795 74.1071 57.0234 74.0221C56.9673 73.9372 56.8856 73.8724 56.7901 73.8372C56.6947 73.802 56.5905 73.7982 56.4928 73.8265C56.3951 73.8548 56.309 73.9135 56.2469 73.9943C56.2258 74.0236 56.2081 74.0553 56.1945 74.0888C56.1006 74.3023 55.9317 74.4738 55.7199 74.5707C55.5081 74.6676 55.2681 74.6831 55.0456 74.6143H54.9407C54.8391 74.6093 54.7386 74.6369 54.6538 74.6931C54.5689 74.7493 54.5042 74.8312 54.4691 74.9268C54.434 75.0224 54.4302 75.1267 54.4585 75.2246C54.4867 75.3224 54.5453 75.4087 54.6259 75.4709V75.4709C54.6552 75.4921 54.6869 75.5097 54.7204 75.5234C54.9335 75.6174 55.1046 75.7866 55.2014 75.9988C55.2981 76.211 55.3136 76.4514 55.2449 76.6742C55.2409 76.7092 55.2409 76.7444 55.2449 76.7793V76.7793C55.2399 76.8811 55.2675 76.9818 55.3236 77.0668C55.3797 77.1517 55.4614 77.2165 55.5568 77.2517C55.6523 77.2869 55.7564 77.2906 55.8541 77.2624C55.9519 77.2341 56.038 77.1754 56.1 77.0946V77.0946C56.1212 77.0653 56.1388 77.0335 56.1525 77C56.2463 76.7866 56.4152 76.6151 56.6271 76.5182C56.8389 76.4213 57.0788 76.4058 57.3013 76.4746H57.4063C57.5078 76.4796 57.6084 76.452 57.6932 76.3958C57.778 76.3396 57.8427 76.2577 57.8778 76.1621C57.913 76.0665 57.9167 75.9622 57.8885 75.8643C57.8603 75.7664 57.8016 75.6801 57.721 75.618C57.6917 75.5968 57.66 75.5792 57.6266 75.5655V75.5655Z" fill="#4D8AF0"/>
<path opacity="0.5" d="M17.5529 175.309C17.3398 175.215 17.1686 175.046 17.0719 174.833C16.9752 174.621 16.9597 174.381 17.0283 174.158C17.0323 174.123 17.0323 174.088 17.0283 174.053V174.053C17.0333 173.951 17.0058 173.85 16.9497 173.765C16.8936 173.68 16.8118 173.616 16.7164 173.58C16.621 173.545 16.5168 173.542 16.4191 173.57C16.3214 173.598 16.2352 173.657 16.1732 173.738V173.738C16.152 173.767 16.1344 173.799 16.1208 173.832C16.0269 174.046 15.858 174.217 15.6462 174.314C15.4344 174.411 15.1944 174.426 14.9719 174.358H14.867C14.7654 174.353 14.6649 174.38 14.5801 174.436C14.4952 174.493 14.4305 174.574 14.3954 174.67C14.3603 174.766 14.3565 174.87 14.3848 174.968C14.413 175.066 14.4716 175.152 14.5522 175.214V175.214C14.5815 175.235 14.6132 175.253 14.6467 175.267C14.8598 175.361 15.0309 175.53 15.1277 175.742C15.2244 175.954 15.2399 176.195 15.1712 176.418C15.1672 176.452 15.1672 176.488 15.1712 176.523V176.523C15.1662 176.624 15.1938 176.725 15.2499 176.81C15.306 176.895 15.3877 176.96 15.4831 176.995C15.5786 177.03 15.6827 177.034 15.7804 177.006C15.8781 176.977 15.9643 176.919 16.0263 176.838V176.838C16.0475 176.809 16.0651 176.777 16.0788 176.743C16.1726 176.53 16.3415 176.358 16.5534 176.261C16.7652 176.165 17.0051 176.149 17.2276 176.218H17.3326C17.4341 176.223 17.5347 176.195 17.6195 176.139C17.7043 176.083 17.769 176.001 17.8041 175.905C17.8393 175.81 17.843 175.705 17.8148 175.608C17.7866 175.51 17.7279 175.423 17.6473 175.361V175.361C17.618 175.34 17.5863 175.322 17.5529 175.309V175.309Z" fill="#4D8AF0"/>
<g opacity="0.5">
<path opacity="0.5" d="M20.0342 200.737H18.4604V209.671H20.0342V200.737Z" fill="#47E6B1"/>
<path opacity="0.5" d="M23.7064 205.992V204.416H14.7883V205.992H23.7064Z" fill="#47E6B1"/>
</g>
<g opacity="0.5">
<path opacity="0.5" d="M196.298 60.9568H194.724V69.8902H196.298V60.9568Z" fill="#47E6B1"/>
<path opacity="0.5" d="M199.97 66.2118V64.6353H191.052V66.2118H199.97Z" fill="#47E6B1"/>
</g>
<path opacity="0.5" d="M6.44727 106.995C6.01789 106.802 5.67403 106.458 5.48071 106.028C5.28739 105.598 5.258 105.112 5.39808 104.662C5.42051 104.592 5.4346 104.52 5.44005 104.446C5.45344 104.238 5.3994 104.032 5.28597 103.857C5.17255 103.682 5.00582 103.549 4.81062 103.477C4.61542 103.405 4.40219 103.398 4.20272 103.457C4.00324 103.516 3.82819 103.638 3.70365 103.805V103.805C3.66144 103.864 3.62623 103.928 3.59872 103.994C3.40586 104.425 3.06238 104.769 2.63321 104.963C2.20403 105.156 1.71891 105.186 1.26953 105.045C1.19975 105.023 1.12755 105.009 1.05445 105.003V105.003C0.846841 104.99 0.640463 105.044 0.466065 105.158C0.291666 105.271 0.158575 105.438 0.0866277 105.634C0.0146806 105.829 0.00772902 106.043 0.0668001 106.243C0.125871 106.443 0.247807 106.618 0.414442 106.743V106.743C0.473097 106.785 0.536477 106.82 0.603296 106.848C1.03268 107.041 1.37652 107.385 1.56984 107.815C1.76316 108.245 1.79257 108.731 1.65248 109.181C1.63005 109.251 1.61596 109.323 1.61051 109.397V109.397C1.59713 109.604 1.65117 109.811 1.76459 109.986C1.87801 110.161 2.04474 110.294 2.23995 110.366C2.43515 110.438 2.64837 110.445 2.84784 110.386C3.04732 110.327 3.22237 110.205 3.34692 110.038C3.38912 109.979 3.42433 109.915 3.45183 109.848C3.6447 109.418 3.98818 109.074 4.41736 108.88C4.84653 108.687 5.33165 108.657 5.78103 108.797C5.85082 108.82 5.92302 108.834 5.99612 108.839V108.839C6.20372 108.853 6.4101 108.799 6.5845 108.685C6.7589 108.572 6.89198 108.405 6.96393 108.209C7.03587 108.013 7.04283 107.8 6.98376 107.6C6.92469 107.4 6.80276 107.225 6.63612 107.1C6.57747 107.058 6.51409 107.023 6.44727 106.995V106.995Z" fill="#4D8AF0"/>
<path opacity="0.5" d="M337.99 378.673C337.561 378.48 337.217 378.136 337.024 377.706C336.83 377.276 336.801 376.79 336.941 376.34C336.964 376.27 336.978 376.198 336.983 376.125V376.125C336.996 375.917 336.942 375.71 336.829 375.535C336.716 375.361 336.549 375.227 336.354 375.155C336.158 375.083 335.945 375.076 335.746 375.135C335.546 375.195 335.371 375.317 335.247 375.484V375.484C335.204 375.542 335.169 375.606 335.142 375.673C334.949 376.103 334.605 376.447 334.176 376.641C333.747 376.835 333.262 376.864 332.813 376.724C332.743 376.701 332.671 376.687 332.597 376.682C332.39 376.668 332.183 376.722 332.009 376.836C331.835 376.95 331.702 377.117 331.63 377.312C331.558 377.508 331.551 377.721 331.61 377.921C331.669 378.121 331.791 378.296 331.957 378.421V378.421C332.016 378.463 332.079 378.499 332.146 378.526C332.576 378.719 332.92 379.063 333.113 379.493C333.306 379.923 333.336 380.409 333.195 380.859C333.173 380.929 333.159 381.002 333.154 381.075V381.075C333.14 381.283 333.194 381.49 333.308 381.664C333.421 381.839 333.588 381.972 333.783 382.044C333.978 382.116 334.191 382.123 334.391 382.064C334.59 382.005 334.765 381.883 334.89 381.716V381.716C334.932 381.657 334.967 381.594 334.995 381.527C335.188 381.097 335.531 380.752 335.96 380.559C336.39 380.365 336.875 380.335 337.324 380.476C337.394 380.498 337.466 380.512 337.539 380.518V380.518C337.747 380.531 337.953 380.477 338.127 380.363C338.302 380.25 338.435 380.083 338.507 379.887C338.579 379.692 338.586 379.478 338.527 379.278C338.468 379.079 338.346 378.903 338.179 378.778V378.778C338.12 378.736 338.057 378.701 337.99 378.673Z" fill="#4D8AF0"/>
<path opacity="0.5" d="M51.5623 243.097C51.1329 242.904 50.7891 242.56 50.5957 242.13C50.4024 241.7 50.373 241.214 50.5131 240.764C50.5355 240.694 50.5496 240.622 50.5551 240.548V240.548C50.5685 240.34 50.5144 240.134 50.401 239.959C50.2876 239.784 50.1208 239.651 49.9256 239.579C49.7304 239.507 49.5172 239.5 49.3177 239.559C49.1183 239.618 48.9432 239.74 48.8187 239.907V239.907C48.7765 239.966 48.7413 240.029 48.7137 240.096C48.5209 240.526 48.1774 240.871 47.7482 241.065C47.3191 241.258 46.8339 241.288 46.3845 241.147C46.3148 241.125 46.2426 241.111 46.1695 241.105V241.105C45.9619 241.092 45.7555 241.146 45.5811 241.26C45.4067 241.373 45.2736 241.54 45.2017 241.736C45.1297 241.931 45.1227 242.145 45.1818 242.345C45.2409 242.545 45.3628 242.72 45.5295 242.845V242.845C45.5881 242.887 45.6515 242.922 45.7183 242.95C46.1477 243.143 46.4915 243.487 46.6849 243.917C46.8782 244.347 46.9076 244.833 46.7675 245.283C46.7451 245.353 46.731 245.425 46.7255 245.498C46.7122 245.706 46.7662 245.913 46.8796 246.088C46.993 246.263 47.1598 246.396 47.355 246.468C47.5502 246.54 47.7634 246.547 47.9629 246.488C48.1624 246.429 48.3374 246.306 48.462 246.14V246.14C48.5042 246.081 48.5394 246.017 48.5669 245.95C48.7597 245.52 49.1032 245.176 49.5324 244.982C49.9616 244.788 50.4467 244.759 50.8961 244.899C50.9658 244.922 51.038 244.936 51.1111 244.941V244.941C51.3187 244.955 51.5251 244.901 51.6995 244.787C51.8739 244.673 52.007 244.506 52.079 244.311C52.1509 244.115 52.1579 243.902 52.0988 243.702C52.0397 243.502 51.9178 243.327 51.7511 243.202C51.6925 243.16 51.6291 243.124 51.5623 243.097Z" fill="#4D8AF0"/>
<g opacity="0.5">
<path opacity="0.5" d="M405.033 391.18H404.257V395.589H405.033V391.18Z" fill="#47E6B1"/>
<path opacity="0.5" d="M406.843 393.771V392.993H402.442V393.771H406.843Z" fill="#47E6B1"/>
</g>
<path opacity="0.5" d="M411.202 336.403C412.06 336.403 412.755 335.707 412.755 334.847C412.755 333.988 412.06 333.292 411.202 333.292C410.345 333.292 409.65 333.988 409.65 334.847C409.65 335.707 410.345 336.403 411.202 336.403Z" fill="#4D8AF0"/>
<g opacity="0.5">
<path opacity="0.5" d="M402.463 299.004H400.889V307.937H402.463V299.004Z" fill="#47E6B1"/>
<path opacity="0.5" d="M406.135 304.259V302.682H397.217V304.259H406.135Z" fill="#47E6B1"/>
</g>
<path opacity="0.5" d="M366.407 294.07C366.194 293.976 366.023 293.806 365.926 293.594C365.83 293.382 365.814 293.142 365.883 292.919C365.887 292.884 365.887 292.849 365.883 292.814C365.888 292.712 365.86 292.611 365.804 292.526C365.748 292.441 365.666 292.376 365.571 292.341C365.476 292.306 365.371 292.302 365.274 292.331C365.176 292.359 365.09 292.418 365.028 292.498V292.498C365.007 292.528 364.989 292.559 364.975 292.593C364.881 292.806 364.713 292.978 364.501 293.075C364.289 293.172 364.049 293.187 363.826 293.118H363.722C363.62 293.113 363.519 293.141 363.435 293.197C363.35 293.253 363.285 293.335 363.25 293.431C363.215 293.526 363.211 293.631 363.239 293.729C363.268 293.826 363.326 293.913 363.407 293.975V293.975C363.436 293.996 363.468 294.014 363.501 294.027C363.714 294.121 363.886 294.291 363.982 294.503C364.079 294.715 364.094 294.955 364.026 295.178C364.022 295.213 364.022 295.248 364.026 295.283C364.021 295.385 364.048 295.486 364.104 295.571C364.161 295.656 364.242 295.721 364.338 295.756C364.433 295.791 364.537 295.795 364.635 295.766C364.733 295.738 364.819 295.679 364.881 295.599V295.599C364.902 295.569 364.92 295.538 364.933 295.504C365.027 295.291 365.196 295.119 365.408 295.022C365.62 294.925 365.86 294.91 366.082 294.979H366.187C366.289 294.984 366.389 294.956 366.474 294.9C366.559 294.844 366.624 294.762 366.659 294.666C366.694 294.571 366.698 294.466 366.669 294.368C366.641 294.271 366.582 294.184 366.502 294.122V294.122C366.473 294.101 366.441 294.083 366.407 294.07V294.07Z" fill="#4D8AF0"/>
<g opacity="0.5">
<path opacity="0.5" d="M368.889 319.498H367.315V328.431H368.889V319.498Z" fill="#47E6B1"/>
<path opacity="0.5" d="M372.561 324.753V323.176H363.643V324.753H372.561Z" fill="#47E6B1"/>
</g>
<path opacity="0.5" d="M400.417 361.858C399.987 361.664 399.644 361.32 399.45 360.891C399.257 360.461 399.228 359.975 399.368 359.525C399.39 359.455 399.404 359.382 399.41 359.309V359.309C399.423 359.101 399.369 358.894 399.256 358.72C399.142 358.545 398.975 358.412 398.78 358.34C398.585 358.268 398.372 358.261 398.172 358.32C397.973 358.379 397.798 358.501 397.673 358.668V358.668C397.631 358.727 397.596 358.79 397.568 358.857C397.375 359.287 397.032 359.632 396.603 359.825C396.174 360.019 395.689 360.048 395.239 359.908C395.169 359.886 395.097 359.872 395.024 359.866V359.866C394.816 359.853 394.61 359.907 394.436 360.02C394.261 360.134 394.128 360.301 394.056 360.497C393.984 360.692 393.977 360.906 394.036 361.106C394.096 361.305 394.217 361.481 394.384 361.605V361.605C394.443 361.648 394.506 361.683 394.573 361.711C395.002 361.904 395.346 362.248 395.539 362.678C395.733 363.108 395.762 363.594 395.622 364.044C395.6 364.114 395.586 364.186 395.58 364.259V364.259C395.567 364.467 395.621 364.674 395.734 364.849C395.848 365.023 396.014 365.157 396.21 365.229C396.405 365.301 396.618 365.308 396.817 365.248C397.017 365.189 397.192 365.067 397.317 364.9V364.9C397.359 364.841 397.394 364.778 397.421 364.711C397.614 364.281 397.958 363.937 398.387 363.743C398.816 363.549 399.301 363.52 399.751 363.66C399.82 363.683 399.893 363.697 399.966 363.702V363.702C400.173 363.716 400.38 363.661 400.554 363.548C400.728 363.434 400.862 363.267 400.934 363.072C401.005 362.876 401.012 362.663 400.953 362.463C400.894 362.263 400.772 362.088 400.606 361.963V361.963C400.547 361.921 400.484 361.885 400.417 361.858V361.858Z" fill="#4D8AF0"/>
<path opacity="0.5" d="M221.531 379.724C221.101 379.531 220.757 379.187 220.564 378.757C220.371 378.327 220.341 377.841 220.481 377.391C220.504 377.321 220.518 377.249 220.523 377.176V377.176C220.537 376.968 220.483 376.761 220.369 376.586C220.256 376.412 220.089 376.278 219.894 376.206C219.699 376.134 219.485 376.127 219.286 376.186C219.087 376.246 218.911 376.368 218.787 376.535V376.535C218.745 376.593 218.709 376.657 218.682 376.724C218.489 377.154 218.146 377.498 217.716 377.692C217.287 377.886 216.802 377.915 216.353 377.775C216.283 377.752 216.211 377.738 216.138 377.733V377.733C215.93 377.719 215.724 377.773 215.549 377.887C215.375 378.001 215.242 378.168 215.17 378.363C215.098 378.559 215.091 378.772 215.15 378.972C215.209 379.172 215.331 379.347 215.498 379.472V379.472C215.556 379.514 215.62 379.55 215.687 379.577C216.116 379.77 216.46 380.114 216.653 380.544C216.846 380.974 216.876 381.46 216.736 381.91C216.713 381.98 216.699 382.053 216.694 382.126V382.126C216.68 382.334 216.734 382.541 216.848 382.715C216.961 382.89 217.128 383.023 217.323 383.095C217.518 383.167 217.732 383.174 217.931 383.115C218.131 383.056 218.306 382.934 218.43 382.767V382.767C218.472 382.708 218.508 382.645 218.535 382.578C218.728 382.148 219.071 381.803 219.501 381.61C219.93 381.416 220.415 381.386 220.864 381.527C220.934 381.549 221.006 381.563 221.079 381.569V381.569C221.287 381.582 221.493 381.528 221.668 381.414C221.842 381.301 221.975 381.134 222.047 380.938C222.119 380.743 222.126 380.529 222.067 380.329C222.008 380.13 221.886 379.954 221.719 379.829C221.661 379.787 221.597 379.752 221.531 379.724Z" fill="#4D8AF0"/>
<g opacity="0.5">
<path opacity="0.1" d="M256.301 97.6833C256.886 97.6807 257.463 97.546 257.99 97.2892C258.247 97.3444 258.509 97.3726 258.771 97.3733C260.76 97.3733 262.507 95.7968 263.493 93.4479C264.128 95.7338 265.539 97.3943 267.391 97.7043C267.968 97.8 268.56 97.7641 269.122 97.5992C269.367 97.6975 269.622 97.7697 269.882 97.8147C272.914 98.3402 275.989 95.0506 276.76 90.4999C277.531 85.9491 275.711 81.8398 272.663 81.3301C272.085 81.2344 271.493 81.2704 270.932 81.4352C270.686 81.3369 270.431 81.2647 270.171 81.2197C267.726 80.8046 265.25 82.8592 263.986 86.0542C263.188 82.9013 261.158 80.6522 258.782 80.6522C258.196 80.6548 257.619 80.7895 257.093 81.0463C256.836 80.9911 256.574 80.9629 256.311 80.9622C253.237 80.9622 250.745 84.7037 250.745 89.3228C250.745 93.9418 253.226 97.6833 256.301 97.6833Z" fill="url(#paint1_linear_5_732)"/>
<path opacity="0.1" d="M272.608 104.386C274.162 102.249 274.556 99.8852 273.488 99.1061C272.42 98.327 270.295 99.4277 268.741 101.565C267.187 103.701 266.793 106.065 267.861 106.844C268.929 107.623 271.054 106.523 272.608 104.386Z" fill="url(#paint2_linear_5_732)"/>
<path opacity="0.1" d="M286.344 89.3543C285.804 89.1269 285.219 89.0246 284.634 89.0548C284.419 88.9033 284.188 88.7747 283.947 88.6712C281.119 87.4678 277.363 89.9376 275.553 94.1836C273.743 98.4295 274.583 102.854 277.41 104.058C277.951 104.285 278.535 104.387 279.12 104.357C279.336 104.509 279.566 104.637 279.808 104.741C282.635 105.944 286.391 103.474 288.201 99.2283C290.011 94.9823 289.172 90.5577 286.344 89.3543Z" fill="url(#paint3_linear_5_732)"/>
<path opacity="0.1" d="M280.347 112.538C282.352 110.828 283.285 108.627 282.43 107.621C281.576 106.616 279.257 107.187 277.252 108.897C275.247 110.607 274.314 112.809 275.168 113.814C276.023 114.82 278.341 114.248 280.347 112.538Z" fill="url(#paint4_linear_5_732)"/>
<path opacity="0.1" d="M242.724 97.8094C242.985 97.7645 243.239 97.6923 243.485 97.594C244.047 97.7588 244.638 97.7947 245.216 97.6991C248.248 97.1736 250.079 93.08 249.313 88.5293C248.547 83.9785 245.473 80.6785 242.436 81.204C242.199 81.2447 241.967 81.308 241.743 81.3931H241.659C241.102 81.2305 240.516 81.1946 239.944 81.288C236.912 81.8135 235.081 85.9071 235.847 90.4578C236.613 95.0086 239.702 98.3244 242.724 97.8094Z" fill="url(#paint5_linear_5_732)"/>
<path opacity="0.1" d="M244.256 102.434C242.682 100.306 239.535 99.985 239.535 99.985C239.535 99.985 238.868 103.138 240.421 105.24C241.974 107.342 244.093 108.466 245.142 107.689C246.192 106.911 245.809 104.567 244.256 102.434Z" fill="url(#paint6_linear_5_732)"/>
<path opacity="0.1" d="M277.321 115.329C276.255 115.366 275.191 115.222 274.174 114.904C274.509 113.889 274.639 112.817 274.556 111.751C274.394 109.123 271.881 107.132 271.881 107.132C271.144 107.924 270.561 108.847 270.16 109.854C269.777 109.778 269.387 109.742 268.996 109.749C268.182 109.753 267.37 109.804 266.562 109.901C266.904 108.567 266.845 107.161 266.394 105.86C265.717 103.642 263.398 102.334 262.842 102.05C262.852 101.002 262.674 99.9612 262.318 98.976C262.318 98.976 259.228 99.8221 258.053 102.182C256.878 104.541 256.872 106.911 258.053 107.521C259.023 108.009 260.492 107.116 261.641 105.466C261.598 106.07 261.664 106.677 261.835 107.258C262.158 108.408 262.746 109.466 263.551 110.348C261.401 110.795 259.209 111.004 257.014 110.973C257.822 110.106 257.701 107.993 256.657 105.902C255.477 103.543 252.392 102.697 252.392 102.697C252.392 102.697 251.212 105.676 252.392 108.035C252.845 108.974 253.473 109.816 254.244 110.516C253.57 110.323 252.915 110.068 252.287 109.754C251.586 109.408 250.849 109.14 250.089 108.955C250.38 108.416 250.616 107.849 250.792 107.263C251.564 104.741 249.906 102.008 249.906 102.008C249.906 102.008 247 103.353 246.234 105.881C245.967 106.731 245.836 107.618 245.845 108.508C243.313 108.581 240.802 108.996 238.38 109.743C257.848 145.986 246.716 171.063 246.716 171.063H263.409C252.293 140.411 285.667 115.329 277.321 115.329Z" fill="url(#paint7_linear_5_732)"/>
</g>
<path d="M257.638 147.085V95.2346" stroke="#3AD29F" stroke-width="3" stroke-miterlimit="10"/>
<path d="M258.85 81.5876C258.278 81.5896 257.713 81.7207 257.198 81.9712C256.946 81.9165 256.689 81.8884 256.432 81.8871C253.421 81.8871 250.981 85.5655 250.981 90.0743C250.981 94.583 253.421 98.2614 256.432 98.2614C257.004 98.2594 257.569 98.1283 258.084 97.8778C258.336 97.9324 258.593 97.9606 258.85 97.9619C261.861 97.9619 264.301 94.2834 264.301 89.7747C264.301 85.266 261.861 81.5876 258.85 81.5876Z" fill="#F55F44"/>
<path d="M262.326 104.795C263.479 102.484 263.479 100.143 262.326 99.5657C261.173 98.988 259.303 100.393 258.15 102.703C256.996 105.013 256.996 107.354 258.149 107.932C259.303 108.509 261.172 107.105 262.326 104.795Z" fill="#3AD29F"/>
<path d="M256.772 111.513C257.925 110.935 257.925 108.594 256.772 106.284C255.618 103.974 253.749 102.569 252.595 103.147C251.442 103.725 251.443 106.066 252.596 108.376C253.749 110.686 255.619 112.09 256.772 111.513Z" fill="#3AD29F"/>
<path d="M260.377 146.627L268.985 95.5026" stroke="#3AD29F" stroke-width="3" stroke-miterlimit="10"/>
<path d="M272.442 82.255C271.877 82.162 271.298 82.1979 270.748 82.3601C270.508 82.2641 270.258 82.1936 270.003 82.1499C267.034 81.6244 264.023 84.8561 263.272 89.3123C262.522 93.7684 264.322 97.7937 267.286 98.2929C267.851 98.3859 268.43 98.3499 268.98 98.1878C269.22 98.2838 269.47 98.3542 269.725 98.398C272.694 98.9235 275.705 95.6917 276.455 91.2356C277.206 86.7794 275.412 82.7489 272.442 82.255Z" fill="#F55F44"/>
<path d="M271.995 105.677C273.516 103.591 273.905 101.283 272.864 100.521C271.822 99.7594 269.746 100.833 268.225 102.919C266.704 105.005 266.315 107.313 267.357 108.075C268.398 108.837 270.475 107.763 271.995 105.677Z" fill="#3AD29F"/>
<path d="M265.425 111.443C266.658 111.065 267.047 108.757 266.293 106.287C265.54 103.816 263.93 102.12 262.697 102.497C261.464 102.875 261.075 105.183 261.828 107.653C262.582 110.124 264.192 111.82 265.425 111.443Z" fill="#3AD29F"/>
<path d="M259.16 149.917L279.404 102.197" stroke="#3AD29F" stroke-width="3" stroke-miterlimit="10"/>
<path d="M285.867 90.1373C285.338 89.9144 284.766 89.8138 284.193 89.843C283.983 89.6938 283.758 89.567 283.522 89.4647C280.726 88.2613 277.054 90.6628 275.286 94.8667C273.518 99.0706 274.336 103.359 277.106 104.536C277.635 104.759 278.207 104.859 278.779 104.83C278.989 104.979 279.215 105.106 279.451 105.208C282.221 106.385 285.898 103.968 287.661 99.8063C289.423 95.6444 288.616 91.2881 285.867 90.1373Z" fill="#F55F44"/>
<path d="M279.974 112.813C281.937 111.138 282.851 108.984 282.016 108C281.18 107.017 278.911 107.577 276.947 109.252C274.984 110.926 274.07 113.081 274.906 114.064C275.741 115.047 278.01 114.487 279.974 112.813Z" fill="#3AD29F"/>
<path d="M272.233 116.887C273.52 116.808 274.434 114.653 274.274 112.075C274.115 109.497 272.943 107.472 271.656 107.551C270.369 107.631 269.455 109.786 269.615 112.364C269.774 114.942 270.946 116.967 272.233 116.887Z" fill="#3AD29F"/>
<path d="M252.487 146.627L243.873 95.5026" stroke="#3AD29F" stroke-width="3" stroke-miterlimit="10"/>
<path d="M240.411 82.255C240.976 82.162 241.555 82.1979 242.105 82.3601C242.345 82.2641 242.595 82.1936 242.85 82.1499C245.819 81.6244 248.83 84.8561 249.581 89.3123C250.331 93.7684 248.531 97.7937 245.567 98.2929C245.002 98.3859 244.423 98.3499 243.873 98.1878C243.633 98.2838 243.383 98.3542 243.128 98.398C240.159 98.9235 237.148 95.6917 236.398 91.2356C235.647 86.7794 237.447 82.7489 240.411 82.255Z" fill="#F55F44"/>
<path d="M245.501 108.08C246.542 107.318 246.153 105.009 244.632 102.924C243.112 100.838 241.035 99.764 239.993 100.526C238.952 101.287 239.341 103.596 240.862 105.682C242.382 107.768 244.459 108.841 245.501 108.08Z" fill="#3AD29F"/>
<path d="M250.755 106.082C251.503 103.602 251.106 101.289 249.868 100.914C248.631 100.54 247.021 102.246 246.273 104.726C245.525 107.205 245.923 109.519 247.16 109.894C248.398 110.268 250.008 108.562 250.755 106.082Z" fill="#3AD29F"/>
<path d="M238.874 110.106C238.874 110.106 247.047 107.379 252.513 110.106C257.979 112.833 263.409 110.106 268.859 110.106C274.31 110.106 268.859 115.566 277.033 115.566C285.206 115.566 252.513 140.127 263.393 170.143H247.047C247.047 170.143 257.943 145.566 238.874 110.106Z" fill="#F5F5F5"/>
<path opacity="0.1" d="M241.371 82.5335L242.31 85.3501L242.829 82.1656L241.371 82.5335Z" fill="black"/>
<path opacity="0.1" d="M256.379 82.4284L257.318 85.245L257.838 82.0605L256.379 82.4284Z" fill="black"/>
<path opacity="0.1" d="M270.181 82.7962L270.674 85.7284L271.676 82.6596L270.181 82.7962Z" fill="black"/>
<path opacity="0.1" d="M283.506 89.9113L283.249 92.8699L284.991 90.1583L283.506 89.9113Z" fill="black"/>
<path opacity="0.1" d="M248.406 109.312C248.406 109.312 253.567 131.866 253.567 140.316C253.567 148.766 252.162 169.917 252.162 169.917H254.04C254.04 169.917 252.156 113.07 251.244 109.78L248.406 109.312Z" fill="black"/>
<path opacity="0.1" d="M260.13 111.188C260.13 111.188 255.44 131.861 255.44 140.322C255.44 148.782 256.846 169.922 256.846 169.922H254.968C254.968 169.922 256.374 114.951 257.313 111.661L260.13 111.188Z" fill="black"/>
<path opacity="0.1" d="M264.358 110.721C264.358 110.721 259.196 131.861 259.196 140.322C259.196 148.782 260.602 169.922 260.602 169.922H258.724C258.724 169.922 260.602 114.483 261.536 111.194L264.358 110.721Z" fill="black"/>
<g opacity="0.5">
<path opacity="0.5" d="M265.25 138.803C262.858 131.614 248.636 141.331 248.636 141.331L247.466 142.907L222.181 177.148L160.242 142.466V126.948C163.159 126.624 165.979 125.706 168.528 124.251C171.078 122.795 173.303 120.831 175.066 118.482C176.83 116.133 178.095 113.446 178.783 110.589C179.472 107.731 179.569 104.763 179.07 101.866C182.186 100.663 184.725 98.0669 187.065 95.5604C189.221 93.264 191.529 90.4789 191.309 87.4205C191.344 86.932 191.316 86.4409 191.225 85.9596C190.732 83.3795 188.402 81.4982 185.937 80.5997C183.471 79.7011 180.806 79.5487 178.231 79.0232C172.093 77.8198 166.548 74.6091 160.562 72.7909C157.844 71.9716 155.046 71.4431 152.216 71.2144C150.186 71.0462 148.072 71.0462 146.215 71.8818C144.179 72.8014 142.705 74.5985 141.068 76.1277C139.09 77.9729 136.807 79.461 134.322 80.5261C130.613 82.1026 126.453 82.7489 123.112 84.977C122.184 85.5368 121.407 86.3164 120.851 87.2471C120.362 88.2483 120.154 89.3633 120.247 90.4736C120.232 91.4522 120.306 92.4301 120.468 93.3953C121.055 97.5152 121.732 101.735 123.815 105.334C125.514 108.277 128.058 110.621 130.556 112.923L136.174 118.083C137.312 119.134 138.571 120.427 140.04 120.947C139.946 120.264 140.334 119.544 140.911 118.845L139.091 131.593C135.702 130.536 132.179 129.975 128.63 129.927C123.846 129.87 119.004 130.737 116.911 134C116.788 134.198 116.681 134.405 116.591 134.62C109.997 142.46 94.8832 167.852 103.77 229.524C103.009 237.07 102.553 241.846 102.553 241.846L102.605 242.603L102.553 243.176L102.658 243.26L107.605 311.369L98.0622 378.463H100.161V385.92H97.7685V397.901C97.7685 397.901 130.996 395.773 136.064 388.316C140.261 382.131 119.371 384.559 112.137 385.568V380.996H112.268V378.468H114.792L124.355 332.914C134.191 315.872 129.139 273.265 129.139 273.265L141.079 280.47L150.647 330.533L143.497 404.827H145.622V410.019H142.831V422C142.831 422 176.059 419.872 181.126 412.415C185.323 406.23 164.444 408.658 157.21 409.667L156.408 404.827H157.866L167.434 337.722C172.156 319.54 165.719 266.192 164.869 259.361L176.741 180.879L176.573 180.653L176.741 179.544L224.589 196.323C224.589 196.323 229.373 201.116 234.294 186.864C238.889 173.548 251.495 155.697 253.127 153.422L253.3 153.18C253.3 153.18 267.642 145.992 265.25 138.803Z" fill="url(#paint8_linear_5_732)"/>
</g>
<path d="M102.301 372.678V384.343H113.947V368.006L102.301 372.678Z" fill="#9F616A"/>
<path d="M146.566 396.015V410.014L158.217 407.68L155.888 393.681L146.566 396.015Z" fill="#9F616A"/>
<path d="M121.066 134.751C121.066 134.751 93.2622 155.624 106.959 237.311L121.066 134.751Z" fill="#F55F44"/>
<path d="M121.066 134.751C121.066 134.751 93.2622 155.624 106.959 237.311L121.066 134.751Z" fill="#3AD29F"/>
<path opacity="0.05" d="M157.179 403.145L156.014 396.141L146.697 398.474V403.145H157.179Z" fill="black"/>
<path opacity="0.05" d="M102.427 377.47H114.078V370.47L102.427 375.137V377.47Z" fill="black"/>
<path d="M142.165 120.878L139.836 137.216L160.804 148.887V125.545L142.165 120.878Z" fill="#9F616A"/>
<path d="M100.229 375.005L109.551 309.655L104.63 242.004L165.21 258.294C165.21 258.294 172.717 316.382 167.796 335.31L158.474 400.702H144.494L151.482 328.352L142.16 279.603L130.508 272.603C130.508 272.603 135.429 314.117 125.85 330.691L116.538 375.005H100.229Z" fill="#FF7876"/>
<path d="M263.057 141.635C260.728 134.636 246.879 144.1 246.879 144.1L245.741 145.645L251.244 155.866L251.417 155.629C251.417 155.629 265.408 148.624 263.057 141.635Z" fill="#9F616A"/>
<path opacity="0.05" d="M141.908 135.918C141.908 135.918 123.269 130.989 118.611 138.251C113.952 145.513 104.63 243.276 104.63 243.276C104.63 243.276 132.329 266.613 165.205 259.613L176.856 182.597L141.908 135.918Z" fill="black"/>
<path d="M221.121 178.945L147.484 137.747C142.147 134.738 136.144 133.112 130.02 133.017C125.362 132.959 120.646 133.806 118.611 136.979C113.947 144.215 104.63 242.004 104.63 242.004C104.63 242.004 132.329 265.315 165.21 258.294L176.856 181.299L223.44 197.637C223.44 197.637 228.098 202.303 232.883 188.43C237.358 175.461 249.633 158.083 251.243 155.85L245.735 145.634L221.121 178.945Z" fill="#3AD29F"/>
<path opacity="0.05" d="M141.85 124.504C143.809 127.011 146.313 129.038 149.17 130.431C152.028 131.824 155.165 132.547 158.343 132.544C159.121 132.543 159.899 132.5 160.672 132.413V127.878L142.034 123.212L141.85 124.504Z" fill="black"/>
<path d="M158.474 130.216C170.055 130.216 179.442 120.813 179.442 109.213C179.442 97.6125 170.055 88.2087 158.474 88.2087C146.894 88.2087 137.506 97.6125 137.506 109.213C137.506 120.813 146.894 130.216 158.474 130.216Z" fill="#9F616A"/>
<path d="M99.9665 382.268V393.939C99.9665 393.939 132.323 391.863 137.244 384.601C142.165 377.339 111.618 382.268 111.618 382.268H99.9665Z" fill="#333333"/>
<path d="M143.849 405.736V417.407C143.849 417.407 176.227 415.332 181.126 408.059C186.026 400.786 155.5 405.726 155.5 405.726L143.849 405.736Z" fill="#333333"/>
<path opacity="0.05" d="M145.176 118.834L153.37 107.09C154.582 105.35 155.825 103.579 157.525 102.308C159.225 101.036 161.48 100.327 163.495 100.978C164.712 101.372 165.724 102.213 166.758 102.965C169.816 105.193 173.577 106.848 177.318 106.175C181.216 105.471 184.211 102.423 186.923 99.5331C189.174 97.1368 191.592 94.1941 190.973 90.9623C190.49 88.4505 188.224 86.6218 185.821 85.7442C183.419 84.8666 180.827 84.7247 178.32 84.2308C172.345 83.0589 166.941 79.9323 161.113 78.1614C158.466 77.3493 155.74 76.8209 152.982 76.5849C151.004 76.422 148.943 76.422 147.138 77.2365C145.155 78.1298 143.718 79.864 142.128 81.3721C140.202 83.1687 137.98 84.6176 135.56 85.6549C131.951 87.1998 127.917 87.8199 124.643 89.9902C123.741 90.5363 122.986 91.296 122.445 92.2025C121.606 93.7789 121.821 95.6602 122.073 97.4153C122.645 101.425 123.3 105.534 125.331 109.039C126.988 111.903 129.459 114.189 131.899 116.428L137.37 121.457C138.477 122.476 139.704 123.737 141.137 124.247C140.88 122.444 144.143 120.316 145.176 118.834Z" fill="black"/>
<path d="M145.176 118.057L153.37 106.312C154.582 104.573 155.825 102.802 157.525 101.53C159.225 100.258 161.48 99.5488 163.495 100.2C164.712 100.595 165.724 101.435 166.758 102.187C169.816 104.415 173.577 106.07 177.318 105.398C181.216 104.693 184.211 101.646 186.923 98.7553C189.174 96.3591 191.592 93.4164 190.973 90.1846C190.49 87.6728 188.224 85.8441 185.821 84.9665C183.419 84.0889 180.827 83.947 178.32 83.4531C172.345 82.2812 166.941 79.1546 161.113 77.3837C158.466 76.5716 155.74 76.0431 152.982 75.8072C151.004 75.6443 148.943 75.6443 147.138 76.4588C145.155 77.3521 143.718 79.0863 142.128 80.5944C140.202 82.3928 137.98 83.8436 135.56 84.8824C131.951 86.4274 127.917 87.0474 124.643 89.2177C123.741 89.7639 122.986 90.5235 122.445 91.43C121.606 93.0065 121.821 94.8877 122.073 96.6429C122.645 100.652 123.3 104.762 125.331 108.267C126.988 111.131 129.459 113.417 131.899 115.655L137.37 120.684C138.477 121.703 139.704 122.965 141.137 123.474C140.88 121.667 144.143 119.538 145.176 118.057Z" fill="#333333"/>
</g>
<defs>
<linearGradient id="paint0_linear_5_732" x1="305.45" y1="350.034" x2="305.45" y2="-3.25952e-07" gradientUnits="userSpaceOnUse">
<stop stop-color="#808080" stop-opacity="0.25"/>
<stop offset="0.54" stop-color="#808080" stop-opacity="0.12"/>
<stop offset="1" stop-color="#808080" stop-opacity="0.1"/>
</linearGradient>
<linearGradient id="paint1_linear_5_732" x1="18453.8" y1="4121.64" x2="18453.8" y2="3557.76" gradientUnits="userSpaceOnUse">
<stop stop-color="#808080" stop-opacity="0.25"/>
<stop offset="0.54" stop-color="#808080" stop-opacity="0.12"/>
<stop offset="1" stop-color="#808080" stop-opacity="0.1"/>
</linearGradient>
<linearGradient id="paint2_linear_5_732" x1="7022.84" y1="1308.94" x2="7022.75" y2="1236.29" gradientUnits="userSpaceOnUse">
<stop stop-color="#808080" stop-opacity="0.25"/>
<stop offset="0.54" stop-color="#808080" stop-opacity="0.12"/>
<stop offset="1" stop-color="#808080" stop-opacity="0.1"/>
</linearGradient>
<linearGradient id="paint3_linear_5_732" x1="10893.9" y1="4230.84" x2="10893.9" y2="3701.3" gradientUnits="userSpaceOnUse">
<stop stop-color="#808080" stop-opacity="0.25"/>
<stop offset="0.54" stop-color="#808080" stop-opacity="0.12"/>
<stop offset="1" stop-color="#808080" stop-opacity="0.1"/>
</linearGradient>
<linearGradient id="paint4_linear_5_732" x1="7171.45" y1="1380.17" x2="7171.45" y2="1318.86" gradientUnits="userSpaceOnUse">
<stop stop-color="#808080" stop-opacity="0.25"/>
<stop offset="0.54" stop-color="#808080" stop-opacity="0.12"/>
<stop offset="1" stop-color="#808080" stop-opacity="0.1"/>
</linearGradient>
<linearGradient id="paint5_linear_5_732" x1="9277.09" y1="4003.74" x2="9277.09" y2="3472.6" gradientUnits="userSpaceOnUse">
<stop stop-color="#808080" stop-opacity="0.25"/>
<stop offset="0.54" stop-color="#808080" stop-opacity="0.12"/>
<stop offset="1" stop-color="#808080" stop-opacity="0.1"/>
</linearGradient>
<linearGradient id="paint6_linear_5_732" x1="4388.57" y1="2118.67" x2="4388.57" y2="1998.14" gradientUnits="userSpaceOnUse">
<stop stop-color="#808080" stop-opacity="0.25"/>
<stop offset="0.54" stop-color="#808080" stop-opacity="0.12"/>
<stop offset="1" stop-color="#808080" stop-opacity="0.1"/>
</linearGradient>
<linearGradient id="paint7_linear_5_732" x1="27836.4" y1="27060.1" x2="27836.4" y2="17171.3" gradientUnits="userSpaceOnUse">
<stop stop-color="#808080" stop-opacity="0.25"/>
<stop offset="0.54" stop-color="#808080" stop-opacity="0.12"/>
<stop offset="1" stop-color="#808080" stop-opacity="0.1"/>
</linearGradient>
<linearGradient id="paint8_linear_5_732" x1="63583.1" y1="181718" x2="117223" y2="181718" gradientUnits="userSpaceOnUse">
<stop stop-color="#808080" stop-opacity="0.25"/>
<stop offset="0.54" stop-color="#808080" stop-opacity="0.12"/>
<stop offset="1" stop-color="#808080" stop-opacity="0.1"/>
</linearGradient>
<clipPath id="clip0_5_732">
<rect width="428" height="422" fill="white"/>
</clipPath>
</defs>
</svg>
