<svg width="406" height="258" viewBox="0 0 406 258" fill="none" xmlns="http://www.w3.org/2000/svg">
<g clip-path="url(#clip0_5_1101)">
<path d="M269.365 88.2347L131.806 0L110.873 35.8702C116.526 39.72 120.523 45.7311 122.013 52.624C123.503 59.517 122.368 66.7473 118.85 72.7762C115.332 78.805 109.708 83.1562 103.176 84.9035C96.6438 86.6509 89.7191 85.6564 83.8758 82.1318L77.0829 93.772H135.067V167.383L276.34 258L305.908 207.333H269.365V88.2347Z" fill="#F2F2F2"/>
<path d="M201.7 197.346C215.459 197.346 226.612 195.539 226.612 193.309C226.612 191.079 215.459 189.272 201.7 189.272C187.941 189.272 176.788 191.079 176.788 193.309C176.788 195.539 187.941 197.346 201.7 197.346Z" fill="#FF7876"/>
<path d="M202.506 157.553L227.607 127.449C229.443 125.481 230.891 123.153 231.87 120.598C232.848 118.043 233.336 115.311 233.307 112.558C233.278 109.805 232.733 107.085 231.701 104.553C230.669 102.022 229.172 99.7278 227.295 97.8026C225.418 95.8775 223.197 94.3588 220.76 93.3333C218.323 92.3078 215.718 91.7957 213.092 91.826C210.466 91.8563 207.871 92.4286 205.457 93.5101C203.042 94.5916 200.854 96.1612 199.017 98.1292C197.14 96.2041 194.92 94.6854 192.483 93.66C190.046 92.6345 187.44 92.1223 184.814 92.1526C182.188 92.183 179.594 92.7552 177.179 93.8367C174.764 94.9182 172.576 96.4878 170.74 98.4559C168.903 100.424 167.455 102.752 166.477 105.307C165.499 107.862 165.01 110.594 165.039 113.347C165.068 116.1 165.614 118.82 166.645 121.351C167.677 123.883 169.174 126.177 171.051 128.102L198.977 157.553" fill="#FF7876"/>
<path d="M135.851 93.361H0.39209V222.132H135.851V93.361Z" stroke="#3F3D56" stroke-width="2" stroke-miterlimit="10"/>
<path d="M405.608 78.1515H270.149V206.922H405.608V78.1515Z" stroke="#3F3D56" stroke-width="2" stroke-miterlimit="10"/>
<path d="M97.8183 76.9841C107.13 76.9841 114.678 69.0704 114.678 59.3083C114.678 49.5462 107.13 41.6324 97.8183 41.6324C88.5069 41.6324 80.9585 49.5462 80.9585 59.3083C80.9585 69.0704 88.5069 76.9841 97.8183 76.9841Z" fill="#FF7876"/>
<path d="M137.811 155.498C137.811 155.498 158.984 147.687 168.002 158.375C177.02 169.063 202.114 152.209 202.114 152.209" stroke="#3F3D56" stroke-width="2" stroke-miterlimit="10"/>
<path d="M309.938 158.375C309.938 158.375 306.017 148.51 279.355 157.553C252.693 166.597 215.053 166.185 205.643 152.209L230.743 122.105C232.58 120.137 234.028 117.809 235.006 115.254C235.984 112.699 236.473 109.967 236.444 107.214C236.415 104.461 235.869 101.741 234.838 99.2096C233.806 96.6779 232.309 94.3839 230.432 92.4588C228.555 90.5336 226.334 89.0149 223.897 87.9895C221.46 86.964 218.854 86.4518 216.228 86.4821C213.603 86.5125 211.008 87.0847 208.593 88.1663C206.178 89.2478 203.99 90.8173 202.154 92.7854C198.363 88.8974 193.254 86.7475 187.951 86.8088C182.648 86.87 177.585 89.1374 173.876 93.112C170.168 97.0867 168.117 102.443 168.176 108.003C168.234 113.563 170.397 118.87 174.188 122.758L202.114 152.209" stroke="#3F3D56" stroke-width="2" stroke-miterlimit="10"/>
<path d="M204.88 193.991C218.639 193.991 229.792 192.184 229.792 189.954C229.792 187.724 218.639 185.917 204.88 185.917C191.122 185.917 179.968 187.724 179.968 189.954C179.968 192.184 191.122 193.991 204.88 193.991Z" stroke="#3F3D56" stroke-width="2" stroke-miterlimit="10"/>
<path d="M202.23 221.533C213.061 221.533 221.842 220.11 221.842 218.355C221.842 216.6 213.061 215.177 202.23 215.177C191.399 215.177 182.618 216.6 182.618 218.355C182.618 220.11 191.399 221.533 202.23 221.533Z" fill="#FF7876"/>
<path d="M202.23 244.699C209.548 244.699 215.481 243.738 215.481 242.552C215.481 241.365 209.548 240.404 202.23 240.404C194.912 240.404 188.979 241.365 188.979 242.552C188.979 243.738 194.912 244.699 202.23 244.699Z" fill="#FF7876"/>
<path d="M204.88 218.702C215.711 218.702 224.492 217.279 224.492 215.524C224.492 213.768 215.711 212.345 204.88 212.345C194.049 212.345 185.269 213.768 185.269 215.524C185.269 217.279 194.049 218.702 204.88 218.702Z" stroke="#3F3D56" stroke-width="2" stroke-miterlimit="10"/>
<path d="M204.88 242.568C212.199 242.568 218.131 241.606 218.131 240.42C218.131 239.234 212.199 238.273 204.88 238.273C197.562 238.273 191.629 239.234 191.629 240.42C191.629 241.606 197.562 242.568 204.88 242.568Z" stroke="#3F3D56" stroke-width="2" stroke-miterlimit="10"/>
<path d="M79.4366 160.618C86.6372 160.618 92.4744 154.499 92.4744 146.949C92.4744 139.4 86.6372 133.281 79.4366 133.281C72.236 133.281 66.3987 139.4 66.3987 146.949C66.3987 154.499 72.236 160.618 79.4366 160.618Z" fill="#2F2E41"/>
<path d="M73.2128 153.855C73.2128 153.855 68.9661 163.713 67.7528 164.031C66.5395 164.349 77.7628 170.074 77.7628 170.074C77.7628 170.074 79.8861 157.989 80.7961 157.353C81.7061 156.717 73.2128 153.855 73.2128 153.855Z" fill="#FFB9B9"/>
<path d="M79.5828 161.169C84.441 161.169 88.3794 157.04 88.3794 151.947C88.3794 146.854 84.441 142.725 79.5828 142.725C74.7245 142.725 70.7861 146.854 70.7861 151.947C70.7861 157.04 74.7245 161.169 79.5828 161.169Z" fill="#FFB9B9"/>
<path d="M86.9496 222.131H49.5443C50.7951 217.367 52.1321 212.644 52.8849 210.021C53.2652 208.706 53.4966 207.917 53.4966 207.917C53.4966 207.917 81.7073 214.276 82.3112 214.597C82.6508 214.977 82.9517 215.393 83.209 215.838C84.0912 217.195 85.4988 219.525 86.9496 222.131Z" fill="#2F2E41"/>
<path d="M40.4529 132.23L31.3529 117.602C31.3529 117.602 33.6033 102.256 30.57 105.118C27.5367 107.98 26.5767 119.538 26.5767 119.538L37.1162 136.364L40.4529 132.23Z" fill="#FFB9B9"/>
<path d="M122.959 158.943L131.149 158.307C131.149 158.307 140.856 147.495 141.462 150.993C142.069 154.491 133.576 162.123 133.576 162.123L122.353 163.395L122.959 158.943Z" fill="#FFB9B9"/>
<path d="M63.2028 162.123V158.943C63.2028 158.943 55.3162 153.537 55.6195 152.583C55.9229 151.629 55.0129 150.993 55.0129 150.993C55.0129 150.993 54.1029 149.721 54.1029 149.403C54.1029 149.085 52.8896 148.767 52.8896 148.767L45.3063 139.544C45.3063 139.544 41.0596 130.64 40.1496 130.958C39.2396 131.276 34.3863 133.184 34.993 134.456C35.5996 135.728 52.5862 163.077 52.5862 163.077C52.5862 163.077 53.4962 169.12 55.0129 169.12C56.5295 169.12 63.2028 162.123 63.2028 162.123Z" fill="#3F3D56"/>
<path d="M83.5261 165.94C83.5261 165.94 90.1994 165.622 90.5027 165.94C90.806 166.258 95.0527 165.94 95.0527 165.94C95.0527 165.94 106.579 163.077 107.489 162.123C108.399 161.169 123.566 157.035 124.173 158.943C124.779 160.851 126.296 164.668 124.779 165.304C123.263 165.94 82.3127 176.752 82.3127 176.752L83.5261 165.94Z" fill="#3F3D56"/>
<path d="M74.8757 138.219C77.8553 138.219 80.2707 135.687 80.2707 132.563C80.2707 129.439 77.8553 126.907 74.8757 126.907C71.8962 126.907 69.4808 129.439 69.4808 132.563C69.4808 135.687 71.8962 138.219 74.8757 138.219Z" fill="#2F2E41"/>
<path d="M67.6824 129.499C67.6825 128.101 68.1764 126.753 69.0689 125.714C69.9614 124.675 71.1891 124.02 72.5154 123.874C72.3287 123.854 72.1411 123.843 71.9534 123.843C70.5226 123.843 69.1504 124.439 68.1386 125.5C67.1269 126.561 66.5585 127.999 66.5585 129.499C66.5585 130.999 67.1269 132.438 68.1386 133.499C69.1504 134.559 70.5226 135.155 71.9534 135.155C72.1411 135.155 72.3287 135.145 72.5154 135.125C71.1891 134.979 69.9614 134.324 69.0689 133.285C68.1764 132.246 67.6825 130.897 67.6824 129.499Z" fill="#2F2E41"/>
<path d="M80.9532 149.707C85.9191 149.707 89.9448 147.175 89.9448 144.051C89.9448 140.927 85.9191 138.395 80.9532 138.395C75.9873 138.395 71.9616 140.927 71.9616 144.051C71.9616 147.175 75.9873 149.707 80.9532 149.707Z" fill="#2F2E41"/>
<path d="M70.6345 158.784C70.6345 158.784 67.9045 161.01 67.2978 161.328C66.6912 161.646 63.0512 158.466 62.4445 158.466C61.8378 158.466 53.9512 168.007 53.9512 168.007C53.9512 168.007 55.4169 169.777 53.9512 178.819C53.4015 182.21 52.311 196.709 52.311 198.617C52.311 200.525 46.3679 205.214 51.8279 209.348C57.2879 213.483 83.3744 217.935 83.6777 215.391C83.9811 212.847 80.6444 206.168 82.1611 202.988C83.6777 199.808 83.6777 188.041 83.6777 188.041L85.4977 175.639L87.0144 165.781C87.0144 165.781 79.8861 163.713 79.2794 163.713C78.6728 163.713 75.9428 168.166 70.6345 158.784Z" fill="#3F3D56"/>
<path d="M343.975 128.411L337.768 128.663L338.077 137.03L344.284 136.778L343.975 128.411Z" fill="#FF7876"/>
<path d="M315.975 157.713C315.975 157.713 307.379 153.407 307.516 157.126C307.654 160.844 316.181 163.291 316.181 163.291L315.975 157.713Z" fill="#9F616A"/>
<path d="M355.946 206.922H315.173C316.023 202.737 317.643 197.69 318.909 194.052C319.913 191.174 320.689 189.176 320.689 189.176C325.32 183.701 332.04 183.561 338.345 184.914C339.098 185.074 339.847 185.255 340.584 185.456C340.67 185.477 340.756 185.501 340.843 185.526C342.317 185.925 343.748 186.385 345.101 186.846C347.434 187.643 349.539 188.449 351.241 188.995C352.096 189.292 352.976 189.508 353.868 189.641C354.063 189.663 354.26 189.671 354.456 189.666C355.13 189.637 355.597 190.397 355.899 191.725C356.581 194.722 356.424 200.625 355.946 206.922Z" fill="#2F2E41"/>
<path d="M347.903 120.57C347.903 120.57 352.629 128.292 354.471 130.079C356.313 131.866 351.13 135.801 351.13 135.801L341.854 137.109C341.854 137.109 341.971 128.259 341.493 127.348C341.015 126.436 347.903 120.57 347.903 120.57Z" fill="#9F616A"/>
<path d="M339.84 130.674C339.84 130.674 341.751 134.32 343.525 134.248C345.298 134.176 354.471 130.079 354.863 128.666C355.255 127.254 357.901 138.784 357.901 138.784L335.456 180.197L329.98 176.23L332.633 151.915L334.812 138.792L339.84 130.674Z" fill="#FF7876"/>
<path d="M355.691 167.736C354.764 169.624 354.291 171.721 354.314 173.844C354.317 173.937 354.321 174.03 354.329 174.123C354.541 178.425 356.053 183.4 356.595 187.019C356.988 189.614 356.876 191.509 355.428 191.954C351.915 193.028 355.94 193.795 342.35 198.537C328.761 203.28 326.389 199.186 326.355 198.257C326.321 197.327 328.279 190.265 327.819 189.818C327.358 189.371 321.375 195.666 319.567 194.808C317.759 193.951 319.361 189.231 319.361 189.231C319.361 189.231 323.433 179.289 323.347 176.965C323.261 174.641 329.516 163.68 329.516 163.68L333.771 134.645C333.771 134.645 335.407 130.854 337.606 130.299C338.992 129.997 340.435 130.272 341.631 131.066L337.95 139.595L334.067 154.65L334.716 160.21C334.716 160.21 339.232 150.25 342.198 146.405C345.164 142.561 351.488 133.459 351.488 133.459C351.488 133.459 352.964 128.236 351.85 126.675C350.735 125.11 356.499 124.876 358.956 131.293C360.259 134.694 362.373 139.766 363.698 144.489C364.879 148.672 365.436 152.583 364.267 154.819C362.479 158.234 357.983 162.723 355.691 167.736Z" fill="#575A89"/>
<path opacity="0.1" d="M364.267 154.819C362.479 158.234 357.983 162.723 355.691 167.736C355.092 165.475 354.362 163.135 354.362 163.135C354.362 163.135 351.56 147.421 359.847 143.36C361.22 143.221 362.593 143.623 363.698 144.489C364.879 148.672 365.436 152.583 364.267 154.819Z" fill="black"/>
<path d="M331.372 153.828L324.347 155.976L314.593 156.373L313.59 165.258L329.619 166.469C329.619 166.469 333.623 154.668 331.372 153.828Z" fill="#575A89"/>
<path d="M342.827 183.705C342.827 183.705 333.429 185.339 335.574 188.304C337.719 191.269 346.045 188.152 346.045 188.152L342.827 183.705Z" fill="#9F616A"/>
<path opacity="0.1" d="M354.328 174.123C354.541 178.425 356.053 183.4 356.595 187.019C353.601 189.989 350.754 192.609 349.681 192.653C347.464 192.743 343.9 192.423 342.587 192.942C341.274 193.46 340.504 184.647 340.504 184.647C340.504 184.647 341.288 181.822 344.783 180.283C347.143 179.242 351.665 176.419 354.328 174.123Z" fill="black"/>
<path d="M359.743 140.571C359.743 140.571 367.246 139.335 366.841 152.386C366.435 165.437 367.632 173.768 364.614 176.218C361.596 178.669 351.795 189.774 349.578 189.864C347.361 189.954 343.797 189.634 342.484 190.153C341.171 190.671 340.401 181.858 340.401 181.858C340.401 181.858 341.185 179.033 344.68 177.494C348.175 175.956 356.41 170.5 356.341 168.641C356.273 166.782 354.258 160.346 354.258 160.346C354.258 160.346 351.457 144.632 359.743 140.571Z" fill="#575A89"/>
<path d="M341.287 132.004C346.678 132.004 351.048 127.422 351.048 121.77C351.048 116.118 346.678 111.536 341.287 111.536C335.896 111.536 331.526 116.118 331.526 121.77C331.526 127.422 335.896 132.004 341.287 132.004Z" fill="#9F616A"/>
<path d="M334.714 107.102C334.479 107.315 334.197 107.463 333.894 107.534C333.741 107.562 333.585 107.527 333.457 107.434C333.33 107.342 333.243 107.2 333.215 107.041C333.039 107.552 332.713 107.99 332.284 108.293C331.828 108.542 331.123 108.333 331.057 107.799C330.99 108.205 330.819 108.584 330.562 108.895C330.427 109.044 330.243 109.131 330.047 109.138C329.852 109.145 329.662 109.071 329.519 108.932C329.718 110.076 329.595 111.252 329.658 112.413C329.721 113.575 330.016 114.806 330.853 115.569C332.073 116.683 333.908 116.408 335.514 116.197C335.756 116.144 336.008 116.158 336.244 116.239C336.845 116.507 336.818 117.385 336.826 118.07C336.875 119.271 337.329 120.416 338.106 121.3C338.884 122.185 339.936 122.751 341.074 122.9C341.711 123.003 342.362 122.837 342.882 122.437C343.338 122.032 343.57 121.372 344.093 121.068C344.942 120.573 345.973 121.295 346.594 122.078C347.215 122.862 347.827 123.826 348.789 123.97C350.062 124.159 351.031 122.8 351.507 121.548C352.163 119.793 352.477 117.918 352.431 116.034C352.385 114.15 351.98 112.294 351.239 110.577C348.582 104.504 339.505 103.544 334.714 107.102Z" fill="#2F2E41"/>
<path d="M68.7734 195.643C74.5773 195.643 79.2823 191.431 79.2823 186.235C79.2823 181.039 74.5773 176.826 68.7734 176.826C62.9694 176.826 58.2644 181.039 58.2644 186.235C58.2644 191.431 62.9694 195.643 68.7734 195.643Z" fill="#9AD14B"/>
<path d="M68.7734 189.707C70.4903 189.707 71.8821 188.152 71.8821 186.235C71.8821 184.317 70.4903 182.763 68.7734 182.763C67.0566 182.763 65.6648 184.317 65.6648 186.235C65.6648 188.152 67.0566 189.707 68.7734 189.707Z" fill="#D1EF9C"/>
<path d="M76.9917 190.331C76.9234 190.331 76.8542 190.314 76.7908 190.277C76.6 190.166 76.5353 189.921 76.6465 189.73C77.2809 188.64 77.6027 187.464 77.6027 186.235C77.6027 184.42 76.8657 182.654 75.5275 181.264C74.1938 179.877 72.3463 178.941 70.3253 178.625C70.107 178.591 69.9576 178.387 69.9917 178.169C70.0257 177.951 70.2297 177.801 70.4484 177.835C72.6412 178.177 74.6496 179.198 76.1038 180.709C77.5861 182.25 78.4025 184.212 78.4025 186.235C78.4025 187.588 78.0343 188.936 77.3376 190.132C77.2634 190.26 77.1294 190.331 76.9917 190.331Z" fill="white"/>
<path d="M68.8266 188.854C67.5976 188.854 66.5978 187.691 66.5978 186.261C66.5978 185.939 66.6482 185.624 66.7478 185.325C66.8175 185.115 67.044 185.002 67.2535 185.072C67.4631 185.142 67.5764 185.368 67.5066 185.577C67.4343 185.795 67.3976 186.025 67.3976 186.261C67.3976 187.25 68.0387 188.054 68.8266 188.054C69.0475 188.054 69.2265 188.233 69.2265 188.454C69.2265 188.674 69.0475 188.854 68.8266 188.854Z" fill="white"/>
<path d="M68.7733 196.043C65.8677 196.043 63.134 195.028 61.0756 193.186C59.0049 191.332 57.8645 188.863 57.8645 186.235C57.8645 183.607 59.0049 181.138 61.0757 179.284C63.134 177.441 65.8677 176.426 68.7734 176.426C71.679 176.426 74.4128 177.441 76.4711 179.284C78.5418 181.138 79.6823 183.606 79.6823 186.235C79.6823 188.863 78.5419 191.332 76.4711 193.186C74.4127 195.028 71.679 196.043 68.7733 196.043ZM68.7733 177.226C63.1992 177.226 58.6643 181.268 58.6643 186.235C58.6643 191.202 63.1992 195.243 68.7733 195.243C74.3475 195.243 78.8824 191.202 78.8824 186.235C78.8824 181.268 74.3475 177.226 68.7733 177.226Z" fill="#333333"/>
<path d="M68.7999 182.39C70.7346 182.39 72.3085 184.127 72.3085 186.262C72.3085 188.396 70.7345 190.133 68.7999 190.133C66.8653 190.133 65.2914 188.396 65.2914 186.262C65.2914 184.127 66.8653 182.39 68.7999 182.39ZM68.7999 189.333C70.2935 189.333 71.5087 187.955 71.5087 186.261C71.5087 184.568 70.2935 183.19 68.7999 183.19C67.3064 183.19 66.0912 184.568 66.0912 186.261C66.0912 187.955 67.3064 189.333 68.7999 189.333Z" fill="#333333"/>
<path d="M68.7644 191.565C68.7633 191.565 68.7628 191.565 68.7617 191.565C68.541 191.564 68.3624 191.384 68.3629 191.164C68.3634 190.943 68.5431 190.764 68.7639 190.765C68.7655 190.765 68.7665 190.765 68.7681 190.765C68.7697 190.765 68.7713 190.765 68.7735 190.765C68.9942 190.765 69.1734 190.944 69.1734 191.165C69.1734 191.385 68.9942 191.565 68.7735 191.565C68.7702 191.565 68.767 191.565 68.7644 191.565ZM70.0751 190.966C69.9828 190.765 70.0713 190.528 70.2718 190.436C70.4729 190.344 70.7101 190.432 70.8019 190.633C70.8941 190.834 70.8061 191.071 70.6051 191.163C70.5512 191.188 70.4947 191.199 70.4387 191.199C70.2873 191.199 70.1422 191.113 70.0751 190.966ZM66.9312 191.158C66.7307 191.066 66.6427 190.828 66.7355 190.628C66.8278 190.427 67.0656 190.339 67.2661 190.432C67.4666 190.524 67.554 190.762 67.4618 190.963C67.394 191.109 67.2495 191.195 67.0986 191.195C67.0421 191.195 66.9856 191.183 66.9312 191.158ZM71.5457 190.087C71.3841 189.936 71.3751 189.683 71.5254 189.521C71.6758 189.36 71.9286 189.351 72.0907 189.501C72.2522 189.652 72.2613 189.904 72.1109 190.066C72.032 190.151 71.9254 190.194 71.8182 190.194C71.7205 190.194 71.623 190.158 71.5457 190.087ZM65.428 190.058C65.2777 189.896 65.2873 189.642 65.4499 189.493C65.612 189.342 65.8648 189.352 66.0146 189.514C66.165 189.677 66.1548 189.929 65.9927 190.08C65.9159 190.151 65.8184 190.186 65.7213 190.186C65.6141 190.186 65.5064 190.143 65.428 190.058ZM72.5876 188.724C72.3845 188.638 72.2895 188.404 72.3754 188.2C72.4618 187.997 72.6964 187.902 72.9001 187.988C73.1032 188.074 73.1982 188.309 73.1123 188.512C73.0478 188.665 72.8996 188.756 72.7439 188.756C72.6915 188.756 72.6388 188.746 72.5876 188.724ZM64.4298 188.501C64.3445 188.298 64.4399 188.064 64.6436 187.978C64.8468 187.892 65.0814 187.987 65.1672 188.191C65.2531 188.395 65.1576 188.629 64.954 188.715C64.9033 188.736 64.8505 188.746 64.7988 188.746C64.6426 188.746 64.4943 188.654 64.4298 188.501ZM73.1155 187.092C72.8953 187.075 72.7311 186.883 72.7481 186.662C72.7652 186.442 72.9577 186.278 73.1779 186.295C73.3981 186.312 73.5629 186.504 73.5453 186.724C73.5293 186.934 73.3539 187.093 73.147 187.093C73.1368 187.093 73.1261 187.093 73.1155 187.092ZM64.0006 186.713C63.9835 186.493 64.1483 186.3 64.3685 186.284C64.5887 186.267 64.7812 186.432 64.7978 186.652C64.8148 186.873 64.6495 187.065 64.4293 187.082C64.4192 187.082 64.4091 187.083 64.3984 187.083C64.1915 187.083 64.0161 186.923 64.0006 186.713ZM72.6249 185.081C72.5732 184.866 72.7054 184.65 72.9203 184.599C73.1352 184.547 73.3511 184.679 73.4029 184.894C73.4541 185.109 73.3218 185.325 73.1075 185.376C73.076 185.383 73.0445 185.387 73.0136 185.387C72.8329 185.387 72.6692 185.264 72.6249 185.081ZM64.441 185.365C64.2266 185.314 64.0949 185.097 64.1467 184.883C64.1989 184.668 64.4149 184.536 64.6298 184.588C64.8441 184.64 64.9758 184.857 64.9241 185.071C64.8793 185.254 64.7161 185.377 64.5359 185.377C64.5044 185.377 64.473 185.373 64.441 185.365ZM72.0096 183.628C71.8906 183.442 71.945 183.195 72.1311 183.076C72.3167 182.956 72.5641 183.011 72.6835 183.197C72.8025 183.382 72.7481 183.63 72.562 183.749C72.4953 183.792 72.4207 183.812 72.3471 183.812C72.2154 183.812 72.0863 183.747 72.0096 183.628ZM64.9897 183.74C64.8036 183.62 64.7503 183.373 64.8697 183.187C64.9891 183.001 65.2366 182.947 65.4221 183.067C65.6082 183.186 65.6615 183.434 65.5421 183.62C65.4658 183.739 65.3368 183.803 65.2056 183.803C65.1316 183.803 65.0563 183.783 64.9897 183.74ZM70.9452 182.484C70.7671 182.353 70.7288 182.103 70.8594 181.925C70.99 181.747 71.2406 181.709 71.4187 181.839C71.5963 181.97 71.6347 182.22 71.5041 182.398C71.4257 182.505 71.3046 182.561 71.1815 182.561C71.0994 182.561 71.0167 182.536 70.9452 182.484ZM66.0503 182.391C65.9202 182.213 65.9591 181.962 66.1372 181.832C66.3159 181.702 66.5659 181.741 66.696 181.919C66.8267 182.098 66.7878 182.348 66.6091 182.478C66.5382 182.53 66.4556 182.555 66.374 182.555C66.2503 182.555 66.1286 182.498 66.0503 182.391ZM69.5445 181.843C69.329 181.795 69.1925 181.581 69.2405 181.366C69.288 181.15 69.5013 181.014 69.7172 181.061C69.9327 181.109 70.0692 181.323 70.0212 181.539C69.9801 181.725 69.8148 181.852 69.6308 181.852C69.6026 181.852 69.5733 181.849 69.5445 181.843ZM67.5353 181.535C67.4884 181.319 67.6255 181.106 67.8409 181.059C68.0568 181.012 68.2701 181.149 68.317 181.364C68.364 181.58 68.2275 181.793 68.0115 181.84C67.9827 181.847 67.9539 181.849 67.9262 181.849C67.7422 181.849 67.5764 181.722 67.5353 181.535Z" fill="#333333"/>
<path d="M68.7735 178.506C68.9944 178.506 69.1734 178.327 69.1734 178.106C69.1734 177.885 68.9944 177.706 68.7735 177.706C68.5526 177.706 68.3736 177.885 68.3736 178.106C68.3736 178.327 68.5526 178.506 68.7735 178.506Z" fill="white"/>
</g>
<defs>
<clipPath id="clip0_5_1101">
<rect width="406" height="258" fill="white"/>
</clipPath>
</defs>
</svg>
