<svg width="1920" height="154" viewBox="0 0 1920 154" fill="none" xmlns="http://www.w3.org/2000/svg">
<path fill-rule="evenodd" clip-rule="evenodd" d="M0 131.97L64 113.738C128 95.5069 256 59.0436 384 55.6252C512 51.8269 640 81.0735 768 70.0585C896 59.0436 1024 8.14699 1152 0.9303C1280 -6.28639 1408 30.1769 1536 51.8269C1664 73.8568 1792 81.0735 1856 84.8717L1920 88.2902V154H1856C1792 154 1664 154 1536 154C1408 154 1280 154 1152 154C1024 154 896 154 768 154C640 154 512 154 384 154C256 154 128 154 64 154H0V131.97Z" fill="#FF7876"/>
</svg>
